<?xml version="1.0" encoding="utf-8" standalone="no"?>
<!DOCTYPE svg PUBLIC "-//W3C//DTD SVG 1.1//EN"
  "http://www.w3.org/Graphics/SVG/1.1/DTD/svg11.dtd">
<svg height="352.55625pt" version="1.1" viewBox="0 0 608.98125 352.55625" width="608.98125pt" xmlns="http://www.w3.org/2000/svg" xmlns:xlink="http://www.w3.org/1999/xlink">
 <metadata>
  <rdf:RDF xmlns:cc="http://creativecommons.org/ns#" xmlns:dc="http://purl.org/dc/elements/1.1/" xmlns:rdf="http://www.w3.org/1999/02/22-rdf-syntax-ns#">
   <cc:Work>
    <dc:type rdf:resource="http://purl.org/dc/dcmitype/StillImage"/>
    <dc:date>2022-05-30T17:41:34.955768</dc:date>
    <dc:format>image/svg+xml</dc:format>
    <dc:creator>
     <cc:Agent>
      <dc:title>Matplotlib v3.4.3, https://matplotlib.org/</dc:title>
     </cc:Agent>
    </dc:creator>
   </cc:Work>
  </rdf:RDF>
 </metadata>
 <defs>
  <style type="text/css">*{stroke-linecap:butt;stroke-linejoin:round;}</style>
 </defs>
 <g id="figure_1">
  <g id="patch_1">
   <path d="M 0 352.55625 
L 608.98125 352.55625 
L 608.98125 0 
L 0 0 
z
" style="fill:#ffffff;"/>
  </g>
  <g id="axes_1">
   <g id="patch_2">
    <path d="M 43.78125 315 
L 601.78125 315 
L 601.78125 43.2 
L 43.78125 43.2 
z
" style="fill:#ffffff;"/>
   </g>
   <g id="matplotlib.axis_1">
    <g id="xtick_1">
     <g id="line2d_1">
      <path clip-path="url(#p816c2f2d7c)" d="M 112.716093 315 
L 112.716093 43.2 
" style="fill:none;stroke:#cccccc;stroke-linecap:round;stroke-width:0.8;"/>
     </g>
     <g id="text_1">
      <!-- Jun-2017 -->
      <g style="fill:#262626;" transform="translate(90.374687 329.598437)scale(0.1 -0.1)">
       <defs>
        <path d="M 628 4666 
L 1259 4666 
L 1259 325 
Q 1259 -519 939 -900 
Q 619 -1281 -91 -1281 
L -331 -1281 
L -331 -750 
L -134 -750 
Q 284 -750 456 -515 
Q 628 -281 628 325 
L 628 4666 
z
" id="DejaVuSans-4a" transform="scale(0.015625)"/>
        <path d="M 544 1381 
L 544 3500 
L 1119 3500 
L 1119 1403 
Q 1119 906 1312 657 
Q 1506 409 1894 409 
Q 2359 409 2629 706 
Q 2900 1003 2900 1516 
L 2900 3500 
L 3475 3500 
L 3475 0 
L 2900 0 
L 2900 538 
Q 2691 219 2414 64 
Q 2138 -91 1772 -91 
Q 1169 -91 856 284 
Q 544 659 544 1381 
z
M 1991 3584 
L 1991 3584 
z
" id="DejaVuSans-75" transform="scale(0.015625)"/>
        <path d="M 3513 2113 
L 3513 0 
L 2938 0 
L 2938 2094 
Q 2938 2591 2744 2837 
Q 2550 3084 2163 3084 
Q 1697 3084 1428 2787 
Q 1159 2491 1159 1978 
L 1159 0 
L 581 0 
L 581 3500 
L 1159 3500 
L 1159 2956 
Q 1366 3272 1645 3428 
Q 1925 3584 2291 3584 
Q 2894 3584 3203 3211 
Q 3513 2838 3513 2113 
z
" id="DejaVuSans-6e" transform="scale(0.015625)"/>
        <path d="M 313 2009 
L 1997 2009 
L 1997 1497 
L 313 1497 
L 313 2009 
z
" id="DejaVuSans-2d" transform="scale(0.015625)"/>
        <path d="M 1228 531 
L 3431 531 
L 3431 0 
L 469 0 
L 469 531 
Q 828 903 1448 1529 
Q 2069 2156 2228 2338 
Q 2531 2678 2651 2914 
Q 2772 3150 2772 3378 
Q 2772 3750 2511 3984 
Q 2250 4219 1831 4219 
Q 1534 4219 1204 4116 
Q 875 4013 500 3803 
L 500 4441 
Q 881 4594 1212 4672 
Q 1544 4750 1819 4750 
Q 2544 4750 2975 4387 
Q 3406 4025 3406 3419 
Q 3406 3131 3298 2873 
Q 3191 2616 2906 2266 
Q 2828 2175 2409 1742 
Q 1991 1309 1228 531 
z
" id="DejaVuSans-32" transform="scale(0.015625)"/>
        <path d="M 2034 4250 
Q 1547 4250 1301 3770 
Q 1056 3291 1056 2328 
Q 1056 1369 1301 889 
Q 1547 409 2034 409 
Q 2525 409 2770 889 
Q 3016 1369 3016 2328 
Q 3016 3291 2770 3770 
Q 2525 4250 2034 4250 
z
M 2034 4750 
Q 2819 4750 3233 4129 
Q 3647 3509 3647 2328 
Q 3647 1150 3233 529 
Q 2819 -91 2034 -91 
Q 1250 -91 836 529 
Q 422 1150 422 2328 
Q 422 3509 836 4129 
Q 1250 4750 2034 4750 
z
" id="DejaVuSans-30" transform="scale(0.015625)"/>
        <path d="M 794 531 
L 1825 531 
L 1825 4091 
L 703 3866 
L 703 4441 
L 1819 4666 
L 2450 4666 
L 2450 531 
L 3481 531 
L 3481 0 
L 794 0 
L 794 531 
z
" id="DejaVuSans-31" transform="scale(0.015625)"/>
        <path d="M 525 4666 
L 3525 4666 
L 3525 4397 
L 1831 0 
L 1172 0 
L 2766 4134 
L 525 4134 
L 525 4666 
z
" id="DejaVuSans-37" transform="scale(0.015625)"/>
       </defs>
       <use xlink:href="#DejaVuSans-4a"/>
       <use x="29.492188" xlink:href="#DejaVuSans-75"/>
       <use x="92.871094" xlink:href="#DejaVuSans-6e"/>
       <use x="156.25" xlink:href="#DejaVuSans-2d"/>
       <use x="192.333984" xlink:href="#DejaVuSans-32"/>
       <use x="255.957031" xlink:href="#DejaVuSans-30"/>
       <use x="319.580078" xlink:href="#DejaVuSans-31"/>
       <use x="383.203125" xlink:href="#DejaVuSans-37"/>
      </g>
     </g>
    </g>
    <g id="xtick_2">
     <g id="line2d_2">
      <path clip-path="url(#p816c2f2d7c)" d="M 218.037223 315 
L 218.037223 43.2 
" style="fill:none;stroke:#cccccc;stroke-linecap:round;stroke-width:0.8;"/>
     </g>
     <g id="text_2">
      <!-- Jun-2018 -->
      <g style="fill:#262626;" transform="translate(195.695816 329.598437)scale(0.1 -0.1)">
       <defs>
        <path d="M 2034 2216 
Q 1584 2216 1326 1975 
Q 1069 1734 1069 1313 
Q 1069 891 1326 650 
Q 1584 409 2034 409 
Q 2484 409 2743 651 
Q 3003 894 3003 1313 
Q 3003 1734 2745 1975 
Q 2488 2216 2034 2216 
z
M 1403 2484 
Q 997 2584 770 2862 
Q 544 3141 544 3541 
Q 544 4100 942 4425 
Q 1341 4750 2034 4750 
Q 2731 4750 3128 4425 
Q 3525 4100 3525 3541 
Q 3525 3141 3298 2862 
Q 3072 2584 2669 2484 
Q 3125 2378 3379 2068 
Q 3634 1759 3634 1313 
Q 3634 634 3220 271 
Q 2806 -91 2034 -91 
Q 1263 -91 848 271 
Q 434 634 434 1313 
Q 434 1759 690 2068 
Q 947 2378 1403 2484 
z
M 1172 3481 
Q 1172 3119 1398 2916 
Q 1625 2713 2034 2713 
Q 2441 2713 2670 2916 
Q 2900 3119 2900 3481 
Q 2900 3844 2670 4047 
Q 2441 4250 2034 4250 
Q 1625 4250 1398 4047 
Q 1172 3844 1172 3481 
z
" id="DejaVuSans-38" transform="scale(0.015625)"/>
       </defs>
       <use xlink:href="#DejaVuSans-4a"/>
       <use x="29.492188" xlink:href="#DejaVuSans-75"/>
       <use x="92.871094" xlink:href="#DejaVuSans-6e"/>
       <use x="156.25" xlink:href="#DejaVuSans-2d"/>
       <use x="192.333984" xlink:href="#DejaVuSans-32"/>
       <use x="255.957031" xlink:href="#DejaVuSans-30"/>
       <use x="319.580078" xlink:href="#DejaVuSans-31"/>
       <use x="383.203125" xlink:href="#DejaVuSans-38"/>
      </g>
     </g>
    </g>
    <g id="xtick_3">
     <g id="line2d_3">
      <path clip-path="url(#p816c2f2d7c)" d="M 323.358352 315 
L 323.358352 43.2 
" style="fill:none;stroke:#cccccc;stroke-linecap:round;stroke-width:0.8;"/>
     </g>
     <g id="text_3">
      <!-- Jun-2019 -->
      <g style="fill:#262626;" transform="translate(301.016946 329.598437)scale(0.1 -0.1)">
       <defs>
        <path d="M 703 97 
L 703 672 
Q 941 559 1184 500 
Q 1428 441 1663 441 
Q 2288 441 2617 861 
Q 2947 1281 2994 2138 
Q 2813 1869 2534 1725 
Q 2256 1581 1919 1581 
Q 1219 1581 811 2004 
Q 403 2428 403 3163 
Q 403 3881 828 4315 
Q 1253 4750 1959 4750 
Q 2769 4750 3195 4129 
Q 3622 3509 3622 2328 
Q 3622 1225 3098 567 
Q 2575 -91 1691 -91 
Q 1453 -91 1209 -44 
Q 966 3 703 97 
z
M 1959 2075 
Q 2384 2075 2632 2365 
Q 2881 2656 2881 3163 
Q 2881 3666 2632 3958 
Q 2384 4250 1959 4250 
Q 1534 4250 1286 3958 
Q 1038 3666 1038 3163 
Q 1038 2656 1286 2365 
Q 1534 2075 1959 2075 
z
" id="DejaVuSans-39" transform="scale(0.015625)"/>
       </defs>
       <use xlink:href="#DejaVuSans-4a"/>
       <use x="29.492188" xlink:href="#DejaVuSans-75"/>
       <use x="92.871094" xlink:href="#DejaVuSans-6e"/>
       <use x="156.25" xlink:href="#DejaVuSans-2d"/>
       <use x="192.333984" xlink:href="#DejaVuSans-32"/>
       <use x="255.957031" xlink:href="#DejaVuSans-30"/>
       <use x="319.580078" xlink:href="#DejaVuSans-31"/>
       <use x="383.203125" xlink:href="#DejaVuSans-39"/>
      </g>
     </g>
    </g>
    <g id="xtick_4">
     <g id="line2d_4">
      <path clip-path="url(#p816c2f2d7c)" d="M 428.968033 315 
L 428.968033 43.2 
" style="fill:none;stroke:#cccccc;stroke-linecap:round;stroke-width:0.8;"/>
     </g>
     <g id="text_4">
      <!-- Jun-2020 -->
      <g style="fill:#262626;" transform="translate(406.626626 329.598437)scale(0.1 -0.1)">
       <use xlink:href="#DejaVuSans-4a"/>
       <use x="29.492188" xlink:href="#DejaVuSans-75"/>
       <use x="92.871094" xlink:href="#DejaVuSans-6e"/>
       <use x="156.25" xlink:href="#DejaVuSans-2d"/>
       <use x="192.333984" xlink:href="#DejaVuSans-32"/>
       <use x="255.957031" xlink:href="#DejaVuSans-30"/>
       <use x="319.580078" xlink:href="#DejaVuSans-32"/>
       <use x="383.203125" xlink:href="#DejaVuSans-30"/>
      </g>
     </g>
    </g>
    <g id="xtick_5">
     <g id="line2d_5">
      <path clip-path="url(#p816c2f2d7c)" d="M 534.289162 315 
L 534.289162 43.2 
" style="fill:none;stroke:#cccccc;stroke-linecap:round;stroke-width:0.8;"/>
     </g>
     <g id="text_5">
      <!-- Jun-2021 -->
      <g style="fill:#262626;" transform="translate(511.947756 329.598437)scale(0.1 -0.1)">
       <use xlink:href="#DejaVuSans-4a"/>
       <use x="29.492188" xlink:href="#DejaVuSans-75"/>
       <use x="92.871094" xlink:href="#DejaVuSans-6e"/>
       <use x="156.25" xlink:href="#DejaVuSans-2d"/>
       <use x="192.333984" xlink:href="#DejaVuSans-32"/>
       <use x="255.957031" xlink:href="#DejaVuSans-30"/>
       <use x="319.580078" xlink:href="#DejaVuSans-32"/>
       <use x="383.203125" xlink:href="#DejaVuSans-31"/>
      </g>
     </g>
    </g>
    <g id="text_6">
     <!-- Mes - Año -->
     <g style="fill:#262626;" transform="translate(298.155469 343.276562)scale(0.1 -0.1)">
      <defs>
       <path d="M 628 4666 
L 1569 4666 
L 2759 1491 
L 3956 4666 
L 4897 4666 
L 4897 0 
L 4281 0 
L 4281 4097 
L 3078 897 
L 2444 897 
L 1241 4097 
L 1241 0 
L 628 0 
L 628 4666 
z
" id="DejaVuSans-4d" transform="scale(0.015625)"/>
       <path d="M 3597 1894 
L 3597 1613 
L 953 1613 
Q 991 1019 1311 708 
Q 1631 397 2203 397 
Q 2534 397 2845 478 
Q 3156 559 3463 722 
L 3463 178 
Q 3153 47 2828 -22 
Q 2503 -91 2169 -91 
Q 1331 -91 842 396 
Q 353 884 353 1716 
Q 353 2575 817 3079 
Q 1281 3584 2069 3584 
Q 2775 3584 3186 3129 
Q 3597 2675 3597 1894 
z
M 3022 2063 
Q 3016 2534 2758 2815 
Q 2500 3097 2075 3097 
Q 1594 3097 1305 2825 
Q 1016 2553 972 2059 
L 3022 2063 
z
" id="DejaVuSans-65" transform="scale(0.015625)"/>
       <path d="M 2834 3397 
L 2834 2853 
Q 2591 2978 2328 3040 
Q 2066 3103 1784 3103 
Q 1356 3103 1142 2972 
Q 928 2841 928 2578 
Q 928 2378 1081 2264 
Q 1234 2150 1697 2047 
L 1894 2003 
Q 2506 1872 2764 1633 
Q 3022 1394 3022 966 
Q 3022 478 2636 193 
Q 2250 -91 1575 -91 
Q 1294 -91 989 -36 
Q 684 19 347 128 
L 347 722 
Q 666 556 975 473 
Q 1284 391 1588 391 
Q 1994 391 2212 530 
Q 2431 669 2431 922 
Q 2431 1156 2273 1281 
Q 2116 1406 1581 1522 
L 1381 1569 
Q 847 1681 609 1914 
Q 372 2147 372 2553 
Q 372 3047 722 3315 
Q 1072 3584 1716 3584 
Q 2034 3584 2315 3537 
Q 2597 3491 2834 3397 
z
" id="DejaVuSans-73" transform="scale(0.015625)"/>
       <path id="DejaVuSans-20" transform="scale(0.015625)"/>
       <path d="M 2188 4044 
L 1331 1722 
L 3047 1722 
L 2188 4044 
z
M 1831 4666 
L 2547 4666 
L 4325 0 
L 3669 0 
L 3244 1197 
L 1141 1197 
L 716 0 
L 50 0 
L 1831 4666 
z
" id="DejaVuSans-41" transform="scale(0.015625)"/>
       <path d="M 3513 2113 
L 3513 0 
L 2938 0 
L 2938 2094 
Q 2938 2591 2744 2837 
Q 2550 3084 2163 3084 
Q 1697 3084 1428 2787 
Q 1159 2491 1159 1978 
L 1159 0 
L 581 0 
L 581 3500 
L 1159 3500 
L 1159 2956 
Q 1366 3272 1645 3428 
Q 1925 3584 2291 3584 
Q 2894 3584 3203 3211 
Q 3513 2838 3513 2113 
z
M 2060 4281 
L 1881 4453 
Q 1813 4516 1761 4545 
Q 1710 4575 1669 4575 
Q 1550 4575 1494 4461 
Q 1438 4347 1431 4091 
L 1041 4091 
Q 1047 4513 1206 4742 
Q 1366 4972 1650 4972 
Q 1769 4972 1869 4928 
Q 1969 4884 2085 4781 
L 2263 4609 
Q 2331 4547 2383 4517 
Q 2435 4488 2475 4488 
Q 2594 4488 2650 4602 
Q 2706 4716 2713 4972 
L 3103 4972 
Q 3097 4550 2937 4320 
Q 2778 4091 2494 4091 
Q 2375 4091 2275 4134 
Q 2175 4178 2060 4281 
z
" id="DejaVuSans-f1" transform="scale(0.015625)"/>
       <path d="M 1959 3097 
Q 1497 3097 1228 2736 
Q 959 2375 959 1747 
Q 959 1119 1226 758 
Q 1494 397 1959 397 
Q 2419 397 2687 759 
Q 2956 1122 2956 1747 
Q 2956 2369 2687 2733 
Q 2419 3097 1959 3097 
z
M 1959 3584 
Q 2709 3584 3137 3096 
Q 3566 2609 3566 1747 
Q 3566 888 3137 398 
Q 2709 -91 1959 -91 
Q 1206 -91 779 398 
Q 353 888 353 1747 
Q 353 2609 779 3096 
Q 1206 3584 1959 3584 
z
" id="DejaVuSans-6f" transform="scale(0.015625)"/>
      </defs>
      <use xlink:href="#DejaVuSans-4d"/>
      <use x="86.279297" xlink:href="#DejaVuSans-65"/>
      <use x="147.802734" xlink:href="#DejaVuSans-73"/>
      <use x="199.902344" xlink:href="#DejaVuSans-20"/>
      <use x="231.689453" xlink:href="#DejaVuSans-2d"/>
      <use x="267.773438" xlink:href="#DejaVuSans-20"/>
      <use x="299.560547" xlink:href="#DejaVuSans-41"/>
      <use x="367.96875" xlink:href="#DejaVuSans-f1"/>
      <use x="431.347656" xlink:href="#DejaVuSans-6f"/>
     </g>
    </g>
   </g>
   <g id="matplotlib.axis_2">
    <g id="ytick_1">
     <g id="line2d_6">
      <path clip-path="url(#p816c2f2d7c)" d="M 43.78125 309.453117 
L 601.78125 309.453117 
" style="fill:none;stroke:#cccccc;stroke-linecap:round;stroke-width:0.8;"/>
     </g>
     <g id="text_7">
      <!-- 0.1 -->
      <g style="fill:#262626;" transform="translate(20.878125 313.252336)scale(0.1 -0.1)">
       <defs>
        <path d="M 684 794 
L 1344 794 
L 1344 0 
L 684 0 
L 684 794 
z
" id="DejaVuSans-2e" transform="scale(0.015625)"/>
       </defs>
       <use xlink:href="#DejaVuSans-30"/>
       <use x="63.623047" xlink:href="#DejaVuSans-2e"/>
       <use x="95.410156" xlink:href="#DejaVuSans-31"/>
      </g>
     </g>
    </g>
    <g id="ytick_2">
     <g id="line2d_7">
      <path clip-path="url(#p816c2f2d7c)" d="M 43.78125 254.991819 
L 601.78125 254.991819 
" style="fill:none;stroke:#cccccc;stroke-linecap:round;stroke-width:0.8;"/>
     </g>
     <g id="text_8">
      <!-- 0.2 -->
      <g style="fill:#262626;" transform="translate(20.878125 258.791038)scale(0.1 -0.1)">
       <use xlink:href="#DejaVuSans-30"/>
       <use x="63.623047" xlink:href="#DejaVuSans-2e"/>
       <use x="95.410156" xlink:href="#DejaVuSans-32"/>
      </g>
     </g>
    </g>
    <g id="ytick_3">
     <g id="line2d_8">
      <path clip-path="url(#p816c2f2d7c)" d="M 43.78125 200.530521 
L 601.78125 200.530521 
" style="fill:none;stroke:#cccccc;stroke-linecap:round;stroke-width:0.8;"/>
     </g>
     <g id="text_9">
      <!-- 0.3 -->
      <g style="fill:#262626;" transform="translate(20.878125 204.32974)scale(0.1 -0.1)">
       <defs>
        <path d="M 2597 2516 
Q 3050 2419 3304 2112 
Q 3559 1806 3559 1356 
Q 3559 666 3084 287 
Q 2609 -91 1734 -91 
Q 1441 -91 1130 -33 
Q 819 25 488 141 
L 488 750 
Q 750 597 1062 519 
Q 1375 441 1716 441 
Q 2309 441 2620 675 
Q 2931 909 2931 1356 
Q 2931 1769 2642 2001 
Q 2353 2234 1838 2234 
L 1294 2234 
L 1294 2753 
L 1863 2753 
Q 2328 2753 2575 2939 
Q 2822 3125 2822 3475 
Q 2822 3834 2567 4026 
Q 2313 4219 1838 4219 
Q 1578 4219 1281 4162 
Q 984 4106 628 3988 
L 628 4550 
Q 988 4650 1302 4700 
Q 1616 4750 1894 4750 
Q 2613 4750 3031 4423 
Q 3450 4097 3450 3541 
Q 3450 3153 3228 2886 
Q 3006 2619 2597 2516 
z
" id="DejaVuSans-33" transform="scale(0.015625)"/>
       </defs>
       <use xlink:href="#DejaVuSans-30"/>
       <use x="63.623047" xlink:href="#DejaVuSans-2e"/>
       <use x="95.410156" xlink:href="#DejaVuSans-33"/>
      </g>
     </g>
    </g>
    <g id="ytick_4">
     <g id="line2d_9">
      <path clip-path="url(#p816c2f2d7c)" d="M 43.78125 146.069223 
L 601.78125 146.069223 
" style="fill:none;stroke:#cccccc;stroke-linecap:round;stroke-width:0.8;"/>
     </g>
     <g id="text_10">
      <!-- 0.4 -->
      <g style="fill:#262626;" transform="translate(20.878125 149.868442)scale(0.1 -0.1)">
       <defs>
        <path d="M 2419 4116 
L 825 1625 
L 2419 1625 
L 2419 4116 
z
M 2253 4666 
L 3047 4666 
L 3047 1625 
L 3713 1625 
L 3713 1100 
L 3047 1100 
L 3047 0 
L 2419 0 
L 2419 1100 
L 313 1100 
L 313 1709 
L 2253 4666 
z
" id="DejaVuSans-34" transform="scale(0.015625)"/>
       </defs>
       <use xlink:href="#DejaVuSans-30"/>
       <use x="63.623047" xlink:href="#DejaVuSans-2e"/>
       <use x="95.410156" xlink:href="#DejaVuSans-34"/>
      </g>
     </g>
    </g>
    <g id="ytick_5">
     <g id="line2d_10">
      <path clip-path="url(#p816c2f2d7c)" d="M 43.78125 91.607925 
L 601.78125 91.607925 
" style="fill:none;stroke:#cccccc;stroke-linecap:round;stroke-width:0.8;"/>
     </g>
     <g id="text_11">
      <!-- 0.5 -->
      <g style="fill:#262626;" transform="translate(20.878125 95.407143)scale(0.1 -0.1)">
       <defs>
        <path d="M 691 4666 
L 3169 4666 
L 3169 4134 
L 1269 4134 
L 1269 2991 
Q 1406 3038 1543 3061 
Q 1681 3084 1819 3084 
Q 2600 3084 3056 2656 
Q 3513 2228 3513 1497 
Q 3513 744 3044 326 
Q 2575 -91 1722 -91 
Q 1428 -91 1123 -41 
Q 819 9 494 109 
L 494 744 
Q 775 591 1075 516 
Q 1375 441 1709 441 
Q 2250 441 2565 725 
Q 2881 1009 2881 1497 
Q 2881 1984 2565 2268 
Q 2250 2553 1709 2553 
Q 1456 2553 1204 2497 
Q 953 2441 691 2322 
L 691 4666 
z
" id="DejaVuSans-35" transform="scale(0.015625)"/>
       </defs>
       <use xlink:href="#DejaVuSans-30"/>
       <use x="63.623047" xlink:href="#DejaVuSans-2e"/>
       <use x="95.410156" xlink:href="#DejaVuSans-35"/>
      </g>
     </g>
    </g>
    <g id="text_12">
     <!-- Mediana y Rango de Valores -->
     <g style="fill:#262626;" transform="translate(14.798438 249.914844)rotate(-90)scale(0.1 -0.1)">
      <defs>
       <path d="M 2906 2969 
L 2906 4863 
L 3481 4863 
L 3481 0 
L 2906 0 
L 2906 525 
Q 2725 213 2448 61 
Q 2172 -91 1784 -91 
Q 1150 -91 751 415 
Q 353 922 353 1747 
Q 353 2572 751 3078 
Q 1150 3584 1784 3584 
Q 2172 3584 2448 3432 
Q 2725 3281 2906 2969 
z
M 947 1747 
Q 947 1113 1208 752 
Q 1469 391 1925 391 
Q 2381 391 2643 752 
Q 2906 1113 2906 1747 
Q 2906 2381 2643 2742 
Q 2381 3103 1925 3103 
Q 1469 3103 1208 2742 
Q 947 2381 947 1747 
z
" id="DejaVuSans-64" transform="scale(0.015625)"/>
       <path d="M 603 3500 
L 1178 3500 
L 1178 0 
L 603 0 
L 603 3500 
z
M 603 4863 
L 1178 4863 
L 1178 4134 
L 603 4134 
L 603 4863 
z
" id="DejaVuSans-69" transform="scale(0.015625)"/>
       <path d="M 2194 1759 
Q 1497 1759 1228 1600 
Q 959 1441 959 1056 
Q 959 750 1161 570 
Q 1363 391 1709 391 
Q 2188 391 2477 730 
Q 2766 1069 2766 1631 
L 2766 1759 
L 2194 1759 
z
M 3341 1997 
L 3341 0 
L 2766 0 
L 2766 531 
Q 2569 213 2275 61 
Q 1981 -91 1556 -91 
Q 1019 -91 701 211 
Q 384 513 384 1019 
Q 384 1609 779 1909 
Q 1175 2209 1959 2209 
L 2766 2209 
L 2766 2266 
Q 2766 2663 2505 2880 
Q 2244 3097 1772 3097 
Q 1472 3097 1187 3025 
Q 903 2953 641 2809 
L 641 3341 
Q 956 3463 1253 3523 
Q 1550 3584 1831 3584 
Q 2591 3584 2966 3190 
Q 3341 2797 3341 1997 
z
" id="DejaVuSans-61" transform="scale(0.015625)"/>
       <path d="M 2059 -325 
Q 1816 -950 1584 -1140 
Q 1353 -1331 966 -1331 
L 506 -1331 
L 506 -850 
L 844 -850 
Q 1081 -850 1212 -737 
Q 1344 -625 1503 -206 
L 1606 56 
L 191 3500 
L 800 3500 
L 1894 763 
L 2988 3500 
L 3597 3500 
L 2059 -325 
z
" id="DejaVuSans-79" transform="scale(0.015625)"/>
       <path d="M 2841 2188 
Q 3044 2119 3236 1894 
Q 3428 1669 3622 1275 
L 4263 0 
L 3584 0 
L 2988 1197 
Q 2756 1666 2539 1819 
Q 2322 1972 1947 1972 
L 1259 1972 
L 1259 0 
L 628 0 
L 628 4666 
L 2053 4666 
Q 2853 4666 3247 4331 
Q 3641 3997 3641 3322 
Q 3641 2881 3436 2590 
Q 3231 2300 2841 2188 
z
M 1259 4147 
L 1259 2491 
L 2053 2491 
Q 2509 2491 2742 2702 
Q 2975 2913 2975 3322 
Q 2975 3731 2742 3939 
Q 2509 4147 2053 4147 
L 1259 4147 
z
" id="DejaVuSans-52" transform="scale(0.015625)"/>
       <path d="M 2906 1791 
Q 2906 2416 2648 2759 
Q 2391 3103 1925 3103 
Q 1463 3103 1205 2759 
Q 947 2416 947 1791 
Q 947 1169 1205 825 
Q 1463 481 1925 481 
Q 2391 481 2648 825 
Q 2906 1169 2906 1791 
z
M 3481 434 
Q 3481 -459 3084 -895 
Q 2688 -1331 1869 -1331 
Q 1566 -1331 1297 -1286 
Q 1028 -1241 775 -1147 
L 775 -588 
Q 1028 -725 1275 -790 
Q 1522 -856 1778 -856 
Q 2344 -856 2625 -561 
Q 2906 -266 2906 331 
L 2906 616 
Q 2728 306 2450 153 
Q 2172 0 1784 0 
Q 1141 0 747 490 
Q 353 981 353 1791 
Q 353 2603 747 3093 
Q 1141 3584 1784 3584 
Q 2172 3584 2450 3431 
Q 2728 3278 2906 2969 
L 2906 3500 
L 3481 3500 
L 3481 434 
z
" id="DejaVuSans-67" transform="scale(0.015625)"/>
       <path d="M 1831 0 
L 50 4666 
L 709 4666 
L 2188 738 
L 3669 4666 
L 4325 4666 
L 2547 0 
L 1831 0 
z
" id="DejaVuSans-56" transform="scale(0.015625)"/>
       <path d="M 603 4863 
L 1178 4863 
L 1178 0 
L 603 0 
L 603 4863 
z
" id="DejaVuSans-6c" transform="scale(0.015625)"/>
       <path d="M 2631 2963 
Q 2534 3019 2420 3045 
Q 2306 3072 2169 3072 
Q 1681 3072 1420 2755 
Q 1159 2438 1159 1844 
L 1159 0 
L 581 0 
L 581 3500 
L 1159 3500 
L 1159 2956 
Q 1341 3275 1631 3429 
Q 1922 3584 2338 3584 
Q 2397 3584 2469 3576 
Q 2541 3569 2628 3553 
L 2631 2963 
z
" id="DejaVuSans-72" transform="scale(0.015625)"/>
      </defs>
      <use xlink:href="#DejaVuSans-4d"/>
      <use x="86.279297" xlink:href="#DejaVuSans-65"/>
      <use x="147.802734" xlink:href="#DejaVuSans-64"/>
      <use x="211.279297" xlink:href="#DejaVuSans-69"/>
      <use x="239.0625" xlink:href="#DejaVuSans-61"/>
      <use x="300.341797" xlink:href="#DejaVuSans-6e"/>
      <use x="363.720703" xlink:href="#DejaVuSans-61"/>
      <use x="425" xlink:href="#DejaVuSans-20"/>
      <use x="456.787109" xlink:href="#DejaVuSans-79"/>
      <use x="515.966797" xlink:href="#DejaVuSans-20"/>
      <use x="547.753906" xlink:href="#DejaVuSans-52"/>
      <use x="614.986328" xlink:href="#DejaVuSans-61"/>
      <use x="676.265625" xlink:href="#DejaVuSans-6e"/>
      <use x="739.644531" xlink:href="#DejaVuSans-67"/>
      <use x="803.121094" xlink:href="#DejaVuSans-6f"/>
      <use x="864.302734" xlink:href="#DejaVuSans-20"/>
      <use x="896.089844" xlink:href="#DejaVuSans-64"/>
      <use x="959.566406" xlink:href="#DejaVuSans-65"/>
      <use x="1021.089844" xlink:href="#DejaVuSans-20"/>
      <use x="1052.876953" xlink:href="#DejaVuSans-56"/>
      <use x="1113.535156" xlink:href="#DejaVuSans-61"/>
      <use x="1174.814453" xlink:href="#DejaVuSans-6c"/>
      <use x="1202.597656" xlink:href="#DejaVuSans-6f"/>
      <use x="1263.779297" xlink:href="#DejaVuSans-72"/>
      <use x="1302.642578" xlink:href="#DejaVuSans-65"/>
      <use x="1364.166016" xlink:href="#DejaVuSans-73"/>
     </g>
    </g>
   </g>
   <g id="PolyCollection_1">
    <defs>
     <path d="M 69.144886 -297.001705 
L 69.144886 -128.934139 
L 70.010539 -100.178574 
L 70.876193 -120.438176 
L 71.741846 -115.209892 
L 72.607499 -87.924781 
L 73.473152 -102.248103 
L 74.338805 -75.235299 
L 75.204458 -90.157695 
L 76.070111 -142.603925 
L 76.935764 -112.160059 
L 77.801418 -126.374458 
L 78.667071 -163.408141 
L 79.532724 -124.904003 
L 80.398377 -161.610918 
L 81.26403 -195.213539 
L 82.129683 -134.43473 
L 82.995336 -112.813595 
L 83.860989 -107.040697 
L 84.726642 -142.495002 
L 85.592296 -132.964275 
L 86.457949 -216.943596 
L 87.323602 -202.892582 
L 89.054908 -145.653757 
L 89.920561 -145.708219 
L 90.786214 -185.356044 
L 91.651867 -104.698861 
L 92.517521 -125.067387 
L 93.383174 -101.104416 
L 94.248827 -87.107862 
L 95.11448 -77.086983 
L 95.980133 -166.893664 
L 96.845786 -153.659568 
L 97.711439 -157.853088 
L 98.577092 -110.199452 
L 99.442746 -263.998158 
L 100.308399 -170.379187 
L 101.174052 -159.378004 
L 102.039705 -197.228607 
L 102.905358 -129.914442 
L 103.771011 -103.881942 
L 104.636664 -189.604025 
L 105.502317 -178.167152 
L 106.36797 -139.281785 
L 107.233624 -194.45108 
L 108.099277 -157.580782 
L 108.96493 -227.509088 
L 109.830583 -188.242492 
L 110.696236 -200.550746 
L 111.561889 -185.955118 
L 112.427542 -230.722305 
L 113.293195 -221.790652 
L 114.158849 -263.998158 
L 115.024502 -241.124413 
L 115.890155 -169.780112 
L 117.621461 -116.734808 
L 118.487114 -150.827581 
L 119.352767 -129.097523 
L 120.21842 -114.937585 
L 121.084073 -135.669186 
L 121.949727 -111.833291 
L 122.81538 -98.817041 
L 123.681033 -152.279882 
L 124.546686 -120.60156 
L 125.412339 -99.089348 
L 126.277992 -150.664197 
L 127.143645 -106.713929 
L 128.009298 -101.431183 
L 128.874952 -98.490273 
L 129.740605 -93.861063 
L 130.606258 -155.40233 
L 131.471911 -142.440541 
L 132.337564 -103.990864 
L 133.203217 -163.952753 
L 134.06887 -155.946943 
L 134.934523 -112.922517 
L 135.800176 -214.002686 
L 136.66583 -136.551913 
L 137.531483 -104.426555 
L 138.397136 -193.252932 
L 139.262789 -110.471759 
L 140.128442 -96.093976 
L 140.994095 -83.6768 
L 141.859748 -123.10678 
L 142.725401 -97.401047 
L 143.591055 -162.101069 
L 144.456708 -98.708118 
L 145.322361 -76.270064 
L 146.188014 -86.127559 
L 147.053667 -115.100969 
L 147.91932 -155.620175 
L 148.784973 -82.642036 
L 149.650626 -193.797545 
L 150.516279 -243.08502 
L 151.381933 -178.003768 
L 152.247586 -114.610817 
L 153.113239 -80.354661 
L 153.978892 -170.379187 
L 154.844545 -243.52071 
L 155.710198 -192.76278 
L 156.575851 -141.514699 
L 157.441504 -263.998158 
L 158.307158 -107.639771 
L 159.172811 -161.883224 
L 160.038464 -136.286414 
L 160.904117 -129.968904 
L 161.76977 -124.250467 
L 162.635423 -96.148437 
L 163.501076 -86.236481 
L 164.366729 -131.711665 
L 165.232382 -101.921335 
L 166.098036 -102.448248 
L 166.963689 -81.117119 
L 167.829342 -92.172763 
L 168.694995 -69.081172 
L 169.560648 -57.045225 
L 170.426301 -105.025629 
L 171.291954 -99.416115 
L 172.157607 -171.250567 
L 173.023261 -136.014108 
L 173.888914 -169.889035 
L 174.466016 -160.303847 
L 175.331669 -117.170499 
L 176.197322 -107.803155 
L 177.062975 -111.179756 
L 177.928628 -149.9562 
L 178.794281 -136.231953 
L 179.659934 -145.871603 
L 180.525588 -189.985254 
L 181.391241 -149.792816 
L 182.256894 -123.760316 
L 183.9882 -100.233035 
L 184.853853 -82.260806 
L 185.719506 -156.927246 
L 186.585159 -134.489191 
L 187.450813 -92.118301 
L 188.316466 -136.722104 
L 189.182119 -137.266717 
L 190.047772 -113.957282 
L 190.913425 -86.073097 
L 191.779078 -117.116037 
L 192.644731 -127.73599 
L 193.510384 -94.078908 
L 194.376037 -84.112491 
L 195.241691 -98.871502 
L 196.107344 -160.358308 
L 196.972997 -101.757951 
L 197.83865 -195.213539 
L 198.704303 -135.197188 
L 199.569956 -144.673454 
L 200.435609 -153.768491 
L 201.301262 -111.397601 
L 202.166916 -92.118301 
L 203.032569 -80.245738 
L 203.898222 -82.042961 
L 204.763875 -88.306011 
L 205.629528 -82.642036 
L 206.495181 -80.73589 
L 207.360834 -87.107862 
L 208.226487 -77.413751 
L 209.09214 -77.35929 
L 209.957794 -75.943296 
L 210.823447 -98.163505 
L 211.6891 -114.011743 
L 212.554753 -92.717376 
L 213.420406 -142.495002 
L 214.286059 -192.000322 
L 215.151712 -130.513517 
L 216.017365 -106.169316 
L 216.883019 -91.192459 
L 217.748672 -88.905085 
L 218.614325 -186.172963 
L 219.479978 -152.515881 
L 220.345631 -97.618893 
L 221.211284 -159.541388 
L 222.076937 -144.237764 
L 222.94259 -105.842549 
L 223.808243 -98.544735 
L 224.673897 -106.3327 
L 225.53955 -137.920253 
L 226.405203 -156.001404 
L 227.270856 -151.20881 
L 228.136509 -140.098705 
L 229.002162 -155.674636 
L 229.867815 -126.973532 
L 230.733468 -117.878495 
L 231.599122 -109.600378 
L 232.464775 -148.649129 
L 233.330428 -119.566796 
L 234.196081 -125.230771 
L 235.061734 -111.125294 
L 235.927387 -85.909713 
L 236.79304 -112.650211 
L 237.658693 -75.398683 
L 238.524346 -131.003668 
L 239.39 -95.222595 
L 240.255653 -86.508788 
L 241.121306 -146.470677 
L 241.986959 -128.226142 
L 242.852612 -136.831027 
L 243.718265 -91.682611 
L 244.583918 -152.733726 
L 245.449571 -158.397701 
L 246.315225 -118.259724 
L 247.180878 -87.761398 
L 248.046531 -145.109144 
L 248.912184 -148.866974 
L 249.777837 -155.184485 
L 250.64349 -113.630514 
L 251.509143 -182.033904 
L 252.374796 -180.454527 
L 253.24045 -186.989883 
L 254.106103 -113.848359 
L 254.971756 -126.592303 
L 255.837409 -175.661933 
L 256.703062 -206.214721 
L 257.568715 -121.037251 
L 258.434368 -201.040897 
L 259.300021 -110.689604 
L 260.165674 -172.176409 
L 261.031328 -90.157695 
L 261.896981 -191.020019 
L 262.762634 -206.868256 
L 263.628287 -105.515781 
L 264.49394 -94.205985 
L 265.359593 -72.457773 
L 266.225246 -164.279521 
L 267.090899 -161.556456 
L 267.956553 -81.770655 
L 268.822206 -106.005932 
L 269.687859 -135.905185 
L 270.553512 -122.725551 
L 271.419165 -81.607271 
L 272.284818 -73.111308 
L 273.150471 -63.035968 
L 274.016124 -70.333782 
L 274.881777 -96.965357 
L 275.747431 -68.15533 
L 276.613084 -153.278339 
L 277.478737 -134.271346 
L 278.34439 -98.544735 
L 279.210043 -102.411487 
L 279.787145 -100.88657 
L 280.652798 -136.667643 
L 281.518451 -139.826398 
L 282.384104 -136.722104 
L 283.249758 -108.674536 
L 284.115411 -87.87032 
L 284.981064 -98.925964 
L 285.846717 -81.227403 
L 286.71237 -73.383615 
L 287.578023 -65.867956 
L 288.443676 -56.82738 
L 289.309329 -78.285132 
L 290.174983 -56.446151 
L 291.040636 -68.97225 
L 291.906289 -109.491455 
L 292.771942 -136.395337 
L 293.637595 -118.695415 
L 294.503248 -82.151884 
L 295.368901 -61.293207 
L 296.234554 -149.357126 
L 297.100207 -73.982689 
L 297.965861 -100.396419 
L 298.831514 -168.037351 
L 299.697167 -140.207628 
L 300.56282 -166.131205 
L 301.428473 -161.71984 
L 302.294126 -164.606289 
L 303.159779 -113.140362 
L 304.025432 -94.786905 
L 304.891086 -75.725451 
L 305.756739 -119.784641 
L 306.622392 -161.556456 
L 307.488045 -120.928328 
L 308.353698 -97.128741 
L 309.219351 -87.87032 
L 310.085004 -101.649029 
L 310.950657 -101.158877 
L 311.816311 -129.043061 
L 312.681964 -167.274893 
L 313.547617 -171.740719 
L 314.41327 -146.416216 
L 315.278923 -140.643318 
L 316.144576 -163.952753 
L 317.010229 -174.572707 
L 317.875882 -175.716394 
L 318.741535 -123.052319 
L 319.607189 -98.708118 
L 320.472842 -167.928428 
L 321.338495 -177.350233 
L 322.204148 -185.62835 
L 323.069801 -199.624904 
L 323.935454 -164.279521 
L 324.801107 -122.017554 
L 325.66676 -110.635143 
L 326.532414 -99.525038 
L 327.398067 -87.706936 
L 328.26372 -86.127559 
L 338.651557 -169.997958 
L 339.51721 -163.734908 
L 340.382863 -149.302664 
L 341.248517 -180.073298 
L 342.979823 -113.521592 
L 343.845476 -138.138098 
L 344.711129 -133.781194 
L 345.576782 -108.83792 
L 346.442435 -104.154248 
L 347.308088 -78.829745 
L 348.173741 -93.370911 
L 349.039395 -81.443887 
L 349.905048 -136.722104 
L 350.770701 -107.530849 
L 351.636354 -66.140262 
L 352.502007 -134.035347 
L 353.36766 -111.669907 
L 354.233313 -85.3651 
L 355.098966 -99.252731 
L 355.96462 -97.128741 
L 356.830273 -84.602642 
L 357.695926 -74.962993 
L 358.561579 -66.412569 
L 359.427232 -120.873867 
L 360.292885 -99.525038 
L 361.158538 -72.938394 
L 362.024191 -66.194724 
L 362.889844 -86.835556 
L 363.755498 -126.374458 
L 364.621151 -132.800891 
L 365.486804 -81.879577 
L 366.352457 -56.990764 
L 367.21811 -65.595649 
L 368.083763 -108.456691 
L 368.949416 -125.448616 
L 369.815069 -144.836838 
L 370.680723 -64.669807 
L 371.546376 -118.91326 
L 372.412029 -68.373175 
L 373.277682 -67.991946 
L 374.143335 -53.341857 
L 375.008988 -97.401047 
L 375.874641 -126.973532 
L 376.740294 -80.136816 
L 377.605947 -100.88657 
L 378.471601 -77.468212 
L 379.337254 -69.898092 
L 380.202907 -97.019818 
L 381.06856 -72.784541 
L 381.934213 -119.076644 
L 382.799866 -73.928228 
L 383.665519 -74.03715 
L 384.531172 -61.674436 
L 385.108275 -88.578317 
L 385.973928 -90.321079 
L 386.839581 -80.899274 
L 387.705234 -70.570689 
L 388.570887 -111.669907 
L 389.43654 -116.516963 
L 390.302193 -88.523856 
L 391.167846 -155.511252 
L 392.033499 -118.695415 
L 392.899153 -90.484462 
L 393.764806 -140.262089 
L 394.630459 -104.6444 
L 395.496112 -86.61771 
L 396.361765 -93.044143 
L 397.227418 -85.092794 
L 398.093071 -169.889035 
L 398.958724 -188.460338 
L 399.824378 -116.734808 
L 400.690031 -70.007014 
L 401.555684 -130.404594 
L 402.421337 -89.830927 
L 403.28699 -85.800791 
L 404.152643 -81.334964 
L 405.018296 -77.141444 
L 405.883949 -73.002386 
L 406.749602 -71.586392 
L 407.615256 -136.177492 
L 408.480909 -116.353579 
L 409.346562 -84.330336 
L 410.212215 -75.071915 
L 411.077868 -84.058029 
L 411.943521 -91.301382 
L 412.809174 -133.672272 
L 413.674827 -102.738255 
L 414.540481 -82.369729 
L 415.406134 -108.674536 
L 416.271787 -88.578317 
L 417.13744 -90.647846 
L 418.003093 -76.923599 
L 418.868746 -80.572506 
L 419.734399 -81.607271 
L 420.600052 -93.861063 
L 421.465705 -144.07438 
L 422.331359 -114.501895 
L 423.197012 -128.607371 
L 424.062665 -125.339693 
L 424.928318 -93.044143 
L 425.793971 -172.448716 
L 426.659624 -167.383815 
L 427.525277 -123.433548 
L 428.39093 -91.083537 
L 429.256584 -110.798527 
L 430.122237 -170.9238 
L 430.98789 -152.951571 
L 431.853543 -143.25746 
L 432.719196 -110.744065 
L 433.584849 -100.287496 
L 434.450502 -107.367465 
L 435.316155 -105.08009 
L 436.181808 -139.227324 
L 437.047462 -116.516963 
L 437.913115 -156.437094 
L 438.778768 -159.486927 
L 439.644421 -199.717488 
L 440.510074 -133.726733 
L 441.375727 -141.405776 
L 442.24138 -119.185567 
L 443.107033 -109.654839 
L 443.972687 -108.783459 
L 444.83834 -125.993229 
L 445.703993 -124.141545 
L 446.569646 -119.076644 
L 447.435299 -156.237403 
L 448.300952 -100.88657 
L 449.166605 -87.380168 
L 450.032258 -144.618993 
L 450.897911 -157.362936 
L 451.763565 -132.201817 
L 452.629218 -96.311821 
L 453.494871 -87.216785 
L 454.360524 -86.672172 
L 455.226177 -83.24111 
L 456.09183 -85.855252 
L 456.957483 -76.270064 
L 457.823136 -104.753323 
L 458.68879 -83.24111 
L 459.554443 -75.779912 
L 460.420096 -91.737072 
L 461.285749 -85.691868 
L 462.151402 -70.442705 
L 463.017055 -78.394054 
L 463.882708 -51.054483 
L 464.748361 -62.055665 
L 465.614015 -85.038333 
L 466.479668 -98.544735 
L 467.345321 -67.175027 
L 468.210974 -128.117219 
L 469.076627 -83.023265 
L 469.94228 -83.567878 
L 470.807933 -67.066104 
L 471.673586 -142.603925 
L 472.539239 -77.686057 
L 473.404893 -58.733526 
L 474.270546 -56.772919 
L 475.136199 -70.878395 
L 476.001852 -67.665179 
L 476.867505 -82.151884 
L 477.733158 -63.580581 
L 478.598811 -59.005832 
L 479.464464 -49.910795 
L 480.330118 -81.661732 
L 481.195771 -132.855352 
L 482.061424 -157.853088 
L 482.927077 -121.963093 
L 483.79273 -80.191277 
L 484.658383 -77.239475 
L 485.524036 -76.814677 
L 486.389689 -93.370911 
L 487.255342 -127.027993 
L 488.986649 -78.23067 
L 489.852302 -100.769479 
L 490.717955 -78.884206 
L 491.583608 -62.436894 
L 492.449261 -121.80107 
L 493.314914 -92.445069 
L 494.180567 -94.242292 
L 495.046221 -141.787005 
L 495.911874 -94.732444 
L 496.777527 -132.637507 
L 497.64318 -128.280603 
L 498.508833 -136.177492 
L 499.374486 -179.692069 
L 500.240139 -165.91336 
L 501.105792 -104.20871 
L 501.971445 -117.497266 
L 502.837099 -128.062758 
L 503.702752 -116.40804 
L 504.568405 -94.024447 
L 505.434058 -81.443887 
L 506.299711 -80.3002 
L 507.165364 -56.609535 
L 508.031017 -111.669907 
L 508.89667 -101.049954 
L 509.762324 -76.760215 
L 511.49363 -60.748594 
L 512.359283 -161.447534 
L 513.224936 -93.588756 
L 514.090589 -109.654839 
L 514.956242 -152.352497 
L 515.821895 -117.878495 
L 516.687548 -95.385979 
L 517.553202 -74.799609 
L 518.418855 -79.646664 
L 519.284508 -76.923599 
L 521.015814 -122.67109 
L 521.881467 -92.499531 
L 522.74712 -80.463584 
L 523.612773 -122.017554 
L 524.478427 -97.94566 
L 525.34408 -77.79498 
L 526.209733 -77.35929 
L 527.075386 -135.251649 
L 527.941039 -117.279421 
L 528.806692 -111.77883 
L 529.672345 -96.039515 
L 530.537998 -92.227224 
L 531.403651 -121.255096 
L 532.269305 -98.000122 
L 533.134958 -76.10668 
L 534.000611 -104.971168 
L 534.866264 -83.24111 
L 535.731917 -149.9562 
L 536.59757 -159.323543 
L 537.463223 -149.52051 
L 538.328876 -112.432366 
L 539.19453 -161.229689 
L 540.060183 -137.539024 
L 540.925836 -133.563349 
L 541.791489 -183.558821 
L 542.657142 -141.460237 
L 543.522795 -111.833291 
L 544.388448 -111.452062 
L 545.254101 -100.178574 
L 546.119754 -99.19827 
L 546.985408 -143.693151 
L 547.851061 -161.501995 
L 548.716714 -125.938767 
L 549.582367 -105.461319 
L 550.44802 -152.624804 
L 551.313673 -121.41848 
L 552.179326 -117.551728 
L 553.044979 -98.163505 
L 553.910633 -94.514599 
L 554.776286 -109.110226 
L 555.641939 -99.307193 
L 556.507592 -90.865692 
L 557.373245 -97.836738 
L 558.238898 -162.700144 
L 559.104551 -140.207628 
L 559.970204 -96.25736 
L 560.835858 -94.732444 
L 561.701511 -92.499531 
L 562.567164 -138.464866 
L 563.432817 -95.385979 
L 564.29847 -161.175227 
L 565.164123 -147.287596 
L 566.029776 -113.140362 
L 566.895429 -126.102151 
L 567.761082 -109.164688 
L 568.626736 -89.722004 
L 569.492389 -184.702508 
L 570.358042 -126.646764 
L 571.223695 -165.91336 
L 572.089348 -149.738355 
L 573.820654 -151.535578 
L 574.686307 -112.105598 
L 575.551961 -83.785723 
L 576.417614 -115.808966 
L 576.417614 -297.001705 
L 576.417614 -297.001705 
L 575.551961 -297.001705 
L 574.686307 -297.001705 
L 573.820654 -297.001705 
L 572.089348 -297.001705 
L 571.223695 -297.001705 
L 570.358042 -297.001705 
L 569.492389 -297.001705 
L 568.626736 -297.001705 
L 567.761082 -297.001705 
L 566.895429 -297.001705 
L 566.029776 -297.001705 
L 565.164123 -297.001705 
L 564.29847 -297.001705 
L 563.432817 -297.001705 
L 562.567164 -297.001705 
L 561.701511 -297.001705 
L 560.835858 -297.001705 
L 559.970204 -297.001705 
L 559.104551 -297.001705 
L 558.238898 -290.738655 
L 557.373245 -290.684194 
L 556.507592 -292.426956 
L 555.641939 -297.001705 
L 554.776286 -297.001705 
L 553.910633 -297.001705 
L 553.044979 -297.001705 
L 552.179326 -297.001705 
L 551.313673 -297.001705 
L 550.44802 -297.001705 
L 549.582367 -295.313404 
L 548.716714 -297.001705 
L 547.851061 -297.001705 
L 546.985408 -297.001705 
L 546.119754 -297.001705 
L 545.254101 -297.001705 
L 544.388448 -297.001705 
L 543.522795 -297.001705 
L 542.657142 -297.001705 
L 541.791489 -297.001705 
L 540.925836 -297.001705 
L 540.060183 -297.001705 
L 539.19453 -297.001705 
L 538.328876 -297.001705 
L 537.463223 -297.001705 
L 536.59757 -218.958664 
L 535.731917 -297.001705 
L 534.866264 -238.419502 
L 534.000611 -297.001705 
L 533.134958 -297.001705 
L 532.269305 -297.001705 
L 531.403651 -297.001705 
L 530.537998 -297.001705 
L 529.672345 -297.001705 
L 528.806692 -297.001705 
L 527.941039 -297.001705 
L 527.075386 -140.371011 
L 526.209733 -297.001705 
L 525.34408 -296.348169 
L 524.478427 -294.659869 
L 523.612773 -297.001705 
L 522.74712 -289.976197 
L 521.881467 -297.001705 
L 521.015814 -297.001705 
L 519.284508 -297.001705 
L 518.418855 -297.001705 
L 517.553202 -294.659869 
L 516.687548 -297.001705 
L 515.821895 -256.119424 
L 514.956242 -297.001705 
L 514.090589 -297.001705 
L 513.224936 -290.738655 
L 512.359283 -297.001705 
L 511.49363 -250.056066 
L 509.762324 -294.659869 
L 508.89667 -296.184785 
L 508.031017 -297.001705 
L 507.165364 -289.921736 
L 506.299711 -294.659869 
L 505.434058 -294.659869 
L 504.568405 -282.732844 
L 503.702752 -290.738655 
L 502.837099 -294.659869 
L 501.971445 -297.001705 
L 501.105792 -297.001705 
L 500.240139 -297.001705 
L 499.374486 -297.001705 
L 498.508833 -297.001705 
L 497.64318 -297.001705 
L 496.777527 -294.877714 
L 495.911874 -297.001705 
L 495.046221 -297.001705 
L 494.180567 -292.045726 
L 493.314914 -279.737473 
L 492.449261 -144.673454 
L 491.583608 -279.683012 
L 490.717955 -256.754805 
L 489.852302 -284.257761 
L 488.986649 -294.659869 
L 487.255342 -297.001705 
L 486.389689 -277.613482 
L 485.524036 -276.796563 
L 484.658383 -288.233436 
L 483.79273 -260.893864 
L 482.927077 -247.895768 
L 482.061424 -297.001705 
L 481.195771 -297.001705 
L 480.330118 -294.659869 
L 479.464464 -267.701526 
L 478.598811 -255.175428 
L 477.733158 -294.659869 
L 476.867505 -297.001705 
L 476.001852 -289.050355 
L 475.136199 -241.342258 
L 474.270546 -230.94015 
L 473.404893 -243.466249 
L 472.539239 -275.870721 
L 471.673586 -297.001705 
L 470.807933 -293.298336 
L 469.94228 -279.029476 
L 469.076627 -281.69808 
L 468.210974 -297.001705 
L 467.345321 -268.191678 
L 466.479668 -275.271647 
L 465.614015 -297.001705 
L 464.748361 -202.533137 
L 463.882708 -290.466349 
L 463.017055 -281.69808 
L 462.151402 -282.13377 
L 461.285749 -297.001705 
L 460.420096 -297.001705 
L 459.554443 -297.001705 
L 458.68879 -287.307593 
L 457.823136 -294.659869 
L 456.957483 -294.659869 
L 456.09183 -292.481417 
L 455.226177 -284.475606 
L 454.360524 -297.001705 
L 453.494871 -297.001705 
L 452.629218 -297.001705 
L 451.763565 -297.001705 
L 450.897911 -297.001705 
L 450.032258 -297.001705 
L 449.166605 -296.729398 
L 448.300952 -297.001705 
L 447.435299 -227.56355 
L 446.569646 -297.001705 
L 445.703993 -297.001705 
L 444.83834 -297.001705 
L 443.972687 -297.001705 
L 443.107033 -297.001705 
L 442.24138 -297.001705 
L 441.375727 -271.059973 
L 440.510074 -297.001705 
L 439.644421 -297.001705 
L 438.778768 -297.001705 
L 437.913115 -297.001705 
L 437.047462 -297.001705 
L 436.181808 -297.001705 
L 435.316155 -297.001705 
L 434.450502 -297.001705 
L 433.584849 -280.118702 
L 432.719196 -297.001705 
L 431.853543 -272.20366 
L 430.98789 -297.001705 
L 430.122237 -297.001705 
L 429.256584 -297.001705 
L 428.39093 -297.001705 
L 427.525277 -297.001705 
L 426.659624 -297.001705 
L 425.793971 -297.001705 
L 424.928318 -294.659869 
L 424.062665 -297.001705 
L 423.197012 -297.001705 
L 422.331359 -297.001705 
L 421.465705 -297.001705 
L 420.600052 -297.001705 
L 419.734399 -297.001705 
L 418.868746 -289.050355 
L 418.003093 -273.910114 
L 417.13744 -284.802374 
L 416.271787 -275.979644 
L 415.406134 -297.001705 
L 414.540481 -297.001705 
L 413.674827 -297.001705 
L 412.809174 -297.001705 
L 411.943521 -297.001705 
L 411.077868 -279.301783 
L 410.212215 -278.593786 
L 409.346562 -279.301783 
L 408.480909 -294.659869 
L 407.615256 -297.001705 
L 406.749602 -258.987719 
L 405.883949 -294.659869 
L 405.018296 -272.49412 
L 404.152643 -283.222996 
L 403.28699 -295.258943 
L 402.421337 -297.001705 
L 401.555684 -297.001705 
L 400.690031 -297.001705 
L 399.824378 -297.001705 
L 398.958724 -297.001705 
L 398.093071 -297.001705 
L 397.227418 -259.804638 
L 396.361765 -276.959947 
L 395.496112 -267.483681 
L 394.630459 -297.001705 
L 393.764806 -297.001705 
L 392.899153 -276.415334 
L 392.033499 -297.001705 
L 391.167846 -297.001705 
L 390.302193 -291.119884 
L 389.43654 -297.001705 
L 388.570887 -244.852289 
L 387.705234 -274.400266 
L 386.839581 -274.400266 
L 385.973928 -288.070052 
L 385.108275 -294.659869 
L 384.531172 -273.365501 
L 383.665519 -297.001705 
L 382.799866 -294.659869 
L 381.934213 -297.001705 
L 381.06856 -267.102452 
L 380.202907 -290.738655 
L 379.337254 -290.738655 
L 378.471601 -297.001705 
L 377.605947 -297.001705 
L 376.740294 -297.001705 
L 375.874641 -297.001705 
L 375.008988 -297.001705 
L 374.143335 -267.483681 
L 373.277682 -281.371312 
L 372.412029 -297.001705 
L 371.546376 -297.001705 
L 370.680723 -257.626186 
L 369.815069 -297.001705 
L 368.949416 -297.001705 
L 368.083763 -297.001705 
L 367.21811 -114.937585 
L 366.352457 -297.001705 
L 365.486804 -297.001705 
L 364.621151 -297.001705 
L 363.755498 -297.001705 
L 362.889844 -297.001705 
L 362.024191 -225.602943 
L 361.158538 -294.659869 
L 360.292885 -297.001705 
L 359.427232 -297.001705 
L 358.561579 -266.285532 
L 357.695926 -297.001705 
L 356.830273 -297.001705 
L 355.96462 -294.986637 
L 355.098966 -297.001705 
L 354.233313 -297.001705 
L 353.36766 -297.001705 
L 352.502007 -297.001705 
L 351.636354 -297.001705 
L 350.770701 -297.001705 
L 349.905048 -297.001705 
L 349.039395 -297.001705 
L 348.173741 -297.001705 
L 347.308088 -297.001705 
L 346.442435 -297.001705 
L 345.576782 -297.001705 
L 344.711129 -297.001705 
L 343.845476 -297.001705 
L 342.979823 -297.001705 
L 341.248517 -297.001705 
L 340.382863 -297.001705 
L 339.51721 -297.001705 
L 338.651557 -297.001705 
L 328.26372 -297.001705 
L 327.398067 -297.001705 
L 326.532414 -297.001705 
L 325.66676 -297.001705 
L 324.801107 -297.001705 
L 323.935454 -297.001705 
L 323.069801 -297.001705 
L 322.204148 -297.001705 
L 321.338495 -297.001705 
L 320.472842 -297.001705 
L 319.607189 -297.001705 
L 318.741535 -297.001705 
L 317.875882 -297.001705 
L 317.010229 -297.001705 
L 316.144576 -297.001705 
L 315.278923 -297.001705 
L 314.41327 -297.001705 
L 313.547617 -297.001705 
L 312.681964 -297.001705 
L 311.816311 -297.001705 
L 310.950657 -285.292525 
L 310.085004 -294.659869 
L 309.219351 -297.001705 
L 308.353698 -297.001705 
L 307.488045 -297.001705 
L 306.622392 -297.001705 
L 305.756739 -297.001705 
L 304.891086 -286.381751 
L 304.025432 -297.001705 
L 303.159779 -297.001705 
L 302.294126 -297.001705 
L 301.428473 -297.001705 
L 300.56282 -297.001705 
L 299.697167 -297.001705 
L 298.831514 -297.001705 
L 297.965861 -297.001705 
L 297.100207 -297.001705 
L 296.234554 -297.001705 
L 295.368901 -294.659869 
L 294.503248 -290.738655 
L 293.637595 -297.001705 
L 292.771942 -297.001705 
L 291.906289 -297.001705 
L 291.040636 -292.590339 
L 290.174983 -277.286715 
L 289.309329 -297.001705 
L 288.443676 -292.372494 
L 287.578023 -287.362055 
L 286.71237 -286.000522 
L 285.846717 -297.001705 
L 284.981064 -297.001705 
L 284.115411 -297.001705 
L 283.249758 -297.001705 
L 282.384104 -297.001705 
L 281.518451 -297.001705 
L 280.652798 -255.282989 
L 279.787145 -292.753723 
L 279.210043 -297.001705 
L 278.34439 -290.738655 
L 277.478737 -297.001705 
L 276.613084 -297.001705 
L 275.747431 -297.001705 
L 274.881777 -286.272829 
L 274.016124 -297.001705 
L 273.150471 -289.976197 
L 272.284818 -297.001705 
L 271.419165 -297.001705 
L 270.553512 -297.001705 
L 269.687859 -297.001705 
L 268.822206 -297.001705 
L 267.956553 -297.001705 
L 267.090899 -297.001705 
L 266.225246 -297.001705 
L 265.359593 -297.001705 
L 264.49394 -297.001705 
L 263.628287 -297.001705 
L 262.762634 -297.001705 
L 261.896981 -297.001705 
L 261.031328 -297.001705 
L 260.165674 -297.001705 
L 259.300021 -297.001705 
L 258.434368 -297.001705 
L 257.568715 -297.001705 
L 256.703062 -297.001705 
L 255.837409 -280.88116 
L 254.971756 -297.001705 
L 254.106103 -297.001705 
L 253.24045 -297.001705 
L 252.374796 -297.001705 
L 251.509143 -297.001705 
L 250.64349 -297.001705 
L 249.777837 -297.001705 
L 248.912184 -297.001705 
L 248.046531 -297.001705 
L 247.180878 -297.001705 
L 246.315225 -297.001705 
L 245.449571 -297.001705 
L 244.583918 -297.001705 
L 243.718265 -297.001705 
L 242.852612 -254.594507 
L 241.986959 -297.001705 
L 241.121306 -297.001705 
L 240.255653 -288.287897 
L 239.39 -290.629733 
L 238.524346 -297.001705 
L 237.658693 -297.001705 
L 236.79304 -297.001705 
L 235.927387 -296.674937 
L 235.061734 -297.001705 
L 234.196081 -297.001705 
L 233.330428 -297.001705 
L 232.464775 -297.001705 
L 231.599122 -297.001705 
L 230.733468 -297.001705 
L 229.867815 -297.001705 
L 229.002162 -297.001705 
L 228.136509 -297.001705 
L 227.270856 -297.001705 
L 226.405203 -297.001705 
L 225.53955 -297.001705 
L 224.673897 -297.001705 
L 223.808243 -297.001705 
L 222.94259 -297.001705 
L 222.076937 -297.001705 
L 221.211284 -297.001705 
L 220.345631 -241.251489 
L 219.479978 -297.001705 
L 218.614325 -297.001705 
L 217.748672 -294.659869 
L 216.883019 -297.001705 
L 216.017365 -297.001705 
L 215.151712 -297.001705 
L 214.286059 -297.001705 
L 213.420406 -297.001705 
L 212.554753 -295.422327 
L 211.6891 -297.001705 
L 210.823447 -297.001705 
L 209.957794 -294.659869 
L 209.09214 -293.788488 
L 208.226487 -278.811631 
L 207.360834 -297.001705 
L 206.495181 -286.762981 
L 205.629528 -277.450099 
L 204.763875 -291.33773 
L 203.898222 -281.69808 
L 203.032569 -297.001705 
L 202.166916 -297.001705 
L 201.301262 -297.001705 
L 200.435609 -297.001705 
L 199.569956 -297.001705 
L 198.704303 -297.001705 
L 197.83865 -297.001705 
L 196.972997 -297.001705 
L 196.107344 -297.001705 
L 195.241691 -297.001705 
L 194.376037 -289.758352 
L 193.510384 -297.001705 
L 192.644731 -297.001705 
L 191.779078 -204.580882 
L 190.913425 -297.001705 
L 190.047772 -144.94576 
L 189.182119 -234.153367 
L 188.316466 -297.001705 
L 187.450813 -280.336547 
L 186.585159 -297.001705 
L 185.719506 -297.001705 
L 184.853853 -278.811631 
L 183.9882 -297.001705 
L 182.256894 -297.001705 
L 181.391241 -297.001705 
L 180.525588 -297.001705 
L 179.659934 -297.001705 
L 178.794281 -297.001705 
L 177.928628 -231.430302 
L 177.062975 -268.572907 
L 176.197322 -290.738655 
L 175.331669 -294.659869 
L 174.466016 -297.001705 
L 173.888914 -294.659869 
L 173.023261 -297.001705 
L 172.157607 -297.001705 
L 171.291954 -275.979644 
L 170.426301 -297.001705 
L 169.560648 -273.801192 
L 168.694995 -267.320297 
L 167.829342 -294.224178 
L 166.963689 -294.986637 
L 166.098036 -297.001705 
L 165.232382 -297.001705 
L 164.366729 -297.001705 
L 163.501076 -297.001705 
L 162.635423 -297.001705 
L 161.76977 -297.001705 
L 160.904117 -297.001705 
L 160.038464 -297.001705 
L 159.172811 -297.001705 
L 158.307158 -297.001705 
L 157.441504 -297.001705 
L 156.575851 -297.001705 
L 155.710198 -297.001705 
L 154.844545 -297.001705 
L 153.978892 -297.001705 
L 153.113239 -297.001705 
L 152.247586 -259.877253 
L 151.381933 -271.62274 
L 150.516279 -297.001705 
L 149.650626 -297.001705 
L 148.784973 -297.001705 
L 147.91932 -297.001705 
L 147.053667 -297.001705 
L 146.188014 -297.001705 
L 145.322361 -297.001705 
L 144.456708 -297.001705 
L 143.591055 -297.001705 
L 142.725401 -297.001705 
L 141.859748 -297.001705 
L 140.994095 -297.001705 
L 140.128442 -297.001705 
L 139.262789 -297.001705 
L 138.397136 -297.001705 
L 137.531483 -297.001705 
L 136.66583 -297.001705 
L 135.800176 -297.001705 
L 134.934523 -297.001705 
L 134.06887 -297.001705 
L 133.203217 -297.001705 
L 132.337564 -297.001705 
L 131.471911 -297.001705 
L 130.606258 -297.001705 
L 129.740605 -281.044544 
L 128.874952 -297.001705 
L 128.009298 -293.679565 
L 127.143645 -293.516181 
L 126.277992 -297.001705 
L 125.412339 -297.001705 
L 124.546686 -251.548305 
L 123.681033 -297.001705 
L 122.81538 -297.001705 
L 121.949727 -297.001705 
L 121.084073 -297.001705 
L 120.21842 -297.001705 
L 119.352767 -297.001705 
L 118.487114 -297.001705 
L 117.621461 -297.001705 
L 115.890155 -297.001705 
L 115.024502 -297.001705 
L 114.158849 -297.001705 
L 113.293195 -285.782677 
L 112.427542 -297.001705 
L 111.561889 -297.001705 
L 110.696236 -297.001705 
L 109.830583 -297.001705 
L 108.96493 -297.001705 
L 108.099277 -297.001705 
L 107.233624 -297.001705 
L 106.36797 -297.001705 
L 105.502317 -297.001705 
L 104.636664 -297.001705 
L 103.771011 -297.001705 
L 102.905358 -297.001705 
L 102.039705 -297.001705 
L 101.174052 -297.001705 
L 100.308399 -297.001705 
L 99.442746 -284.039916 
L 98.577092 -297.001705 
L 97.711439 -297.001705 
L 96.845786 -297.001705 
L 95.980133 -297.001705 
L 95.11448 -288.01559 
L 94.248827 -297.001705 
L 93.383174 -297.001705 
L 92.517521 -297.001705 
L 91.651867 -297.001705 
L 90.786214 -297.001705 
L 89.920561 -297.001705 
L 89.054908 -297.001705 
L 87.323602 -297.001705 
L 86.457949 -297.001705 
L 85.592296 -297.001705 
L 84.726642 -297.001705 
L 83.860989 -294.659869 
L 82.995336 -297.001705 
L 82.129683 -297.001705 
L 81.26403 -297.001705 
L 80.398377 -297.001705 
L 79.532724 -295.585711 
L 78.667071 -297.001705 
L 77.801418 -286.817442 
L 76.935764 -290.738655 
L 76.070111 -297.001705 
L 75.204458 -241.886871 
L 74.338805 -290.738655 
L 73.473152 -297.001705 
L 72.607499 -290.738655 
L 71.741846 -297.001705 
L 70.876193 -297.001705 
L 70.010539 -297.001705 
L 69.144886 -297.001705 
z
" id="md3096027d9" style="stroke:#808080;stroke-opacity:0.2;"/>
    </defs>
    <g clip-path="url(#p816c2f2d7c)">
     <use style="fill:#808080;fill-opacity:0.2;stroke:#808080;stroke-opacity:0.2;" x="0" xlink:href="#md3096027d9" y="352.55625"/>
    </g>
   </g>
   <g id="line2d_11">
    <path clip-path="url(#p816c2f2d7c)" d="M 69.144886 143.745541 
L 70.010539 175.6054 
L 70.876193 160.737466 
L 71.741846 164.658679 
L 72.607499 185.09982 
L 73.473152 169.705426 
L 74.338805 192.034558 
L 75.204458 178.564464 
L 76.070111 148.338444 
L 76.935764 172.283261 
L 77.801418 160.810081 
L 78.667071 128.859453 
L 79.532724 160.701158 
L 80.398377 135.866806 
L 81.26403 115.534588 
L 82.129683 149.609207 
L 82.995336 160.846388 
L 83.860989 156.725483 
L 84.726642 140.07848 
L 85.592296 139.660943 
L 86.457949 90.682083 
L 87.323602 102.609107 
L 89.054908 131.455441 
L 89.920561 138.063412 
L 90.786214 106.621089 
L 91.651867 169.342351 
L 92.517521 157.179328 
L 93.383174 175.296786 
L 94.248827 184.246593 
L 95.11448 191.907482 
L 95.980133 107.78293 
L 96.845786 127.025922 
L 97.711439 122.57825 
L 98.577092 155.146106 
L 99.442746 79.281518 
L 100.308399 122.632711 
L 101.174052 123.050247 
L 102.039705 98.706047 
L 102.905358 141.022476 
L 103.771011 161.990076 
L 104.636664 108.236774 
L 105.502317 115.843202 
L 106.36797 136.937878 
L 107.233624 100.249117 
L 108.099277 125.246853 
L 108.96493 87.795634 
L 109.830583 103.29895 
L 110.696236 98.379279 
L 111.561889 106.403244 
L 112.427542 87.759326 
L 113.293195 91.843924 
L 114.158849 72.637239 
L 115.024502 82.131659 
L 115.890155 114.717669 
L 117.621461 153.584882 
L 118.487114 136.611111 
L 119.352767 153.802727 
L 120.21842 162.262382 
L 121.084073 158.450091 
L 121.949727 165.402984 
L 122.81538 174.988172 
L 123.681033 147.721215 
L 125.412339 175.641708 
L 126.277992 137.664029 
L 127.143645 172.446645 
L 128.009298 176.168167 
L 128.874952 176.767241 
L 129.740605 186.969658 
L 130.606258 134.596043 
L 131.471911 143.781848 
L 132.337564 172.101723 
L 133.203217 130.275446 
L 134.06887 128.151456 
L 134.934523 162.698072 
L 135.800176 92.370383 
L 136.66583 158.10517 
L 137.531483 164.313758 
L 138.397136 102.409416 
L 139.262789 163.478684 
L 140.994095 187.695808 
L 141.859748 156.5621 
L 142.725401 179.853381 
L 143.591055 128.024379 
L 144.456708 173.735562 
L 145.322361 189.093648 
L 146.188014 181.142299 
L 147.053667 161.536231 
L 147.91932 131.509902 
L 148.784973 165.185138 
L 149.650626 107.583239 
L 150.516279 81.006125 
L 151.381933 132.490206 
L 152.247586 153.475959 
L 153.113239 145.833224 
L 153.978892 119.619186 
L 154.844545 80.425205 
L 155.710198 98.306664 
L 156.575851 136.211728 
L 157.441504 72.637239 
L 158.307158 163.097455 
L 159.172811 121.779484 
L 160.038464 144.526153 
L 160.904117 153.076576 
L 161.76977 153.839035 
L 162.635423 175.514631 
L 163.501076 180.434302 
L 164.366729 152.477502 
L 165.232382 160.029469 
L 166.098036 180.434302 
L 166.963689 188.113345 
L 167.829342 183.55675 
L 168.694995 208.863099 
L 169.560648 213.383387 
L 170.426301 169.088198 
L 171.291954 179.998611 
L 172.157607 126.662847 
L 173.023261 149.336901 
L 173.888914 129.222528 
L 174.466016 133.888046 
L 175.331669 163.98699 
L 176.197322 164.803909 
L 177.062975 180.633993 
L 177.928628 166.764516 
L 178.794281 149.028287 
L 179.659934 143.16462 
L 180.525588 110.14292 
L 182.256894 153.112884 
L 183.9882 175.732476 
L 184.853853 188.512728 
L 185.719506 136.284343 
L 186.585159 146.178145 
L 187.450813 187.786577 
L 188.316466 144.743998 
L 189.182119 176.658318 
L 190.047772 223.803649 
L 190.913425 176.440473 
L 191.779078 200.476059 
L 192.644731 152.531963 
L 193.510384 180.23461 
L 194.376037 184.155824 
L 195.241691 162.716226 
L 196.107344 129.785295 
L 196.972997 167.835588 
L 197.83865 102.681722 
L 198.704303 150.244589 
L 200.435609 133.343433 
L 201.301262 165.203292 
L 202.166916 180.525071 
L 203.032569 185.898585 
L 203.898222 195.973926 
L 204.763875 187.387194 
L 205.629528 192.942247 
L 206.495181 191.253946 
L 207.360834 187.07858 
L 208.226487 198.079762 
L 209.09214 195.102545 
L 209.957794 195.229621 
L 210.823447 166.946054 
L 211.6891 165.2396 
L 212.554753 179.998611 
L 213.420406 147.957214 
L 214.286059 107.619546 
L 215.151712 149.463977 
L 216.017365 168.071587 
L 216.883019 178.709694 
L 217.748672 184.173978 
L 218.614325 117.985347 
L 219.479978 139.207099 
L 220.345631 177.765698 
L 221.211284 127.243767 
L 222.076937 143.291697 
L 222.94259 171.066959 
L 223.808243 174.534328 
L 224.673897 155.835949 
L 225.53955 148.047983 
L 226.405203 131.600671 
L 227.270856 135.44927 
L 228.136509 145.107073 
L 229.002162 135.376655 
L 229.867815 156.834406 
L 230.733468 165.511906 
L 231.599122 167.581435 
L 232.464775 139.025562 
L 233.330428 157.742094 
L 234.196081 152.749809 
L 235.061734 163.260839 
L 235.927387 180.960761 
L 236.79304 166.49221 
L 237.658693 188.421959 
L 238.524346 155.781488 
L 239.39 180.23461 
L 240.255653 187.605039 
L 241.121306 145.179688 
L 241.986959 158.123323 
L 242.852612 151.351969 
L 243.718265 182.703523 
L 244.583918 138.589871 
L 245.449571 127.425305 
L 246.315225 161.372847 
L 247.180878 181.505374 
L 248.046531 142.601853 
L 248.912184 141.875703 
L 249.777837 132.526513 
L 250.64349 167.036822 
L 251.509143 112.847831 
L 252.374796 113.029369 
L 253.24045 105.767862 
L 254.106103 154.982722 
L 254.971756 155.291336 
L 255.837409 112.12168 
L 256.703062 96.618364 
L 257.568715 158.704244 
L 258.434368 97.054055 
L 259.300021 163.587607 
L 260.165674 120.545028 
L 261.031328 176.367858 
L 261.896981 103.498641 
L 262.762634 95.619907 
L 263.628287 159.012858 
L 264.49394 186.715505 
L 265.359593 191.907482 
L 266.225246 111.613375 
L 267.090899 121.434562 
L 267.956553 166.129134 
L 268.822206 163.569453 
L 269.687859 138.317565 
L 270.553512 152.640886 
L 271.419165 184.446284 
L 272.284818 190.927179 
L 273.150471 199.495756 
L 274.016124 192.924093 
L 274.881777 185.281357 
L 275.747431 184.373669 
L 276.613084 126.172695 
L 278.34439 182.558292 
L 279.210043 173.445102 
L 279.787145 178.437388 
L 280.652798 151.787659 
L 281.518451 150.317204 
L 282.384104 153.475959 
L 283.249758 162.44392 
L 284.115411 182.231525 
L 284.981064 177.075855 
L 285.846717 195.102545 
L 286.71237 196.228078 
L 287.578023 199.931446 
L 288.443676 204.252043 
L 289.309329 174.134945 
L 290.174983 198.624375 
L 291.040636 189.347801 
L 291.906289 166.710055 
L 292.771942 138.880331 
L 293.637595 149.355054 
L 294.503248 187.659501 
L 295.368901 199.677294 
L 296.234554 133.180049 
L 297.100207 191.41733 
L 297.965861 163.859913 
L 298.831514 119.855185 
L 299.697167 129.585603 
L 300.56282 123.903474 
L 301.428473 122.487481 
L 302.294126 131.183135 
L 303.159779 166.183595 
L 304.025432 180.742916 
L 304.891086 197.335458 
L 305.756739 162.098998 
L 306.622392 132.018208 
L 307.488045 160.973465 
L 308.353698 178.074312 
L 309.219351 182.830599 
L 310.085004 172.047262 
L 310.950657 174.516174 
L 311.816311 155.146106 
L 312.681964 123.504092 
L 313.547617 116.333354 
L 314.41327 136.701879 
L 315.278923 134.124045 
L 316.144576 118.493652 
L 317.010229 107.946314 
L 317.875882 109.344154 
L 318.741535 150.916278 
L 319.607189 162.153459 
L 320.472842 117.477041 
L 321.338495 114.009672 
L 322.204148 113.22906 
L 323.069801 103.135566 
L 323.935454 121.416409 
L 324.801107 151.805813 
L 325.66676 163.042994 
L 326.532414 171.538956 
L 327.398067 176.948779 
L 328.26372 170.631268 
L 338.651557 118.312115 
L 339.51721 129.04099 
L 340.382863 133.942507 
L 341.248517 106.639243 
L 342.979823 150.988893 
L 343.845476 128.296686 
L 344.711129 138.589871 
L 345.576782 161.77223 
L 346.442435 170.050348 
L 347.308088 184.228439 
L 348.173741 158.704244 
L 349.039395 177.2937 
L 349.905048 135.231424 
L 351.636354 188.022576 
L 352.502007 158.922089 
L 353.36766 167.980818 
L 354.233313 182.213371 
L 355.098966 162.44392 
L 355.96462 178.945693 
L 356.830273 187.804731 
L 357.695926 195.138852 
L 358.561579 210.914475 
L 359.427232 157.251943 
L 360.292885 173.082027 
L 361.158538 199.985908 
L 362.024191 219.483052 
L 362.889844 178.237696 
L 363.755498 155.854103 
L 364.621151 148.519981 
L 365.486804 188.33119 
L 366.352457 200.512367 
L 367.21811 263.959779 
L 368.083763 159.630086 
L 368.949416 140.532324 
L 369.815069 130.184678 
L 370.680723 207.556028 
L 371.546376 149.881514 
L 372.412029 195.229621 
L 373.277682 204.542503 
L 374.143335 207.919104 
L 375.008988 177.620468 
L 375.874641 143.073851 
L 376.740294 185.789663 
L 377.605947 173.082027 
L 378.471601 188.603497 
L 379.337254 200.312676 
L 380.202907 181.995526 
L 381.06856 204.088659 
L 381.934213 162.643611 
L 382.799866 194.049626 
L 383.665519 188.966572 
L 384.531172 208.518178 
L 385.108275 183.193674 
L 385.973928 186.297968 
L 386.839581 194.576086 
L 387.705234 208.463717 
L 388.570887 169.977733 
L 389.43654 164.604218 
L 390.302193 186.624736 
L 391.167846 135.558192 
L 392.033499 165.493752 
L 392.899153 189.892414 
L 393.764806 147.721215 
L 394.630459 168.924814 
L 395.496112 197.29915 
L 396.361765 186.806274 
L 397.227418 198.860374 
L 398.093071 118.983804 
L 398.958724 111.39553 
L 399.824378 159.64824 
L 400.690031 191.235793 
L 401.555684 142.129856 
L 402.421337 181.868449 
L 403.28699 189.184417 
L 404.152643 200.258214 
L 405.018296 202.999433 
L 405.883949 195.265929 
L 406.749602 211.332012 
L 407.615256 143.890771 
L 408.480909 123.340708 
L 409.346562 194.939161 
L 410.212215 195.992079 
L 411.077868 189.565646 
L 411.943521 176.839856 
L 412.809174 145.942146 
L 413.674827 172.846028 
L 414.540481 187.550578 
L 415.406134 159.739009 
L 416.271787 188.694265 
L 417.13744 189.910568 
L 418.003093 202.400359 
L 418.868746 192.833324 
L 419.734399 189.965029 
L 420.600052 178.437388 
L 421.465705 143.545849 
L 422.331359 166.201749 
L 423.197012 155.200567 
L 424.062665 157.814709 
L 424.928318 182.73983 
L 425.793971 123.340708 
L 426.659624 126.009311 
L 427.525277 152.9495 
L 428.39093 176.059244 
L 429.256584 163.950682 
L 430.122237 117.313657 
L 430.98789 133.724662 
L 431.853543 131.600671 
L 433.584849 174.479867 
L 434.450502 167.036822 
L 435.316155 172.246953 
L 436.181808 130.602214 
L 437.047462 151.896582 
L 437.913115 126.172695 
L 438.778768 120.145645 
L 439.644421 112.049065 
L 440.510074 135.667115 
L 441.375727 133.361587 
L 442.24138 146.087377 
L 443.107033 157.052251 
L 443.972687 164.912832 
L 444.83834 147.013219 
L 445.703993 152.096273 
L 446.569646 158.613475 
L 447.435299 168.598046 
L 448.300952 172.718951 
L 449.166605 182.394909 
L 450.032258 145.597225 
L 450.897911 131.891132 
L 451.763565 151.823967 
L 452.629218 176.168167 
L 453.494871 186.388737 
L 454.360524 186.479506 
L 455.226177 191.816713 
L 456.09183 187.859192 
L 456.957483 194.049626 
L 457.823136 173.644793 
L 458.68879 179.036462 
L 459.554443 174.479867 
L 460.420096 175.659861 
L 461.285749 183.70198 
L 462.151402 199.931446 
L 463.017055 196.554846 
L 463.882708 209.335097 
L 464.748361 216.215375 
L 465.614015 167.254668 
L 466.479668 184.192131 
L 467.345321 210.69663 
L 468.210974 153.058423 
L 469.076627 194.285625 
L 469.94228 195.719773 
L 470.807933 199.350526 
L 471.673586 144.743998 
L 472.539239 200.730212 
L 473.404893 222.514731 
L 474.270546 229.540239 
L 475.136199 186.588428 
L 476.001852 197.752995 
L 476.867505 185.862278 
L 477.733158 197.68038 
L 478.598811 217.522446 
L 479.464464 219.646436 
L 480.330118 180.361687 
L 481.195771 150.063051 
L 482.061424 128.224071 
L 482.927077 163.006686 
L 483.79273 204.469888 
L 484.658383 202.545589 
L 485.524036 199.459449 
L 486.389689 181.959218 
L 487.255342 156.870714 
L 489.852302 185.68074 
L 490.717955 204.488042 
L 491.583608 206.866185 
L 492.449261 221.116891 
L 493.314914 184.373669 
L 494.180567 179.635536 
L 495.046221 140.260018 
L 495.911874 181.868449 
L 496.777527 154.183956 
L 497.64318 152.477502 
L 498.508833 141.18586 
L 499.374486 116.605661 
L 500.240139 126.227157 
L 501.105792 170.377115 
L 501.971445 160.737466 
L 502.837099 155.200567 
L 503.702752 168.234971 
L 504.568405 188.276729 
L 505.434058 189.946875 
L 506.299711 183.320751 
L 507.165364 207.047723 
L 508.031017 158.014401 
L 508.89667 168.253125 
L 509.762324 189.384108 
L 511.49363 224.130417 
L 512.359283 127.443459 
L 513.224936 180.978915 
L 514.090589 159.611932 
L 514.956242 134.251121 
L 515.821895 156.144563 
L 517.553202 191.598868 
L 518.418855 186.134584 
L 519.284508 190.800102 
L 521.015814 147.376294 
L 521.881467 177.820159 
L 522.74712 192.070866 
L 523.612773 157.760248 
L 524.478427 177.765698 
L 525.34408 192.08902 
L 526.209733 191.70779 
L 527.075386 214.817535 
L 527.941039 159.757162 
L 528.806692 165.221446 
L 529.672345 174.534328 
L 530.537998 179.217999 
L 531.403651 159.085473 
L 532.269305 176.71278 
L 533.134958 191.163178 
L 534.000611 174.20756 
L 534.866264 185.39028 
L 535.731917 131.164981 
L 536.59757 166.982361 
L 537.463223 137.990797 
L 538.328876 163.823606 
L 539.19453 129.85791 
L 540.060183 144.253846 
L 540.925836 148.810441 
L 541.791489 111.813066 
L 542.657142 143.672926 
L 543.522795 161.027926 
L 544.388448 161.48177 
L 545.254101 169.923271 
L 546.119754 173.699255 
L 546.985408 131.292057 
L 547.851061 124.375472 
L 548.716714 154.183956 
L 549.582367 169.886964 
L 550.44802 136.32065 
L 551.313673 157.052251 
L 552.179326 160.664851 
L 553.044979 175.6054 
L 553.910633 175.950322 
L 554.776286 166.837131 
L 555.641939 176.71278 
L 556.507592 183.012137 
L 557.373245 181.886603 
L 558.238898 123.867167 
L 559.104551 139.479406 
L 559.970204 175.333094 
L 560.835858 178.963847 
L 561.701511 179.272461 
L 562.567164 148.102445 
L 563.432817 176.71278 
L 564.29847 127.370844 
L 565.164123 138.263103 
L 566.029776 167.145745 
L 566.895429 153.348883 
L 567.761082 164.822063 
L 568.626736 183.55675 
L 569.492389 118.094269 
L 570.358042 153.603036 
L 571.223695 128.859453 
L 572.089348 133.960661 
L 573.820654 131.056058 
L 574.686307 161.971922 
L 575.551961 185.117973 
L 576.417614 155.799641 
L 576.417614 155.799641 
" style="fill:none;stroke:#808080;stroke-linecap:round;stroke-width:1.5;"/>
   </g>
   <g id="patch_3">
    <path d="M 43.78125 315 
L 43.78125 43.2 
" style="fill:none;stroke:#cccccc;stroke-linecap:square;stroke-linejoin:miter;stroke-width:0.8;"/>
   </g>
   <g id="patch_4">
    <path d="M 601.78125 315 
L 601.78125 43.2 
" style="fill:none;stroke:#cccccc;stroke-linecap:square;stroke-linejoin:miter;stroke-width:0.8;"/>
   </g>
   <g id="patch_5">
    <path d="M 43.78125 315 
L 601.78125 315 
" style="fill:none;stroke:#cccccc;stroke-linecap:square;stroke-linejoin:miter;stroke-width:0.8;"/>
   </g>
   <g id="patch_6">
    <path d="M 43.78125 43.2 
L 601.78125 43.2 
" style="fill:none;stroke:#cccccc;stroke-linecap:square;stroke-linejoin:miter;stroke-width:0.8;"/>
   </g>
   <g id="text_13">
    <!-- Producto soil_moisture_am (2017-2021) -->
    <g style="fill:#262626;" transform="translate(202.993125 37.2)scale(0.12 -0.12)">
     <defs>
      <path d="M 1259 4147 
L 1259 2394 
L 2053 2394 
Q 2494 2394 2734 2622 
Q 2975 2850 2975 3272 
Q 2975 3691 2734 3919 
Q 2494 4147 2053 4147 
L 1259 4147 
z
M 628 4666 
L 2053 4666 
Q 2838 4666 3239 4311 
Q 3641 3956 3641 3272 
Q 3641 2581 3239 2228 
Q 2838 1875 2053 1875 
L 1259 1875 
L 1259 0 
L 628 0 
L 628 4666 
z
" id="DejaVuSans-50" transform="scale(0.015625)"/>
      <path d="M 3122 3366 
L 3122 2828 
Q 2878 2963 2633 3030 
Q 2388 3097 2138 3097 
Q 1578 3097 1268 2742 
Q 959 2388 959 1747 
Q 959 1106 1268 751 
Q 1578 397 2138 397 
Q 2388 397 2633 464 
Q 2878 531 3122 666 
L 3122 134 
Q 2881 22 2623 -34 
Q 2366 -91 2075 -91 
Q 1284 -91 818 406 
Q 353 903 353 1747 
Q 353 2603 823 3093 
Q 1294 3584 2113 3584 
Q 2378 3584 2631 3529 
Q 2884 3475 3122 3366 
z
" id="DejaVuSans-63" transform="scale(0.015625)"/>
      <path d="M 1172 4494 
L 1172 3500 
L 2356 3500 
L 2356 3053 
L 1172 3053 
L 1172 1153 
Q 1172 725 1289 603 
Q 1406 481 1766 481 
L 2356 481 
L 2356 0 
L 1766 0 
Q 1100 0 847 248 
Q 594 497 594 1153 
L 594 3053 
L 172 3053 
L 172 3500 
L 594 3500 
L 594 4494 
L 1172 4494 
z
" id="DejaVuSans-74" transform="scale(0.015625)"/>
      <path d="M 3263 -1063 
L 3263 -1509 
L -63 -1509 
L -63 -1063 
L 3263 -1063 
z
" id="DejaVuSans-5f" transform="scale(0.015625)"/>
      <path d="M 3328 2828 
Q 3544 3216 3844 3400 
Q 4144 3584 4550 3584 
Q 5097 3584 5394 3201 
Q 5691 2819 5691 2113 
L 5691 0 
L 5113 0 
L 5113 2094 
Q 5113 2597 4934 2840 
Q 4756 3084 4391 3084 
Q 3944 3084 3684 2787 
Q 3425 2491 3425 1978 
L 3425 0 
L 2847 0 
L 2847 2094 
Q 2847 2600 2669 2842 
Q 2491 3084 2119 3084 
Q 1678 3084 1418 2786 
Q 1159 2488 1159 1978 
L 1159 0 
L 581 0 
L 581 3500 
L 1159 3500 
L 1159 2956 
Q 1356 3278 1631 3431 
Q 1906 3584 2284 3584 
Q 2666 3584 2933 3390 
Q 3200 3197 3328 2828 
z
" id="DejaVuSans-6d" transform="scale(0.015625)"/>
      <path d="M 1984 4856 
Q 1566 4138 1362 3434 
Q 1159 2731 1159 2009 
Q 1159 1288 1364 580 
Q 1569 -128 1984 -844 
L 1484 -844 
Q 1016 -109 783 600 
Q 550 1309 550 2009 
Q 550 2706 781 3412 
Q 1013 4119 1484 4856 
L 1984 4856 
z
" id="DejaVuSans-28" transform="scale(0.015625)"/>
      <path d="M 513 4856 
L 1013 4856 
Q 1481 4119 1714 3412 
Q 1947 2706 1947 2009 
Q 1947 1309 1714 600 
Q 1481 -109 1013 -844 
L 513 -844 
Q 928 -128 1133 580 
Q 1338 1288 1338 2009 
Q 1338 2731 1133 3434 
Q 928 4138 513 4856 
z
" id="DejaVuSans-29" transform="scale(0.015625)"/>
     </defs>
     <use xlink:href="#DejaVuSans-50"/>
     <use x="58.552734" xlink:href="#DejaVuSans-72"/>
     <use x="97.416016" xlink:href="#DejaVuSans-6f"/>
     <use x="158.597656" xlink:href="#DejaVuSans-64"/>
     <use x="222.074219" xlink:href="#DejaVuSans-75"/>
     <use x="285.453125" xlink:href="#DejaVuSans-63"/>
     <use x="340.433594" xlink:href="#DejaVuSans-74"/>
     <use x="379.642578" xlink:href="#DejaVuSans-6f"/>
     <use x="440.824219" xlink:href="#DejaVuSans-20"/>
     <use x="472.611328" xlink:href="#DejaVuSans-73"/>
     <use x="524.710938" xlink:href="#DejaVuSans-6f"/>
     <use x="585.892578" xlink:href="#DejaVuSans-69"/>
     <use x="613.675781" xlink:href="#DejaVuSans-6c"/>
     <use x="641.458984" xlink:href="#DejaVuSans-5f"/>
     <use x="691.458984" xlink:href="#DejaVuSans-6d"/>
     <use x="788.871094" xlink:href="#DejaVuSans-6f"/>
     <use x="850.052734" xlink:href="#DejaVuSans-69"/>
     <use x="877.835938" xlink:href="#DejaVuSans-73"/>
     <use x="929.935547" xlink:href="#DejaVuSans-74"/>
     <use x="969.144531" xlink:href="#DejaVuSans-75"/>
     <use x="1032.523438" xlink:href="#DejaVuSans-72"/>
     <use x="1071.386719" xlink:href="#DejaVuSans-65"/>
     <use x="1132.910156" xlink:href="#DejaVuSans-5f"/>
     <use x="1182.910156" xlink:href="#DejaVuSans-61"/>
     <use x="1244.189453" xlink:href="#DejaVuSans-6d"/>
     <use x="1341.601562" xlink:href="#DejaVuSans-20"/>
     <use x="1373.388672" xlink:href="#DejaVuSans-28"/>
     <use x="1412.402344" xlink:href="#DejaVuSans-32"/>
     <use x="1476.025391" xlink:href="#DejaVuSans-30"/>
     <use x="1539.648438" xlink:href="#DejaVuSans-31"/>
     <use x="1603.271484" xlink:href="#DejaVuSans-37"/>
     <use x="1666.894531" xlink:href="#DejaVuSans-2d"/>
     <use x="1702.978516" xlink:href="#DejaVuSans-32"/>
     <use x="1766.601562" xlink:href="#DejaVuSans-30"/>
     <use x="1830.224609" xlink:href="#DejaVuSans-32"/>
     <use x="1893.847656" xlink:href="#DejaVuSans-31"/>
     <use x="1957.470703" xlink:href="#DejaVuSans-29"/>
    </g>
   </g>
   <g id="legend_1">
    <g id="patch_7">
     <path d="M 588.58125 58.8 
L 593.38125 58.8 
Q 595.78125 58.8 595.78125 56.4 
L 595.78125 51.6 
Q 595.78125 49.2 593.38125 49.2 
L 588.58125 49.2 
Q 586.18125 49.2 586.18125 51.6 
L 586.18125 56.4 
Q 586.18125 58.8 588.58125 58.8 
z
" style="fill:#ffffff;opacity:0.8;stroke:#cccccc;stroke-linejoin:miter;"/>
    </g>
   </g>
  </g>
  <g id="text_14">
   <!-- Humedad superficial del suelo (SMAP) para Itapúa (Paraguay) -->
   <g style="fill:#262626;" transform="translate(91.300125 18.71775)scale(0.144 -0.144)">
    <defs>
     <path d="M 628 4666 
L 1259 4666 
L 1259 2753 
L 3553 2753 
L 3553 4666 
L 4184 4666 
L 4184 0 
L 3553 0 
L 3553 2222 
L 1259 2222 
L 1259 0 
L 628 0 
L 628 4666 
z
" id="DejaVuSans-48" transform="scale(0.015625)"/>
     <path d="M 1159 525 
L 1159 -1331 
L 581 -1331 
L 581 3500 
L 1159 3500 
L 1159 2969 
Q 1341 3281 1617 3432 
Q 1894 3584 2278 3584 
Q 2916 3584 3314 3078 
Q 3713 2572 3713 1747 
Q 3713 922 3314 415 
Q 2916 -91 2278 -91 
Q 1894 -91 1617 61 
Q 1341 213 1159 525 
z
M 3116 1747 
Q 3116 2381 2855 2742 
Q 2594 3103 2138 3103 
Q 1681 3103 1420 2742 
Q 1159 2381 1159 1747 
Q 1159 1113 1420 752 
Q 1681 391 2138 391 
Q 2594 391 2855 752 
Q 3116 1113 3116 1747 
z
" id="DejaVuSans-70" transform="scale(0.015625)"/>
     <path d="M 2375 4863 
L 2375 4384 
L 1825 4384 
Q 1516 4384 1395 4259 
Q 1275 4134 1275 3809 
L 1275 3500 
L 2222 3500 
L 2222 3053 
L 1275 3053 
L 1275 0 
L 697 0 
L 697 3053 
L 147 3053 
L 147 3500 
L 697 3500 
L 697 3744 
Q 697 4328 969 4595 
Q 1241 4863 1831 4863 
L 2375 4863 
z
" id="DejaVuSans-66" transform="scale(0.015625)"/>
     <path d="M 3425 4513 
L 3425 3897 
Q 3066 4069 2747 4153 
Q 2428 4238 2131 4238 
Q 1616 4238 1336 4038 
Q 1056 3838 1056 3469 
Q 1056 3159 1242 3001 
Q 1428 2844 1947 2747 
L 2328 2669 
Q 3034 2534 3370 2195 
Q 3706 1856 3706 1288 
Q 3706 609 3251 259 
Q 2797 -91 1919 -91 
Q 1588 -91 1214 -16 
Q 841 59 441 206 
L 441 856 
Q 825 641 1194 531 
Q 1563 422 1919 422 
Q 2459 422 2753 634 
Q 3047 847 3047 1241 
Q 3047 1584 2836 1778 
Q 2625 1972 2144 2069 
L 1759 2144 
Q 1053 2284 737 2584 
Q 422 2884 422 3419 
Q 422 4038 858 4394 
Q 1294 4750 2059 4750 
Q 2388 4750 2728 4690 
Q 3069 4631 3425 4513 
z
" id="DejaVuSans-53" transform="scale(0.015625)"/>
     <path d="M 628 4666 
L 1259 4666 
L 1259 0 
L 628 0 
L 628 4666 
z
" id="DejaVuSans-49" transform="scale(0.015625)"/>
     <path d="M 544 1381 
L 544 3500 
L 1119 3500 
L 1119 1403 
Q 1119 906 1312 657 
Q 1506 409 1894 409 
Q 2359 409 2629 706 
Q 2900 1003 2900 1516 
L 2900 3500 
L 3475 3500 
L 3475 0 
L 2900 0 
L 2900 538 
Q 2691 219 2414 64 
Q 2138 -91 1772 -91 
Q 1169 -91 856 284 
Q 544 659 544 1381 
z
M 1991 3584 
L 1991 3584 
z
M 2418 5119 
L 3040 5119 
L 2022 3944 
L 1543 3944 
L 2418 5119 
z
" id="DejaVuSans-fa" transform="scale(0.015625)"/>
    </defs>
    <use xlink:href="#DejaVuSans-48"/>
    <use x="75.195312" xlink:href="#DejaVuSans-75"/>
    <use x="138.574219" xlink:href="#DejaVuSans-6d"/>
    <use x="235.986328" xlink:href="#DejaVuSans-65"/>
    <use x="297.509766" xlink:href="#DejaVuSans-64"/>
    <use x="360.986328" xlink:href="#DejaVuSans-61"/>
    <use x="422.265625" xlink:href="#DejaVuSans-64"/>
    <use x="485.742188" xlink:href="#DejaVuSans-20"/>
    <use x="517.529297" xlink:href="#DejaVuSans-73"/>
    <use x="569.628906" xlink:href="#DejaVuSans-75"/>
    <use x="633.007812" xlink:href="#DejaVuSans-70"/>
    <use x="696.484375" xlink:href="#DejaVuSans-65"/>
    <use x="758.007812" xlink:href="#DejaVuSans-72"/>
    <use x="799.121094" xlink:href="#DejaVuSans-66"/>
    <use x="834.326172" xlink:href="#DejaVuSans-69"/>
    <use x="862.109375" xlink:href="#DejaVuSans-63"/>
    <use x="917.089844" xlink:href="#DejaVuSans-69"/>
    <use x="944.873047" xlink:href="#DejaVuSans-61"/>
    <use x="1006.152344" xlink:href="#DejaVuSans-6c"/>
    <use x="1033.935547" xlink:href="#DejaVuSans-20"/>
    <use x="1065.722656" xlink:href="#DejaVuSans-64"/>
    <use x="1129.199219" xlink:href="#DejaVuSans-65"/>
    <use x="1190.722656" xlink:href="#DejaVuSans-6c"/>
    <use x="1218.505859" xlink:href="#DejaVuSans-20"/>
    <use x="1250.292969" xlink:href="#DejaVuSans-73"/>
    <use x="1302.392578" xlink:href="#DejaVuSans-75"/>
    <use x="1365.771484" xlink:href="#DejaVuSans-65"/>
    <use x="1427.294922" xlink:href="#DejaVuSans-6c"/>
    <use x="1455.078125" xlink:href="#DejaVuSans-6f"/>
    <use x="1516.259766" xlink:href="#DejaVuSans-20"/>
    <use x="1548.046875" xlink:href="#DejaVuSans-28"/>
    <use x="1587.060547" xlink:href="#DejaVuSans-53"/>
    <use x="1650.537109" xlink:href="#DejaVuSans-4d"/>
    <use x="1736.816406" xlink:href="#DejaVuSans-41"/>
    <use x="1805.224609" xlink:href="#DejaVuSans-50"/>
    <use x="1865.527344" xlink:href="#DejaVuSans-29"/>
    <use x="1904.541016" xlink:href="#DejaVuSans-20"/>
    <use x="1936.328125" xlink:href="#DejaVuSans-70"/>
    <use x="1999.804688" xlink:href="#DejaVuSans-61"/>
    <use x="2061.083984" xlink:href="#DejaVuSans-72"/>
    <use x="2102.197266" xlink:href="#DejaVuSans-61"/>
    <use x="2163.476562" xlink:href="#DejaVuSans-20"/>
    <use x="2195.263672" xlink:href="#DejaVuSans-49"/>
    <use x="2224.755859" xlink:href="#DejaVuSans-74"/>
    <use x="2263.964844" xlink:href="#DejaVuSans-61"/>
    <use x="2325.244141" xlink:href="#DejaVuSans-70"/>
    <use x="2388.720703" xlink:href="#DejaVuSans-fa"/>
    <use x="2452.099609" xlink:href="#DejaVuSans-61"/>
    <use x="2513.378906" xlink:href="#DejaVuSans-20"/>
    <use x="2545.166016" xlink:href="#DejaVuSans-28"/>
    <use x="2584.179688" xlink:href="#DejaVuSans-50"/>
    <use x="2639.982422" xlink:href="#DejaVuSans-61"/>
    <use x="2701.261719" xlink:href="#DejaVuSans-72"/>
    <use x="2742.375" xlink:href="#DejaVuSans-61"/>
    <use x="2803.654297" xlink:href="#DejaVuSans-67"/>
    <use x="2867.130859" xlink:href="#DejaVuSans-75"/>
    <use x="2930.509766" xlink:href="#DejaVuSans-61"/>
    <use x="2991.789062" xlink:href="#DejaVuSans-79"/>
    <use x="3050.96875" xlink:href="#DejaVuSans-29"/>
   </g>
  </g>
 </g>
 <defs>
  <clipPath id="p816c2f2d7c">
   <rect height="271.8" width="558" x="43.78125" y="43.2"/>
  </clipPath>
 </defs>
</svg>
