<?xml version="1.0" encoding="utf-8" standalone="no"?>
<!DOCTYPE svg PUBLIC "-//W3C//DTD SVG 1.1//EN"
  "http://www.w3.org/Graphics/SVG/1.1/DTD/svg11.dtd">
<svg height="352.55625pt" version="1.1" viewBox="0 0 608.98125 352.55625" width="608.98125pt" xmlns="http://www.w3.org/2000/svg" xmlns:xlink="http://www.w3.org/1999/xlink">
 <metadata>
  <rdf:RDF xmlns:cc="http://creativecommons.org/ns#" xmlns:dc="http://purl.org/dc/elements/1.1/" xmlns:rdf="http://www.w3.org/1999/02/22-rdf-syntax-ns#">
   <cc:Work>
    <dc:type rdf:resource="http://purl.org/dc/dcmitype/StillImage"/>
    <dc:date>2021-12-07T17:18:22.987222</dc:date>
    <dc:format>image/svg+xml</dc:format>
    <dc:creator>
     <cc:Agent>
      <dc:title>Matplotlib v3.4.3, https://matplotlib.org/</dc:title>
     </cc:Agent>
    </dc:creator>
   </cc:Work>
  </rdf:RDF>
 </metadata>
 <defs>
  <style type="text/css">*{stroke-linecap:butt;stroke-linejoin:round;}</style>
 </defs>
 <g id="figure_1">
  <g id="patch_1">
   <path d="M 0 352.55625 
L 608.98125 352.55625 
L 608.98125 0 
L 0 0 
z
" style="fill:#ffffff;"/>
  </g>
  <g id="axes_1">
   <g id="patch_2">
    <path d="M 43.78125 315 
L 601.78125 315 
L 601.78125 43.2 
L 43.78125 43.2 
z
" style="fill:#ffffff;"/>
   </g>
   <g id="matplotlib.axis_1">
    <g id="xtick_1">
     <g id="line2d_1">
      <path clip-path="url(#p556fe02020)" d="M 112.716093 315 
L 112.716093 43.2 
" style="fill:none;stroke:#cccccc;stroke-linecap:round;stroke-width:0.8;"/>
     </g>
     <g id="text_1">
      <!-- Jun-2017 -->
      <g style="fill:#262626;" transform="translate(90.374687 329.598437)scale(0.1 -0.1)">
       <defs>
        <path d="M 628 4666 
L 1259 4666 
L 1259 325 
Q 1259 -519 939 -900 
Q 619 -1281 -91 -1281 
L -331 -1281 
L -331 -750 
L -134 -750 
Q 284 -750 456 -515 
Q 628 -281 628 325 
L 628 4666 
z
" id="DejaVuSans-4a" transform="scale(0.015625)"/>
        <path d="M 544 1381 
L 544 3500 
L 1119 3500 
L 1119 1403 
Q 1119 906 1312 657 
Q 1506 409 1894 409 
Q 2359 409 2629 706 
Q 2900 1003 2900 1516 
L 2900 3500 
L 3475 3500 
L 3475 0 
L 2900 0 
L 2900 538 
Q 2691 219 2414 64 
Q 2138 -91 1772 -91 
Q 1169 -91 856 284 
Q 544 659 544 1381 
z
M 1991 3584 
L 1991 3584 
z
" id="DejaVuSans-75" transform="scale(0.015625)"/>
        <path d="M 3513 2113 
L 3513 0 
L 2938 0 
L 2938 2094 
Q 2938 2591 2744 2837 
Q 2550 3084 2163 3084 
Q 1697 3084 1428 2787 
Q 1159 2491 1159 1978 
L 1159 0 
L 581 0 
L 581 3500 
L 1159 3500 
L 1159 2956 
Q 1366 3272 1645 3428 
Q 1925 3584 2291 3584 
Q 2894 3584 3203 3211 
Q 3513 2838 3513 2113 
z
" id="DejaVuSans-6e" transform="scale(0.015625)"/>
        <path d="M 313 2009 
L 1997 2009 
L 1997 1497 
L 313 1497 
L 313 2009 
z
" id="DejaVuSans-2d" transform="scale(0.015625)"/>
        <path d="M 1228 531 
L 3431 531 
L 3431 0 
L 469 0 
L 469 531 
Q 828 903 1448 1529 
Q 2069 2156 2228 2338 
Q 2531 2678 2651 2914 
Q 2772 3150 2772 3378 
Q 2772 3750 2511 3984 
Q 2250 4219 1831 4219 
Q 1534 4219 1204 4116 
Q 875 4013 500 3803 
L 500 4441 
Q 881 4594 1212 4672 
Q 1544 4750 1819 4750 
Q 2544 4750 2975 4387 
Q 3406 4025 3406 3419 
Q 3406 3131 3298 2873 
Q 3191 2616 2906 2266 
Q 2828 2175 2409 1742 
Q 1991 1309 1228 531 
z
" id="DejaVuSans-32" transform="scale(0.015625)"/>
        <path d="M 2034 4250 
Q 1547 4250 1301 3770 
Q 1056 3291 1056 2328 
Q 1056 1369 1301 889 
Q 1547 409 2034 409 
Q 2525 409 2770 889 
Q 3016 1369 3016 2328 
Q 3016 3291 2770 3770 
Q 2525 4250 2034 4250 
z
M 2034 4750 
Q 2819 4750 3233 4129 
Q 3647 3509 3647 2328 
Q 3647 1150 3233 529 
Q 2819 -91 2034 -91 
Q 1250 -91 836 529 
Q 422 1150 422 2328 
Q 422 3509 836 4129 
Q 1250 4750 2034 4750 
z
" id="DejaVuSans-30" transform="scale(0.015625)"/>
        <path d="M 794 531 
L 1825 531 
L 1825 4091 
L 703 3866 
L 703 4441 
L 1819 4666 
L 2450 4666 
L 2450 531 
L 3481 531 
L 3481 0 
L 794 0 
L 794 531 
z
" id="DejaVuSans-31" transform="scale(0.015625)"/>
        <path d="M 525 4666 
L 3525 4666 
L 3525 4397 
L 1831 0 
L 1172 0 
L 2766 4134 
L 525 4134 
L 525 4666 
z
" id="DejaVuSans-37" transform="scale(0.015625)"/>
       </defs>
       <use xlink:href="#DejaVuSans-4a"/>
       <use x="29.492188" xlink:href="#DejaVuSans-75"/>
       <use x="92.871094" xlink:href="#DejaVuSans-6e"/>
       <use x="156.25" xlink:href="#DejaVuSans-2d"/>
       <use x="192.333984" xlink:href="#DejaVuSans-32"/>
       <use x="255.957031" xlink:href="#DejaVuSans-30"/>
       <use x="319.580078" xlink:href="#DejaVuSans-31"/>
       <use x="383.203125" xlink:href="#DejaVuSans-37"/>
      </g>
     </g>
    </g>
    <g id="xtick_2">
     <g id="line2d_2">
      <path clip-path="url(#p556fe02020)" d="M 218.037223 315 
L 218.037223 43.2 
" style="fill:none;stroke:#cccccc;stroke-linecap:round;stroke-width:0.8;"/>
     </g>
     <g id="text_2">
      <!-- Jun-2018 -->
      <g style="fill:#262626;" transform="translate(195.695816 329.598437)scale(0.1 -0.1)">
       <defs>
        <path d="M 2034 2216 
Q 1584 2216 1326 1975 
Q 1069 1734 1069 1313 
Q 1069 891 1326 650 
Q 1584 409 2034 409 
Q 2484 409 2743 651 
Q 3003 894 3003 1313 
Q 3003 1734 2745 1975 
Q 2488 2216 2034 2216 
z
M 1403 2484 
Q 997 2584 770 2862 
Q 544 3141 544 3541 
Q 544 4100 942 4425 
Q 1341 4750 2034 4750 
Q 2731 4750 3128 4425 
Q 3525 4100 3525 3541 
Q 3525 3141 3298 2862 
Q 3072 2584 2669 2484 
Q 3125 2378 3379 2068 
Q 3634 1759 3634 1313 
Q 3634 634 3220 271 
Q 2806 -91 2034 -91 
Q 1263 -91 848 271 
Q 434 634 434 1313 
Q 434 1759 690 2068 
Q 947 2378 1403 2484 
z
M 1172 3481 
Q 1172 3119 1398 2916 
Q 1625 2713 2034 2713 
Q 2441 2713 2670 2916 
Q 2900 3119 2900 3481 
Q 2900 3844 2670 4047 
Q 2441 4250 2034 4250 
Q 1625 4250 1398 4047 
Q 1172 3844 1172 3481 
z
" id="DejaVuSans-38" transform="scale(0.015625)"/>
       </defs>
       <use xlink:href="#DejaVuSans-4a"/>
       <use x="29.492188" xlink:href="#DejaVuSans-75"/>
       <use x="92.871094" xlink:href="#DejaVuSans-6e"/>
       <use x="156.25" xlink:href="#DejaVuSans-2d"/>
       <use x="192.333984" xlink:href="#DejaVuSans-32"/>
       <use x="255.957031" xlink:href="#DejaVuSans-30"/>
       <use x="319.580078" xlink:href="#DejaVuSans-31"/>
       <use x="383.203125" xlink:href="#DejaVuSans-38"/>
      </g>
     </g>
    </g>
    <g id="xtick_3">
     <g id="line2d_3">
      <path clip-path="url(#p556fe02020)" d="M 323.358352 315 
L 323.358352 43.2 
" style="fill:none;stroke:#cccccc;stroke-linecap:round;stroke-width:0.8;"/>
     </g>
     <g id="text_3">
      <!-- Jun-2019 -->
      <g style="fill:#262626;" transform="translate(301.016946 329.598437)scale(0.1 -0.1)">
       <defs>
        <path d="M 703 97 
L 703 672 
Q 941 559 1184 500 
Q 1428 441 1663 441 
Q 2288 441 2617 861 
Q 2947 1281 2994 2138 
Q 2813 1869 2534 1725 
Q 2256 1581 1919 1581 
Q 1219 1581 811 2004 
Q 403 2428 403 3163 
Q 403 3881 828 4315 
Q 1253 4750 1959 4750 
Q 2769 4750 3195 4129 
Q 3622 3509 3622 2328 
Q 3622 1225 3098 567 
Q 2575 -91 1691 -91 
Q 1453 -91 1209 -44 
Q 966 3 703 97 
z
M 1959 2075 
Q 2384 2075 2632 2365 
Q 2881 2656 2881 3163 
Q 2881 3666 2632 3958 
Q 2384 4250 1959 4250 
Q 1534 4250 1286 3958 
Q 1038 3666 1038 3163 
Q 1038 2656 1286 2365 
Q 1534 2075 1959 2075 
z
" id="DejaVuSans-39" transform="scale(0.015625)"/>
       </defs>
       <use xlink:href="#DejaVuSans-4a"/>
       <use x="29.492188" xlink:href="#DejaVuSans-75"/>
       <use x="92.871094" xlink:href="#DejaVuSans-6e"/>
       <use x="156.25" xlink:href="#DejaVuSans-2d"/>
       <use x="192.333984" xlink:href="#DejaVuSans-32"/>
       <use x="255.957031" xlink:href="#DejaVuSans-30"/>
       <use x="319.580078" xlink:href="#DejaVuSans-31"/>
       <use x="383.203125" xlink:href="#DejaVuSans-39"/>
      </g>
     </g>
    </g>
    <g id="xtick_4">
     <g id="line2d_4">
      <path clip-path="url(#p556fe02020)" d="M 428.968033 315 
L 428.968033 43.2 
" style="fill:none;stroke:#cccccc;stroke-linecap:round;stroke-width:0.8;"/>
     </g>
     <g id="text_4">
      <!-- Jun-2020 -->
      <g style="fill:#262626;" transform="translate(406.626626 329.598437)scale(0.1 -0.1)">
       <use xlink:href="#DejaVuSans-4a"/>
       <use x="29.492188" xlink:href="#DejaVuSans-75"/>
       <use x="92.871094" xlink:href="#DejaVuSans-6e"/>
       <use x="156.25" xlink:href="#DejaVuSans-2d"/>
       <use x="192.333984" xlink:href="#DejaVuSans-32"/>
       <use x="255.957031" xlink:href="#DejaVuSans-30"/>
       <use x="319.580078" xlink:href="#DejaVuSans-32"/>
       <use x="383.203125" xlink:href="#DejaVuSans-30"/>
      </g>
     </g>
    </g>
    <g id="xtick_5">
     <g id="line2d_5">
      <path clip-path="url(#p556fe02020)" d="M 534.289162 315 
L 534.289162 43.2 
" style="fill:none;stroke:#cccccc;stroke-linecap:round;stroke-width:0.8;"/>
     </g>
     <g id="text_5">
      <!-- Jun-2021 -->
      <g style="fill:#262626;" transform="translate(511.947756 329.598437)scale(0.1 -0.1)">
       <use xlink:href="#DejaVuSans-4a"/>
       <use x="29.492188" xlink:href="#DejaVuSans-75"/>
       <use x="92.871094" xlink:href="#DejaVuSans-6e"/>
       <use x="156.25" xlink:href="#DejaVuSans-2d"/>
       <use x="192.333984" xlink:href="#DejaVuSans-32"/>
       <use x="255.957031" xlink:href="#DejaVuSans-30"/>
       <use x="319.580078" xlink:href="#DejaVuSans-32"/>
       <use x="383.203125" xlink:href="#DejaVuSans-31"/>
      </g>
     </g>
    </g>
    <g id="text_6">
     <!-- Mes - Año -->
     <g style="fill:#262626;" transform="translate(298.155469 343.276562)scale(0.1 -0.1)">
      <defs>
       <path d="M 628 4666 
L 1569 4666 
L 2759 1491 
L 3956 4666 
L 4897 4666 
L 4897 0 
L 4281 0 
L 4281 4097 
L 3078 897 
L 2444 897 
L 1241 4097 
L 1241 0 
L 628 0 
L 628 4666 
z
" id="DejaVuSans-4d" transform="scale(0.015625)"/>
       <path d="M 3597 1894 
L 3597 1613 
L 953 1613 
Q 991 1019 1311 708 
Q 1631 397 2203 397 
Q 2534 397 2845 478 
Q 3156 559 3463 722 
L 3463 178 
Q 3153 47 2828 -22 
Q 2503 -91 2169 -91 
Q 1331 -91 842 396 
Q 353 884 353 1716 
Q 353 2575 817 3079 
Q 1281 3584 2069 3584 
Q 2775 3584 3186 3129 
Q 3597 2675 3597 1894 
z
M 3022 2063 
Q 3016 2534 2758 2815 
Q 2500 3097 2075 3097 
Q 1594 3097 1305 2825 
Q 1016 2553 972 2059 
L 3022 2063 
z
" id="DejaVuSans-65" transform="scale(0.015625)"/>
       <path d="M 2834 3397 
L 2834 2853 
Q 2591 2978 2328 3040 
Q 2066 3103 1784 3103 
Q 1356 3103 1142 2972 
Q 928 2841 928 2578 
Q 928 2378 1081 2264 
Q 1234 2150 1697 2047 
L 1894 2003 
Q 2506 1872 2764 1633 
Q 3022 1394 3022 966 
Q 3022 478 2636 193 
Q 2250 -91 1575 -91 
Q 1294 -91 989 -36 
Q 684 19 347 128 
L 347 722 
Q 666 556 975 473 
Q 1284 391 1588 391 
Q 1994 391 2212 530 
Q 2431 669 2431 922 
Q 2431 1156 2273 1281 
Q 2116 1406 1581 1522 
L 1381 1569 
Q 847 1681 609 1914 
Q 372 2147 372 2553 
Q 372 3047 722 3315 
Q 1072 3584 1716 3584 
Q 2034 3584 2315 3537 
Q 2597 3491 2834 3397 
z
" id="DejaVuSans-73" transform="scale(0.015625)"/>
       <path id="DejaVuSans-20" transform="scale(0.015625)"/>
       <path d="M 2188 4044 
L 1331 1722 
L 3047 1722 
L 2188 4044 
z
M 1831 4666 
L 2547 4666 
L 4325 0 
L 3669 0 
L 3244 1197 
L 1141 1197 
L 716 0 
L 50 0 
L 1831 4666 
z
" id="DejaVuSans-41" transform="scale(0.015625)"/>
       <path d="M 3513 2113 
L 3513 0 
L 2938 0 
L 2938 2094 
Q 2938 2591 2744 2837 
Q 2550 3084 2163 3084 
Q 1697 3084 1428 2787 
Q 1159 2491 1159 1978 
L 1159 0 
L 581 0 
L 581 3500 
L 1159 3500 
L 1159 2956 
Q 1366 3272 1645 3428 
Q 1925 3584 2291 3584 
Q 2894 3584 3203 3211 
Q 3513 2838 3513 2113 
z
M 2060 4281 
L 1881 4453 
Q 1813 4516 1761 4545 
Q 1710 4575 1669 4575 
Q 1550 4575 1494 4461 
Q 1438 4347 1431 4091 
L 1041 4091 
Q 1047 4513 1206 4742 
Q 1366 4972 1650 4972 
Q 1769 4972 1869 4928 
Q 1969 4884 2085 4781 
L 2263 4609 
Q 2331 4547 2383 4517 
Q 2435 4488 2475 4488 
Q 2594 4488 2650 4602 
Q 2706 4716 2713 4972 
L 3103 4972 
Q 3097 4550 2937 4320 
Q 2778 4091 2494 4091 
Q 2375 4091 2275 4134 
Q 2175 4178 2060 4281 
z
" id="DejaVuSans-f1" transform="scale(0.015625)"/>
       <path d="M 1959 3097 
Q 1497 3097 1228 2736 
Q 959 2375 959 1747 
Q 959 1119 1226 758 
Q 1494 397 1959 397 
Q 2419 397 2687 759 
Q 2956 1122 2956 1747 
Q 2956 2369 2687 2733 
Q 2419 3097 1959 3097 
z
M 1959 3584 
Q 2709 3584 3137 3096 
Q 3566 2609 3566 1747 
Q 3566 888 3137 398 
Q 2709 -91 1959 -91 
Q 1206 -91 779 398 
Q 353 888 353 1747 
Q 353 2609 779 3096 
Q 1206 3584 1959 3584 
z
" id="DejaVuSans-6f" transform="scale(0.015625)"/>
      </defs>
      <use xlink:href="#DejaVuSans-4d"/>
      <use x="86.279297" xlink:href="#DejaVuSans-65"/>
      <use x="147.802734" xlink:href="#DejaVuSans-73"/>
      <use x="199.902344" xlink:href="#DejaVuSans-20"/>
      <use x="231.689453" xlink:href="#DejaVuSans-2d"/>
      <use x="267.773438" xlink:href="#DejaVuSans-20"/>
      <use x="299.560547" xlink:href="#DejaVuSans-41"/>
      <use x="367.96875" xlink:href="#DejaVuSans-f1"/>
      <use x="431.347656" xlink:href="#DejaVuSans-6f"/>
     </g>
    </g>
   </g>
   <g id="matplotlib.axis_2">
    <g id="ytick_1">
     <g id="line2d_6">
      <path clip-path="url(#p556fe02020)" d="M 43.78125 302.645455 
L 601.78125 302.645455 
" style="fill:none;stroke:#cccccc;stroke-linecap:round;stroke-width:0.8;"/>
     </g>
     <g id="text_7">
      <!-- 0.0 -->
      <g style="fill:#262626;" transform="translate(20.878125 306.444673)scale(0.1 -0.1)">
       <defs>
        <path d="M 684 794 
L 1344 794 
L 1344 0 
L 684 0 
L 684 794 
z
" id="DejaVuSans-2e" transform="scale(0.015625)"/>
       </defs>
       <use xlink:href="#DejaVuSans-30"/>
       <use x="63.623047" xlink:href="#DejaVuSans-2e"/>
       <use x="95.410156" xlink:href="#DejaVuSans-30"/>
      </g>
     </g>
    </g>
    <g id="ytick_2">
     <g id="line2d_7">
      <path clip-path="url(#p556fe02020)" d="M 43.78125 253.074644 
L 601.78125 253.074644 
" style="fill:none;stroke:#cccccc;stroke-linecap:round;stroke-width:0.8;"/>
     </g>
     <g id="text_8">
      <!-- 0.2 -->
      <g style="fill:#262626;" transform="translate(20.878125 256.873863)scale(0.1 -0.1)">
       <use xlink:href="#DejaVuSans-30"/>
       <use x="63.623047" xlink:href="#DejaVuSans-2e"/>
       <use x="95.410156" xlink:href="#DejaVuSans-32"/>
      </g>
     </g>
    </g>
    <g id="ytick_3">
     <g id="line2d_8">
      <path clip-path="url(#p556fe02020)" d="M 43.78125 203.503834 
L 601.78125 203.503834 
" style="fill:none;stroke:#cccccc;stroke-linecap:round;stroke-width:0.8;"/>
     </g>
     <g id="text_9">
      <!-- 0.4 -->
      <g style="fill:#262626;" transform="translate(20.878125 207.303052)scale(0.1 -0.1)">
       <defs>
        <path d="M 2419 4116 
L 825 1625 
L 2419 1625 
L 2419 4116 
z
M 2253 4666 
L 3047 4666 
L 3047 1625 
L 3713 1625 
L 3713 1100 
L 3047 1100 
L 3047 0 
L 2419 0 
L 2419 1100 
L 313 1100 
L 313 1709 
L 2253 4666 
z
" id="DejaVuSans-34" transform="scale(0.015625)"/>
       </defs>
       <use xlink:href="#DejaVuSans-30"/>
       <use x="63.623047" xlink:href="#DejaVuSans-2e"/>
       <use x="95.410156" xlink:href="#DejaVuSans-34"/>
      </g>
     </g>
    </g>
    <g id="ytick_4">
     <g id="line2d_9">
      <path clip-path="url(#p556fe02020)" d="M 43.78125 153.933023 
L 601.78125 153.933023 
" style="fill:none;stroke:#cccccc;stroke-linecap:round;stroke-width:0.8;"/>
     </g>
     <g id="text_10">
      <!-- 0.6 -->
      <g style="fill:#262626;" transform="translate(20.878125 157.732242)scale(0.1 -0.1)">
       <defs>
        <path d="M 2113 2584 
Q 1688 2584 1439 2293 
Q 1191 2003 1191 1497 
Q 1191 994 1439 701 
Q 1688 409 2113 409 
Q 2538 409 2786 701 
Q 3034 994 3034 1497 
Q 3034 2003 2786 2293 
Q 2538 2584 2113 2584 
z
M 3366 4563 
L 3366 3988 
Q 3128 4100 2886 4159 
Q 2644 4219 2406 4219 
Q 1781 4219 1451 3797 
Q 1122 3375 1075 2522 
Q 1259 2794 1537 2939 
Q 1816 3084 2150 3084 
Q 2853 3084 3261 2657 
Q 3669 2231 3669 1497 
Q 3669 778 3244 343 
Q 2819 -91 2113 -91 
Q 1303 -91 875 529 
Q 447 1150 447 2328 
Q 447 3434 972 4092 
Q 1497 4750 2381 4750 
Q 2619 4750 2861 4703 
Q 3103 4656 3366 4563 
z
" id="DejaVuSans-36" transform="scale(0.015625)"/>
       </defs>
       <use xlink:href="#DejaVuSans-30"/>
       <use x="63.623047" xlink:href="#DejaVuSans-2e"/>
       <use x="95.410156" xlink:href="#DejaVuSans-36"/>
      </g>
     </g>
    </g>
    <g id="ytick_5">
     <g id="line2d_10">
      <path clip-path="url(#p556fe02020)" d="M 43.78125 104.362213 
L 601.78125 104.362213 
" style="fill:none;stroke:#cccccc;stroke-linecap:round;stroke-width:0.8;"/>
     </g>
     <g id="text_11">
      <!-- 0.8 -->
      <g style="fill:#262626;" transform="translate(20.878125 108.161431)scale(0.1 -0.1)">
       <use xlink:href="#DejaVuSans-30"/>
       <use x="63.623047" xlink:href="#DejaVuSans-2e"/>
       <use x="95.410156" xlink:href="#DejaVuSans-38"/>
      </g>
     </g>
    </g>
    <g id="ytick_6">
     <g id="line2d_11">
      <path clip-path="url(#p556fe02020)" d="M 43.78125 54.791402 
L 601.78125 54.791402 
" style="fill:none;stroke:#cccccc;stroke-linecap:round;stroke-width:0.8;"/>
     </g>
     <g id="text_12">
      <!-- 1.0 -->
      <g style="fill:#262626;" transform="translate(20.878125 58.590621)scale(0.1 -0.1)">
       <use xlink:href="#DejaVuSans-31"/>
       <use x="63.623047" xlink:href="#DejaVuSans-2e"/>
       <use x="95.410156" xlink:href="#DejaVuSans-30"/>
      </g>
     </g>
    </g>
    <g id="text_13">
     <!-- Mediana y Rango de Valores -->
     <g style="fill:#262626;" transform="translate(14.798438 249.914844)rotate(-90)scale(0.1 -0.1)">
      <defs>
       <path d="M 2906 2969 
L 2906 4863 
L 3481 4863 
L 3481 0 
L 2906 0 
L 2906 525 
Q 2725 213 2448 61 
Q 2172 -91 1784 -91 
Q 1150 -91 751 415 
Q 353 922 353 1747 
Q 353 2572 751 3078 
Q 1150 3584 1784 3584 
Q 2172 3584 2448 3432 
Q 2725 3281 2906 2969 
z
M 947 1747 
Q 947 1113 1208 752 
Q 1469 391 1925 391 
Q 2381 391 2643 752 
Q 2906 1113 2906 1747 
Q 2906 2381 2643 2742 
Q 2381 3103 1925 3103 
Q 1469 3103 1208 2742 
Q 947 2381 947 1747 
z
" id="DejaVuSans-64" transform="scale(0.015625)"/>
       <path d="M 603 3500 
L 1178 3500 
L 1178 0 
L 603 0 
L 603 3500 
z
M 603 4863 
L 1178 4863 
L 1178 4134 
L 603 4134 
L 603 4863 
z
" id="DejaVuSans-69" transform="scale(0.015625)"/>
       <path d="M 2194 1759 
Q 1497 1759 1228 1600 
Q 959 1441 959 1056 
Q 959 750 1161 570 
Q 1363 391 1709 391 
Q 2188 391 2477 730 
Q 2766 1069 2766 1631 
L 2766 1759 
L 2194 1759 
z
M 3341 1997 
L 3341 0 
L 2766 0 
L 2766 531 
Q 2569 213 2275 61 
Q 1981 -91 1556 -91 
Q 1019 -91 701 211 
Q 384 513 384 1019 
Q 384 1609 779 1909 
Q 1175 2209 1959 2209 
L 2766 2209 
L 2766 2266 
Q 2766 2663 2505 2880 
Q 2244 3097 1772 3097 
Q 1472 3097 1187 3025 
Q 903 2953 641 2809 
L 641 3341 
Q 956 3463 1253 3523 
Q 1550 3584 1831 3584 
Q 2591 3584 2966 3190 
Q 3341 2797 3341 1997 
z
" id="DejaVuSans-61" transform="scale(0.015625)"/>
       <path d="M 2059 -325 
Q 1816 -950 1584 -1140 
Q 1353 -1331 966 -1331 
L 506 -1331 
L 506 -850 
L 844 -850 
Q 1081 -850 1212 -737 
Q 1344 -625 1503 -206 
L 1606 56 
L 191 3500 
L 800 3500 
L 1894 763 
L 2988 3500 
L 3597 3500 
L 2059 -325 
z
" id="DejaVuSans-79" transform="scale(0.015625)"/>
       <path d="M 2841 2188 
Q 3044 2119 3236 1894 
Q 3428 1669 3622 1275 
L 4263 0 
L 3584 0 
L 2988 1197 
Q 2756 1666 2539 1819 
Q 2322 1972 1947 1972 
L 1259 1972 
L 1259 0 
L 628 0 
L 628 4666 
L 2053 4666 
Q 2853 4666 3247 4331 
Q 3641 3997 3641 3322 
Q 3641 2881 3436 2590 
Q 3231 2300 2841 2188 
z
M 1259 4147 
L 1259 2491 
L 2053 2491 
Q 2509 2491 2742 2702 
Q 2975 2913 2975 3322 
Q 2975 3731 2742 3939 
Q 2509 4147 2053 4147 
L 1259 4147 
z
" id="DejaVuSans-52" transform="scale(0.015625)"/>
       <path d="M 2906 1791 
Q 2906 2416 2648 2759 
Q 2391 3103 1925 3103 
Q 1463 3103 1205 2759 
Q 947 2416 947 1791 
Q 947 1169 1205 825 
Q 1463 481 1925 481 
Q 2391 481 2648 825 
Q 2906 1169 2906 1791 
z
M 3481 434 
Q 3481 -459 3084 -895 
Q 2688 -1331 1869 -1331 
Q 1566 -1331 1297 -1286 
Q 1028 -1241 775 -1147 
L 775 -588 
Q 1028 -725 1275 -790 
Q 1522 -856 1778 -856 
Q 2344 -856 2625 -561 
Q 2906 -266 2906 331 
L 2906 616 
Q 2728 306 2450 153 
Q 2172 0 1784 0 
Q 1141 0 747 490 
Q 353 981 353 1791 
Q 353 2603 747 3093 
Q 1141 3584 1784 3584 
Q 2172 3584 2450 3431 
Q 2728 3278 2906 2969 
L 2906 3500 
L 3481 3500 
L 3481 434 
z
" id="DejaVuSans-67" transform="scale(0.015625)"/>
       <path d="M 1831 0 
L 50 4666 
L 709 4666 
L 2188 738 
L 3669 4666 
L 4325 4666 
L 2547 0 
L 1831 0 
z
" id="DejaVuSans-56" transform="scale(0.015625)"/>
       <path d="M 603 4863 
L 1178 4863 
L 1178 0 
L 603 0 
L 603 4863 
z
" id="DejaVuSans-6c" transform="scale(0.015625)"/>
       <path d="M 2631 2963 
Q 2534 3019 2420 3045 
Q 2306 3072 2169 3072 
Q 1681 3072 1420 2755 
Q 1159 2438 1159 1844 
L 1159 0 
L 581 0 
L 581 3500 
L 1159 3500 
L 1159 2956 
Q 1341 3275 1631 3429 
Q 1922 3584 2338 3584 
Q 2397 3584 2469 3576 
Q 2541 3569 2628 3553 
L 2631 2963 
z
" id="DejaVuSans-72" transform="scale(0.015625)"/>
      </defs>
      <use xlink:href="#DejaVuSans-4d"/>
      <use x="86.279297" xlink:href="#DejaVuSans-65"/>
      <use x="147.802734" xlink:href="#DejaVuSans-64"/>
      <use x="211.279297" xlink:href="#DejaVuSans-69"/>
      <use x="239.0625" xlink:href="#DejaVuSans-61"/>
      <use x="300.341797" xlink:href="#DejaVuSans-6e"/>
      <use x="363.720703" xlink:href="#DejaVuSans-61"/>
      <use x="425" xlink:href="#DejaVuSans-20"/>
      <use x="456.787109" xlink:href="#DejaVuSans-79"/>
      <use x="515.966797" xlink:href="#DejaVuSans-20"/>
      <use x="547.753906" xlink:href="#DejaVuSans-52"/>
      <use x="614.986328" xlink:href="#DejaVuSans-61"/>
      <use x="676.265625" xlink:href="#DejaVuSans-6e"/>
      <use x="739.644531" xlink:href="#DejaVuSans-67"/>
      <use x="803.121094" xlink:href="#DejaVuSans-6f"/>
      <use x="864.302734" xlink:href="#DejaVuSans-20"/>
      <use x="896.089844" xlink:href="#DejaVuSans-64"/>
      <use x="959.566406" xlink:href="#DejaVuSans-65"/>
      <use x="1021.089844" xlink:href="#DejaVuSans-20"/>
      <use x="1052.876953" xlink:href="#DejaVuSans-56"/>
      <use x="1113.535156" xlink:href="#DejaVuSans-61"/>
      <use x="1174.814453" xlink:href="#DejaVuSans-6c"/>
      <use x="1202.597656" xlink:href="#DejaVuSans-6f"/>
      <use x="1263.779297" xlink:href="#DejaVuSans-72"/>
      <use x="1302.642578" xlink:href="#DejaVuSans-65"/>
      <use x="1364.166016" xlink:href="#DejaVuSans-73"/>
     </g>
    </g>
    <g id="text_14">
     <!-- 1e37 -->
     <g style="fill:#262626;" transform="translate(43.78125 40.2)scale(0.1 -0.1)">
      <defs>
       <path d="M 2597 2516 
Q 3050 2419 3304 2112 
Q 3559 1806 3559 1356 
Q 3559 666 3084 287 
Q 2609 -91 1734 -91 
Q 1441 -91 1130 -33 
Q 819 25 488 141 
L 488 750 
Q 750 597 1062 519 
Q 1375 441 1716 441 
Q 2309 441 2620 675 
Q 2931 909 2931 1356 
Q 2931 1769 2642 2001 
Q 2353 2234 1838 2234 
L 1294 2234 
L 1294 2753 
L 1863 2753 
Q 2328 2753 2575 2939 
Q 2822 3125 2822 3475 
Q 2822 3834 2567 4026 
Q 2313 4219 1838 4219 
Q 1578 4219 1281 4162 
Q 984 4106 628 3988 
L 628 4550 
Q 988 4650 1302 4700 
Q 1616 4750 1894 4750 
Q 2613 4750 3031 4423 
Q 3450 4097 3450 3541 
Q 3450 3153 3228 2886 
Q 3006 2619 2597 2516 
z
" id="DejaVuSans-33" transform="scale(0.015625)"/>
      </defs>
      <use xlink:href="#DejaVuSans-31"/>
      <use x="63.623047" xlink:href="#DejaVuSans-65"/>
      <use x="125.146484" xlink:href="#DejaVuSans-33"/>
      <use x="188.769531" xlink:href="#DejaVuSans-37"/>
     </g>
    </g>
   </g>
   <g id="PolyCollection_1">
    <defs>
     <path d="M 69.144886 -49.910795 
L 69.144886 -49.910795 
L 70.010539 -49.910795 
L 70.876193 -49.910795 
L 71.741846 -49.910795 
L 72.607499 -49.910795 
L 73.473152 -49.910795 
L 74.338805 -49.910795 
L 75.204458 -49.910795 
L 76.070111 -49.910795 
L 76.935764 -49.910795 
L 77.801418 -49.910795 
L 78.667071 -49.910795 
L 79.532724 -49.910795 
L 80.398377 -49.910795 
L 81.26403 -49.910795 
L 82.129683 -49.910795 
L 82.995336 -49.910795 
L 83.860989 -49.910795 
L 84.726642 -49.910795 
L 85.592296 -49.910795 
L 86.457949 -49.910795 
L 87.323602 -49.910795 
L 89.054908 -49.910795 
L 89.920561 -49.910795 
L 90.786214 -49.910795 
L 91.651867 -49.910795 
L 92.517521 -49.910795 
L 93.383174 -49.910795 
L 94.248827 -49.910795 
L 95.11448 -49.910795 
L 95.980133 -49.910795 
L 96.845786 -49.910795 
L 97.711439 -49.910795 
L 98.577092 -49.910795 
L 99.442746 -49.910795 
L 100.308399 -49.910795 
L 101.174052 -49.910795 
L 102.039705 -49.910795 
L 102.905358 -49.910795 
L 103.771011 -49.910795 
L 104.636664 -49.910795 
L 105.502317 -49.910795 
L 106.36797 -49.910795 
L 107.233624 -49.910795 
L 108.099277 -49.910795 
L 108.96493 -49.910795 
L 109.830583 -49.910795 
L 110.696236 -49.910795 
L 111.561889 -49.910795 
L 112.427542 -49.910795 
L 113.293195 -49.910795 
L 114.158849 -49.910795 
L 115.024502 -49.910795 
L 115.890155 -49.910795 
L 117.621461 -49.910795 
L 118.487114 -49.910795 
L 119.352767 -49.910795 
L 120.21842 -49.910795 
L 121.084073 -49.910795 
L 121.949727 -49.910795 
L 122.81538 -49.910795 
L 123.681033 -49.910795 
L 124.546686 -49.910795 
L 125.412339 -49.910795 
L 126.277992 -49.910795 
L 127.143645 -49.910795 
L 128.009298 -49.910795 
L 128.874952 -49.910795 
L 129.740605 -49.910795 
L 130.606258 -49.910795 
L 131.471911 -49.910795 
L 132.337564 -49.910795 
L 133.203217 -49.910795 
L 134.06887 -49.910795 
L 134.934523 -49.910795 
L 135.800176 -49.910795 
L 136.66583 -49.910795 
L 137.531483 -49.910795 
L 138.397136 -49.910795 
L 139.262789 -49.910795 
L 140.128442 -49.910795 
L 140.994095 -49.910795 
L 141.859748 -49.910795 
L 142.725401 -49.910795 
L 143.591055 -49.910795 
L 144.456708 -49.910795 
L 145.322361 -49.910795 
L 146.188014 -49.910795 
L 147.053667 -49.910795 
L 147.91932 -49.910795 
L 148.784973 -49.910795 
L 149.650626 -49.910795 
L 150.516279 -49.910795 
L 151.381933 -49.910795 
L 152.247586 -49.910795 
L 153.113239 -49.910795 
L 153.978892 -49.910795 
L 154.844545 -49.910795 
L 155.710198 -49.910795 
L 156.575851 -49.910795 
L 157.441504 -49.910795 
L 158.307158 -49.910795 
L 159.172811 -49.910795 
L 160.038464 -49.910795 
L 160.904117 -49.910795 
L 161.76977 -49.910795 
L 162.635423 -49.910795 
L 163.501076 -49.910795 
L 164.366729 -49.910795 
L 165.232382 -49.910795 
L 166.098036 -49.910795 
L 166.963689 -49.910795 
L 167.829342 -49.910795 
L 168.694995 -49.910795 
L 169.560648 -49.910795 
L 170.426301 -49.910795 
L 171.291954 -49.910795 
L 172.157607 -49.910795 
L 173.023261 -49.910795 
L 173.888914 -49.910795 
L 174.466016 -49.910795 
L 175.331669 -49.910795 
L 176.197322 -49.910795 
L 177.062975 -49.910795 
L 177.928628 -49.910795 
L 178.794281 -49.910795 
L 179.659934 -49.910795 
L 180.525588 -49.910795 
L 181.391241 -49.910795 
L 182.256894 -49.910795 
L 183.9882 -49.910795 
L 184.853853 -49.910795 
L 185.719506 -49.910795 
L 186.585159 -49.910795 
L 187.450813 -49.910795 
L 188.316466 -49.910795 
L 189.182119 -49.910795 
L 190.047772 -49.910795 
L 190.913425 -49.910795 
L 191.779078 -49.910795 
L 192.644731 -49.910795 
L 193.510384 -49.910795 
L 194.376037 -49.910795 
L 195.241691 -49.910795 
L 196.107344 -49.910795 
L 196.972997 -49.910795 
L 197.83865 -49.910795 
L 198.704303 -49.910795 
L 199.569956 -49.910795 
L 200.435609 -49.910795 
L 201.301262 -49.910795 
L 202.166916 -49.910795 
L 203.032569 -49.910795 
L 203.898222 -49.910795 
L 204.763875 -49.910795 
L 205.629528 -49.910795 
L 206.495181 -49.910795 
L 207.360834 -49.910795 
L 208.226487 -49.910795 
L 209.09214 -49.910795 
L 209.957794 -49.910795 
L 210.823447 -49.910795 
L 211.6891 -49.910795 
L 212.554753 -49.910795 
L 213.420406 -49.910795 
L 214.286059 -49.910795 
L 215.151712 -49.910795 
L 216.017365 -49.910795 
L 216.883019 -49.910795 
L 217.748672 -49.910795 
L 218.614325 -49.910795 
L 219.479978 -49.910795 
L 220.345631 -49.910795 
L 221.211284 -49.910795 
L 222.076937 -49.910795 
L 222.94259 -49.910795 
L 223.808243 -49.910795 
L 224.673897 -49.910795 
L 225.53955 -49.910795 
L 226.405203 -49.910795 
L 227.270856 -49.910795 
L 228.136509 -49.910795 
L 229.002162 -49.910795 
L 229.867815 -49.910795 
L 230.733468 -49.910795 
L 231.599122 -49.910795 
L 232.464775 -49.910795 
L 233.330428 -49.910795 
L 234.196081 -49.910795 
L 235.061734 -49.910795 
L 235.927387 -49.910795 
L 236.79304 -49.910795 
L 237.658693 -49.910795 
L 238.524346 -49.910795 
L 239.39 -49.910795 
L 240.255653 -49.910795 
L 241.121306 -49.910795 
L 241.986959 -49.910795 
L 242.852612 -49.910795 
L 243.718265 -49.910795 
L 244.583918 -49.910795 
L 245.449571 -49.910795 
L 246.315225 -49.910795 
L 247.180878 -49.910795 
L 248.046531 -49.910795 
L 248.912184 -49.910795 
L 249.777837 -49.910795 
L 250.64349 -49.910795 
L 251.509143 -49.910795 
L 252.374796 -49.910795 
L 253.24045 -49.910795 
L 254.106103 -49.910795 
L 254.971756 -49.910795 
L 255.837409 -49.910795 
L 256.703062 -49.910795 
L 257.568715 -49.910795 
L 258.434368 -49.910795 
L 259.300021 -49.910795 
L 260.165674 -49.910795 
L 261.031328 -49.910795 
L 261.896981 -49.910795 
L 262.762634 -49.910795 
L 263.628287 -49.910795 
L 264.49394 -49.910795 
L 265.359593 -49.910795 
L 266.225246 -49.910795 
L 267.090899 -49.910795 
L 267.956553 -49.910795 
L 268.822206 -49.910795 
L 269.687859 -49.910795 
L 270.553512 -49.910795 
L 271.419165 -49.910795 
L 272.284818 -49.910795 
L 273.150471 -49.910795 
L 274.016124 -49.910795 
L 274.881777 -49.910795 
L 275.747431 -49.910795 
L 276.613084 -49.910795 
L 277.478737 -49.910795 
L 278.34439 -49.910795 
L 279.210043 -49.910795 
L 279.787145 -49.910795 
L 280.652798 -49.910795 
L 281.518451 -49.910795 
L 282.384104 -49.910795 
L 283.249758 -49.910795 
L 284.115411 -49.910795 
L 284.981064 -49.910795 
L 285.846717 -49.910795 
L 286.71237 -49.910795 
L 287.578023 -49.910795 
L 288.443676 -49.910795 
L 289.309329 -49.910795 
L 290.174983 -49.910795 
L 291.040636 -49.910795 
L 291.906289 -49.910795 
L 292.771942 -49.910795 
L 293.637595 -49.910795 
L 294.503248 -49.910795 
L 295.368901 -49.910795 
L 296.234554 -49.910795 
L 297.100207 -49.910795 
L 297.965861 -49.910795 
L 298.831514 -49.910795 
L 299.697167 -49.910795 
L 300.56282 -49.910795 
L 301.428473 -49.910795 
L 302.294126 -49.910795 
L 303.159779 -49.910795 
L 304.025432 -49.910795 
L 304.891086 -49.910795 
L 305.756739 -49.910795 
L 306.622392 -49.910795 
L 307.488045 -49.910795 
L 308.353698 -49.910795 
L 309.219351 -49.910795 
L 310.085004 -49.910795 
L 310.950657 -49.910795 
L 311.816311 -49.910795 
L 312.681964 -49.910795 
L 313.547617 -49.910795 
L 314.41327 -49.910795 
L 315.278923 -49.910795 
L 316.144576 -49.910795 
L 317.010229 -49.910795 
L 317.875882 -49.910795 
L 318.741535 -49.910795 
L 319.607189 -49.910795 
L 320.472842 -49.910795 
L 321.338495 -49.910795 
L 322.204148 -49.910795 
L 323.069801 -49.910795 
L 323.935454 -49.910795 
L 324.801107 -49.910795 
L 325.66676 -49.910795 
L 326.532414 -49.910795 
L 327.398067 -49.910795 
L 328.26372 -49.910795 
L 329.129373 -297.001705 
L 329.995026 -297.001705 
L 330.860679 -297.001705 
L 331.726332 -297.001705 
L 332.591985 -297.001705 
L 333.457638 -297.001705 
L 334.323292 -297.001705 
L 335.188945 -297.001705 
L 336.054598 -297.001705 
L 336.920251 -297.001705 
L 337.785904 -297.001705 
L 338.651557 -49.910795 
L 339.51721 -49.910795 
L 340.382863 -49.910795 
L 341.248517 -49.910795 
L 342.979823 -49.910795 
L 343.845476 -49.910795 
L 344.711129 -49.910795 
L 345.576782 -49.910795 
L 346.442435 -49.910795 
L 347.308088 -49.910795 
L 348.173741 -49.910795 
L 349.039395 -49.910795 
L 349.905048 -49.910795 
L 350.770701 -49.910795 
L 351.636354 -49.910795 
L 352.502007 -49.910795 
L 353.36766 -49.910795 
L 354.233313 -49.910795 
L 355.098966 -49.910795 
L 355.96462 -49.910795 
L 356.830273 -49.910795 
L 357.695926 -49.910795 
L 358.561579 -49.910795 
L 359.427232 -49.910795 
L 360.292885 -49.910795 
L 361.158538 -49.910795 
L 362.024191 -49.910795 
L 362.889844 -49.910795 
L 363.755498 -49.910795 
L 364.621151 -49.910795 
L 365.486804 -49.910795 
L 366.352457 -49.910795 
L 367.21811 -49.910795 
L 368.083763 -49.910795 
L 368.949416 -49.910795 
L 369.815069 -49.910795 
L 370.680723 -49.910795 
L 371.546376 -49.910795 
L 372.412029 -49.910795 
L 373.277682 -49.910795 
L 374.143335 -49.910795 
L 375.008988 -49.910795 
L 375.874641 -49.910795 
L 376.740294 -49.910795 
L 377.605947 -49.910795 
L 378.471601 -49.910795 
L 379.337254 -49.910795 
L 380.202907 -49.910795 
L 381.06856 -49.910795 
L 381.934213 -49.910795 
L 382.799866 -49.910795 
L 383.665519 -49.910795 
L 384.531172 -49.910795 
L 385.108275 -49.910795 
L 385.973928 -49.910795 
L 386.839581 -49.910795 
L 387.705234 -49.910795 
L 388.570887 -49.910795 
L 389.43654 -49.910795 
L 390.302193 -49.910795 
L 391.167846 -49.910795 
L 392.033499 -49.910795 
L 392.899153 -49.910795 
L 393.764806 -49.910795 
L 394.630459 -49.910795 
L 395.496112 -49.910795 
L 396.361765 -49.910795 
L 397.227418 -49.910795 
L 398.093071 -49.910795 
L 398.958724 -49.910795 
L 399.824378 -49.910795 
L 400.690031 -49.910795 
L 401.555684 -49.910795 
L 402.421337 -49.910795 
L 403.28699 -49.910795 
L 404.152643 -49.910795 
L 405.018296 -49.910795 
L 405.883949 -49.910795 
L 406.749602 -49.910795 
L 407.615256 -49.910795 
L 408.480909 -49.910795 
L 409.346562 -49.910795 
L 410.212215 -49.910795 
L 411.077868 -49.910795 
L 411.943521 -49.910795 
L 412.809174 -49.910795 
L 413.674827 -49.910795 
L 414.540481 -49.910795 
L 415.406134 -49.910795 
L 416.271787 -49.910795 
L 417.13744 -49.910795 
L 418.003093 -49.910795 
L 418.868746 -49.910795 
L 419.734399 -49.910795 
L 420.600052 -49.910795 
L 421.465705 -49.910795 
L 422.331359 -49.910795 
L 423.197012 -49.910795 
L 424.062665 -49.910795 
L 424.928318 -49.910795 
L 425.793971 -49.910795 
L 426.659624 -49.910795 
L 427.525277 -49.910795 
L 428.39093 -49.910795 
L 429.256584 -49.910795 
L 430.122237 -49.910795 
L 430.98789 -49.910795 
L 431.853543 -49.910795 
L 432.719196 -49.910795 
L 433.584849 -49.910795 
L 434.450502 -49.910795 
L 435.316155 -49.910795 
L 436.181808 -49.910795 
L 437.047462 -49.910795 
L 437.913115 -49.910795 
L 438.778768 -49.910795 
L 439.644421 -49.910795 
L 440.510074 -49.910795 
L 441.375727 -49.910795 
L 442.24138 -49.910795 
L 443.107033 -49.910795 
L 443.972687 -49.910795 
L 444.83834 -49.910795 
L 445.703993 -49.910795 
L 446.569646 -49.910795 
L 447.435299 -49.910795 
L 448.300952 -49.910795 
L 449.166605 -49.910795 
L 450.032258 -49.910795 
L 450.897911 -49.910795 
L 451.763565 -49.910795 
L 452.629218 -49.910795 
L 453.494871 -49.910795 
L 454.360524 -49.910795 
L 455.226177 -49.910795 
L 456.09183 -49.910795 
L 456.957483 -49.910795 
L 457.823136 -49.910795 
L 458.68879 -49.910795 
L 459.554443 -49.910795 
L 460.420096 -49.910795 
L 461.285749 -49.910795 
L 462.151402 -49.910795 
L 463.017055 -49.910795 
L 463.882708 -49.910795 
L 464.748361 -49.910795 
L 465.614015 -49.910795 
L 466.479668 -49.910795 
L 467.345321 -49.910795 
L 468.210974 -49.910795 
L 469.076627 -49.910795 
L 469.94228 -49.910795 
L 470.807933 -49.910795 
L 471.673586 -49.910795 
L 472.539239 -49.910795 
L 473.404893 -49.910795 
L 474.270546 -49.910795 
L 475.136199 -49.910795 
L 476.001852 -49.910795 
L 476.867505 -49.910795 
L 477.733158 -49.910795 
L 478.598811 -49.910795 
L 479.464464 -49.910795 
L 480.330118 -49.910795 
L 481.195771 -49.910795 
L 482.061424 -49.910795 
L 482.927077 -49.910795 
L 483.79273 -49.910795 
L 484.658383 -49.910795 
L 485.524036 -49.910795 
L 486.389689 -49.910795 
L 487.255342 -49.910795 
L 488.986649 -49.910795 
L 489.852302 -49.910795 
L 490.717955 -49.910795 
L 491.583608 -49.910795 
L 492.449261 -49.910795 
L 493.314914 -49.910795 
L 494.180567 -49.910795 
L 495.046221 -49.910795 
L 495.911874 -49.910795 
L 496.777527 -49.910795 
L 497.64318 -49.910795 
L 498.508833 -49.910795 
L 499.374486 -49.910795 
L 500.240139 -49.910795 
L 501.105792 -49.910795 
L 501.971445 -49.910795 
L 502.837099 -49.910795 
L 503.702752 -49.910795 
L 504.568405 -49.910795 
L 505.434058 -49.910795 
L 506.299711 -49.910795 
L 507.165364 -49.910795 
L 508.031017 -49.910795 
L 508.89667 -49.910795 
L 509.762324 -49.910795 
L 511.49363 -49.910795 
L 512.359283 -49.910795 
L 513.224936 -49.910795 
L 514.090589 -49.910795 
L 514.956242 -49.910795 
L 515.821895 -49.910795 
L 516.687548 -49.910795 
L 517.553202 -49.910795 
L 518.418855 -49.910795 
L 519.284508 -49.910795 
L 521.015814 -49.910795 
L 521.881467 -49.910795 
L 522.74712 -49.910795 
L 523.612773 -49.910795 
L 524.478427 -49.910795 
L 525.34408 -49.910795 
L 526.209733 -49.910795 
L 527.075386 -49.910795 
L 527.941039 -49.910795 
L 528.806692 -49.910795 
L 529.672345 -49.910795 
L 530.537998 -49.910795 
L 531.403651 -49.910795 
L 532.269305 -49.910795 
L 533.134958 -49.910795 
L 534.000611 -49.910795 
L 534.866264 -49.910795 
L 535.731917 -49.910795 
L 536.59757 -49.910795 
L 537.463223 -49.910795 
L 538.328876 -49.910795 
L 539.19453 -49.910795 
L 540.060183 -49.910795 
L 540.925836 -49.910795 
L 541.791489 -49.910795 
L 542.657142 -49.910795 
L 543.522795 -49.910795 
L 544.388448 -49.910795 
L 545.254101 -49.910795 
L 546.119754 -49.910795 
L 546.985408 -49.910795 
L 547.851061 -49.910795 
L 548.716714 -49.910795 
L 549.582367 -49.910795 
L 550.44802 -49.910795 
L 551.313673 -49.910795 
L 552.179326 -49.910795 
L 553.044979 -49.910795 
L 553.910633 -49.910795 
L 554.776286 -49.910795 
L 555.641939 -49.910795 
L 556.507592 -49.910795 
L 557.373245 -49.910795 
L 558.238898 -49.910795 
L 559.104551 -49.910795 
L 559.970204 -49.910795 
L 560.835858 -49.910795 
L 561.701511 -49.910795 
L 562.567164 -49.910795 
L 563.432817 -49.910795 
L 564.29847 -49.910795 
L 565.164123 -49.910795 
L 566.029776 -49.910795 
L 566.895429 -49.910795 
L 567.761082 -49.910795 
L 568.626736 -49.910795 
L 569.492389 -49.910795 
L 570.358042 -49.910795 
L 571.223695 -49.910795 
L 572.089348 -49.910795 
L 573.820654 -49.910795 
L 574.686307 -49.910795 
L 575.551961 -49.910795 
L 576.417614 -49.910795 
L 576.417614 -49.910795 
L 576.417614 -49.910795 
L 575.551961 -49.910795 
L 574.686307 -49.910795 
L 573.820654 -49.910795 
L 572.089348 -49.910795 
L 571.223695 -49.910795 
L 570.358042 -49.910795 
L 569.492389 -49.910795 
L 568.626736 -49.910795 
L 567.761082 -49.910795 
L 566.895429 -49.910795 
L 566.029776 -49.910795 
L 565.164123 -49.910795 
L 564.29847 -49.910795 
L 563.432817 -49.910795 
L 562.567164 -49.910795 
L 561.701511 -49.910795 
L 560.835858 -49.910795 
L 559.970204 -49.910795 
L 559.104551 -49.910795 
L 558.238898 -49.910795 
L 557.373245 -49.910795 
L 556.507592 -49.910795 
L 555.641939 -49.910795 
L 554.776286 -49.910795 
L 553.910633 -49.910795 
L 553.044979 -49.910795 
L 552.179326 -49.910795 
L 551.313673 -49.910795 
L 550.44802 -49.910795 
L 549.582367 -49.910795 
L 548.716714 -49.910795 
L 547.851061 -49.910795 
L 546.985408 -49.910795 
L 546.119754 -49.910795 
L 545.254101 -49.910795 
L 544.388448 -49.910795 
L 543.522795 -49.910795 
L 542.657142 -49.910795 
L 541.791489 -49.910795 
L 540.925836 -49.910795 
L 540.060183 -49.910795 
L 539.19453 -49.910795 
L 538.328876 -49.910795 
L 537.463223 -49.910795 
L 536.59757 -49.910795 
L 535.731917 -49.910795 
L 534.866264 -49.910795 
L 534.000611 -49.910795 
L 533.134958 -49.910795 
L 532.269305 -49.910795 
L 531.403651 -49.910795 
L 530.537998 -49.910795 
L 529.672345 -49.910795 
L 528.806692 -49.910795 
L 527.941039 -49.910795 
L 527.075386 -49.910795 
L 526.209733 -49.910795 
L 525.34408 -49.910795 
L 524.478427 -49.910795 
L 523.612773 -49.910795 
L 522.74712 -49.910795 
L 521.881467 -49.910795 
L 521.015814 -49.910795 
L 519.284508 -49.910795 
L 518.418855 -49.910795 
L 517.553202 -49.910795 
L 516.687548 -49.910795 
L 515.821895 -49.910795 
L 514.956242 -49.910795 
L 514.090589 -49.910795 
L 513.224936 -49.910795 
L 512.359283 -49.910795 
L 511.49363 -49.910795 
L 509.762324 -49.910795 
L 508.89667 -49.910795 
L 508.031017 -49.910795 
L 507.165364 -49.910795 
L 506.299711 -49.910795 
L 505.434058 -49.910795 
L 504.568405 -49.910795 
L 503.702752 -49.910795 
L 502.837099 -49.910795 
L 501.971445 -49.910795 
L 501.105792 -49.910795 
L 500.240139 -49.910795 
L 499.374486 -49.910795 
L 498.508833 -49.910795 
L 497.64318 -49.910795 
L 496.777527 -49.910795 
L 495.911874 -49.910795 
L 495.046221 -49.910795 
L 494.180567 -49.910795 
L 493.314914 -49.910795 
L 492.449261 -49.910795 
L 491.583608 -49.910795 
L 490.717955 -49.910795 
L 489.852302 -49.910795 
L 488.986649 -49.910795 
L 487.255342 -49.910795 
L 486.389689 -49.910795 
L 485.524036 -49.910795 
L 484.658383 -49.910795 
L 483.79273 -49.910795 
L 482.927077 -49.910795 
L 482.061424 -49.910795 
L 481.195771 -49.910795 
L 480.330118 -49.910795 
L 479.464464 -49.910795 
L 478.598811 -49.910795 
L 477.733158 -49.910795 
L 476.867505 -49.910795 
L 476.001852 -49.910795 
L 475.136199 -49.910795 
L 474.270546 -49.910795 
L 473.404893 -49.910795 
L 472.539239 -49.910795 
L 471.673586 -49.910795 
L 470.807933 -49.910795 
L 469.94228 -49.910795 
L 469.076627 -49.910795 
L 468.210974 -49.910795 
L 467.345321 -49.910795 
L 466.479668 -49.910795 
L 465.614015 -49.910795 
L 464.748361 -49.910795 
L 463.882708 -49.910795 
L 463.017055 -49.910795 
L 462.151402 -49.910795 
L 461.285749 -49.910795 
L 460.420096 -49.910795 
L 459.554443 -49.910795 
L 458.68879 -49.910795 
L 457.823136 -49.910795 
L 456.957483 -49.910795 
L 456.09183 -49.910795 
L 455.226177 -49.910795 
L 454.360524 -49.910795 
L 453.494871 -49.910795 
L 452.629218 -49.910795 
L 451.763565 -49.910795 
L 450.897911 -49.910795 
L 450.032258 -49.910795 
L 449.166605 -49.910795 
L 448.300952 -49.910795 
L 447.435299 -49.910795 
L 446.569646 -49.910795 
L 445.703993 -49.910795 
L 444.83834 -49.910795 
L 443.972687 -49.910795 
L 443.107033 -49.910795 
L 442.24138 -49.910795 
L 441.375727 -49.910795 
L 440.510074 -49.910795 
L 439.644421 -49.910795 
L 438.778768 -49.910795 
L 437.913115 -49.910795 
L 437.047462 -49.910795 
L 436.181808 -49.910795 
L 435.316155 -49.910795 
L 434.450502 -49.910795 
L 433.584849 -49.910795 
L 432.719196 -49.910795 
L 431.853543 -49.910795 
L 430.98789 -49.910795 
L 430.122237 -49.910795 
L 429.256584 -49.910795 
L 428.39093 -49.910795 
L 427.525277 -49.910795 
L 426.659624 -49.910795 
L 425.793971 -49.910795 
L 424.928318 -49.910795 
L 424.062665 -49.910795 
L 423.197012 -49.910795 
L 422.331359 -49.910795 
L 421.465705 -49.910795 
L 420.600052 -49.910795 
L 419.734399 -49.910795 
L 418.868746 -49.910795 
L 418.003093 -49.910795 
L 417.13744 -49.910795 
L 416.271787 -49.910795 
L 415.406134 -49.910795 
L 414.540481 -49.910795 
L 413.674827 -49.910795 
L 412.809174 -49.910795 
L 411.943521 -49.910795 
L 411.077868 -49.910795 
L 410.212215 -49.910795 
L 409.346562 -49.910795 
L 408.480909 -49.910795 
L 407.615256 -49.910795 
L 406.749602 -49.910795 
L 405.883949 -49.910795 
L 405.018296 -49.910795 
L 404.152643 -49.910795 
L 403.28699 -49.910795 
L 402.421337 -49.910795 
L 401.555684 -49.910795 
L 400.690031 -49.910795 
L 399.824378 -49.910795 
L 398.958724 -49.910795 
L 398.093071 -49.910795 
L 397.227418 -49.910795 
L 396.361765 -49.910795 
L 395.496112 -49.910795 
L 394.630459 -49.910795 
L 393.764806 -49.910795 
L 392.899153 -49.910795 
L 392.033499 -49.910795 
L 391.167846 -49.910795 
L 390.302193 -49.910795 
L 389.43654 -49.910795 
L 388.570887 -49.910795 
L 387.705234 -49.910795 
L 386.839581 -49.910795 
L 385.973928 -49.910795 
L 385.108275 -49.910795 
L 384.531172 -49.910795 
L 383.665519 -49.910795 
L 382.799866 -49.910795 
L 381.934213 -49.910795 
L 381.06856 -49.910795 
L 380.202907 -49.910795 
L 379.337254 -49.910795 
L 378.471601 -49.910795 
L 377.605947 -49.910795 
L 376.740294 -49.910795 
L 375.874641 -49.910795 
L 375.008988 -49.910795 
L 374.143335 -49.910795 
L 373.277682 -49.910795 
L 372.412029 -49.910795 
L 371.546376 -49.910795 
L 370.680723 -49.910795 
L 369.815069 -49.910795 
L 368.949416 -49.910795 
L 368.083763 -49.910795 
L 367.21811 -49.910795 
L 366.352457 -49.910795 
L 365.486804 -49.910795 
L 364.621151 -49.910795 
L 363.755498 -49.910795 
L 362.889844 -49.910795 
L 362.024191 -49.910795 
L 361.158538 -49.910795 
L 360.292885 -49.910795 
L 359.427232 -49.910795 
L 358.561579 -49.910795 
L 357.695926 -49.910795 
L 356.830273 -49.910795 
L 355.96462 -49.910795 
L 355.098966 -49.910795 
L 354.233313 -49.910795 
L 353.36766 -49.910795 
L 352.502007 -49.910795 
L 351.636354 -49.910795 
L 350.770701 -49.910795 
L 349.905048 -49.910795 
L 349.039395 -49.910795 
L 348.173741 -49.910795 
L 347.308088 -49.910795 
L 346.442435 -49.910795 
L 345.576782 -49.910795 
L 344.711129 -49.910795 
L 343.845476 -49.910795 
L 342.979823 -49.910795 
L 341.248517 -49.910795 
L 340.382863 -49.910795 
L 339.51721 -49.910795 
L 338.651557 -49.910795 
L 337.785904 -297.001705 
L 336.920251 -297.001705 
L 336.054598 -297.001705 
L 335.188945 -297.001705 
L 334.323292 -297.001705 
L 333.457638 -297.001705 
L 332.591985 -297.001705 
L 331.726332 -297.001705 
L 330.860679 -297.001705 
L 329.995026 -297.001705 
L 329.129373 -297.001705 
L 328.26372 -49.910795 
L 327.398067 -49.910795 
L 326.532414 -49.910795 
L 325.66676 -49.910795 
L 324.801107 -49.910795 
L 323.935454 -49.910795 
L 323.069801 -49.910795 
L 322.204148 -49.910795 
L 321.338495 -49.910795 
L 320.472842 -49.910795 
L 319.607189 -49.910795 
L 318.741535 -49.910795 
L 317.875882 -49.910795 
L 317.010229 -49.910795 
L 316.144576 -49.910795 
L 315.278923 -49.910795 
L 314.41327 -49.910795 
L 313.547617 -49.910795 
L 312.681964 -49.910795 
L 311.816311 -49.910795 
L 310.950657 -49.910795 
L 310.085004 -49.910795 
L 309.219351 -49.910795 
L 308.353698 -49.910795 
L 307.488045 -49.910795 
L 306.622392 -49.910795 
L 305.756739 -49.910795 
L 304.891086 -49.910795 
L 304.025432 -49.910795 
L 303.159779 -49.910795 
L 302.294126 -49.910795 
L 301.428473 -49.910795 
L 300.56282 -49.910795 
L 299.697167 -49.910795 
L 298.831514 -49.910795 
L 297.965861 -49.910795 
L 297.100207 -49.910795 
L 296.234554 -49.910795 
L 295.368901 -49.910795 
L 294.503248 -49.910795 
L 293.637595 -49.910795 
L 292.771942 -49.910795 
L 291.906289 -49.910795 
L 291.040636 -49.910795 
L 290.174983 -49.910795 
L 289.309329 -49.910795 
L 288.443676 -49.910795 
L 287.578023 -49.910795 
L 286.71237 -49.910795 
L 285.846717 -49.910795 
L 284.981064 -49.910795 
L 284.115411 -49.910795 
L 283.249758 -49.910795 
L 282.384104 -49.910795 
L 281.518451 -49.910795 
L 280.652798 -49.910795 
L 279.787145 -49.910795 
L 279.210043 -49.910795 
L 278.34439 -49.910795 
L 277.478737 -49.910795 
L 276.613084 -49.910795 
L 275.747431 -49.910795 
L 274.881777 -49.910795 
L 274.016124 -49.910795 
L 273.150471 -49.910795 
L 272.284818 -49.910795 
L 271.419165 -49.910795 
L 270.553512 -49.910795 
L 269.687859 -49.910795 
L 268.822206 -49.910795 
L 267.956553 -49.910795 
L 267.090899 -49.910795 
L 266.225246 -49.910795 
L 265.359593 -49.910795 
L 264.49394 -49.910795 
L 263.628287 -49.910795 
L 262.762634 -49.910795 
L 261.896981 -49.910795 
L 261.031328 -49.910795 
L 260.165674 -49.910795 
L 259.300021 -49.910795 
L 258.434368 -49.910795 
L 257.568715 -49.910795 
L 256.703062 -49.910795 
L 255.837409 -49.910795 
L 254.971756 -49.910795 
L 254.106103 -49.910795 
L 253.24045 -49.910795 
L 252.374796 -49.910795 
L 251.509143 -49.910795 
L 250.64349 -49.910795 
L 249.777837 -49.910795 
L 248.912184 -49.910795 
L 248.046531 -49.910795 
L 247.180878 -49.910795 
L 246.315225 -49.910795 
L 245.449571 -49.910795 
L 244.583918 -49.910795 
L 243.718265 -49.910795 
L 242.852612 -49.910795 
L 241.986959 -49.910795 
L 241.121306 -49.910795 
L 240.255653 -49.910795 
L 239.39 -49.910795 
L 238.524346 -49.910795 
L 237.658693 -49.910795 
L 236.79304 -49.910795 
L 235.927387 -49.910795 
L 235.061734 -49.910795 
L 234.196081 -49.910795 
L 233.330428 -49.910795 
L 232.464775 -49.910795 
L 231.599122 -49.910795 
L 230.733468 -49.910795 
L 229.867815 -49.910795 
L 229.002162 -49.910795 
L 228.136509 -49.910795 
L 227.270856 -49.910795 
L 226.405203 -49.910795 
L 225.53955 -49.910795 
L 224.673897 -49.910795 
L 223.808243 -49.910795 
L 222.94259 -49.910795 
L 222.076937 -49.910795 
L 221.211284 -49.910795 
L 220.345631 -49.910795 
L 219.479978 -49.910795 
L 218.614325 -49.910795 
L 217.748672 -49.910795 
L 216.883019 -49.910795 
L 216.017365 -49.910795 
L 215.151712 -49.910795 
L 214.286059 -49.910795 
L 213.420406 -49.910795 
L 212.554753 -49.910795 
L 211.6891 -49.910795 
L 210.823447 -49.910795 
L 209.957794 -49.910795 
L 209.09214 -49.910795 
L 208.226487 -49.910795 
L 207.360834 -49.910795 
L 206.495181 -49.910795 
L 205.629528 -49.910795 
L 204.763875 -49.910795 
L 203.898222 -49.910795 
L 203.032569 -49.910795 
L 202.166916 -49.910795 
L 201.301262 -49.910795 
L 200.435609 -49.910795 
L 199.569956 -49.910795 
L 198.704303 -49.910795 
L 197.83865 -49.910795 
L 196.972997 -49.910795 
L 196.107344 -49.910795 
L 195.241691 -49.910795 
L 194.376037 -49.910795 
L 193.510384 -49.910795 
L 192.644731 -49.910795 
L 191.779078 -49.910795 
L 190.913425 -49.910795 
L 190.047772 -49.910795 
L 189.182119 -49.910795 
L 188.316466 -49.910795 
L 187.450813 -49.910795 
L 186.585159 -49.910795 
L 185.719506 -49.910795 
L 184.853853 -49.910795 
L 183.9882 -49.910795 
L 182.256894 -49.910795 
L 181.391241 -49.910795 
L 180.525588 -49.910795 
L 179.659934 -49.910795 
L 178.794281 -49.910795 
L 177.928628 -49.910795 
L 177.062975 -49.910795 
L 176.197322 -49.910795 
L 175.331669 -49.910795 
L 174.466016 -49.910795 
L 173.888914 -49.910795 
L 173.023261 -49.910795 
L 172.157607 -49.910795 
L 171.291954 -49.910795 
L 170.426301 -49.910795 
L 169.560648 -49.910795 
L 168.694995 -49.910795 
L 167.829342 -49.910795 
L 166.963689 -49.910795 
L 166.098036 -49.910795 
L 165.232382 -49.910795 
L 164.366729 -49.910795 
L 163.501076 -49.910795 
L 162.635423 -49.910795 
L 161.76977 -49.910795 
L 160.904117 -49.910795 
L 160.038464 -49.910795 
L 159.172811 -49.910795 
L 158.307158 -49.910795 
L 157.441504 -49.910795 
L 156.575851 -49.910795 
L 155.710198 -49.910795 
L 154.844545 -49.910795 
L 153.978892 -49.910795 
L 153.113239 -49.910795 
L 152.247586 -49.910795 
L 151.381933 -49.910795 
L 150.516279 -49.910795 
L 149.650626 -49.910795 
L 148.784973 -49.910795 
L 147.91932 -49.910795 
L 147.053667 -49.910795 
L 146.188014 -49.910795 
L 145.322361 -49.910795 
L 144.456708 -49.910795 
L 143.591055 -49.910795 
L 142.725401 -49.910795 
L 141.859748 -49.910795 
L 140.994095 -49.910795 
L 140.128442 -49.910795 
L 139.262789 -49.910795 
L 138.397136 -49.910795 
L 137.531483 -49.910795 
L 136.66583 -49.910795 
L 135.800176 -49.910795 
L 134.934523 -49.910795 
L 134.06887 -49.910795 
L 133.203217 -49.910795 
L 132.337564 -49.910795 
L 131.471911 -49.910795 
L 130.606258 -49.910795 
L 129.740605 -49.910795 
L 128.874952 -49.910795 
L 128.009298 -49.910795 
L 127.143645 -49.910795 
L 126.277992 -49.910795 
L 125.412339 -49.910795 
L 124.546686 -49.910795 
L 123.681033 -49.910795 
L 122.81538 -49.910795 
L 121.949727 -49.910795 
L 121.084073 -49.910795 
L 120.21842 -49.910795 
L 119.352767 -49.910795 
L 118.487114 -49.910795 
L 117.621461 -49.910795 
L 115.890155 -49.910795 
L 115.024502 -49.910795 
L 114.158849 -49.910795 
L 113.293195 -49.910795 
L 112.427542 -49.910795 
L 111.561889 -49.910795 
L 110.696236 -49.910795 
L 109.830583 -49.910795 
L 108.96493 -49.910795 
L 108.099277 -49.910795 
L 107.233624 -49.910795 
L 106.36797 -49.910795 
L 105.502317 -49.910795 
L 104.636664 -49.910795 
L 103.771011 -49.910795 
L 102.905358 -49.910795 
L 102.039705 -49.910795 
L 101.174052 -49.910795 
L 100.308399 -49.910795 
L 99.442746 -49.910795 
L 98.577092 -49.910795 
L 97.711439 -49.910795 
L 96.845786 -49.910795 
L 95.980133 -49.910795 
L 95.11448 -49.910795 
L 94.248827 -49.910795 
L 93.383174 -49.910795 
L 92.517521 -49.910795 
L 91.651867 -49.910795 
L 90.786214 -49.910795 
L 89.920561 -49.910795 
L 89.054908 -49.910795 
L 87.323602 -49.910795 
L 86.457949 -49.910795 
L 85.592296 -49.910795 
L 84.726642 -49.910795 
L 83.860989 -49.910795 
L 82.995336 -49.910795 
L 82.129683 -49.910795 
L 81.26403 -49.910795 
L 80.398377 -49.910795 
L 79.532724 -49.910795 
L 78.667071 -49.910795 
L 77.801418 -49.910795 
L 76.935764 -49.910795 
L 76.070111 -49.910795 
L 75.204458 -49.910795 
L 74.338805 -49.910795 
L 73.473152 -49.910795 
L 72.607499 -49.910795 
L 71.741846 -49.910795 
L 70.876193 -49.910795 
L 70.010539 -49.910795 
L 69.144886 -49.910795 
z
" id="m8e9999f8d1" style="stroke:#808080;stroke-opacity:0.2;"/>
    </defs>
    <g clip-path="url(#p556fe02020)">
     <use style="fill:#808080;fill-opacity:0.2;stroke:#808080;stroke-opacity:0.2;" x="0" xlink:href="#m8e9999f8d1" y="352.55625"/>
    </g>
   </g>
   <g id="line2d_12">
    <path clip-path="url(#p556fe02020)" d="M 69.144886 302.645455 
L 328.26372 302.645455 
L 329.129373 55.554545 
L 337.785904 55.554545 
L 338.651557 302.645455 
L 576.417614 302.645455 
L 576.417614 302.645455 
" style="fill:none;stroke:#808080;stroke-linecap:round;stroke-width:1.5;"/>
   </g>
   <g id="patch_3">
    <path d="M 43.78125 315 
L 43.78125 43.2 
" style="fill:none;stroke:#cccccc;stroke-linecap:square;stroke-linejoin:miter;stroke-width:0.8;"/>
   </g>
   <g id="patch_4">
    <path d="M 601.78125 315 
L 601.78125 43.2 
" style="fill:none;stroke:#cccccc;stroke-linecap:square;stroke-linejoin:miter;stroke-width:0.8;"/>
   </g>
   <g id="patch_5">
    <path d="M 43.78125 315 
L 601.78125 315 
" style="fill:none;stroke:#cccccc;stroke-linecap:square;stroke-linejoin:miter;stroke-width:0.8;"/>
   </g>
   <g id="patch_6">
    <path d="M 43.78125 43.2 
L 601.78125 43.2 
" style="fill:none;stroke:#cccccc;stroke-linecap:square;stroke-linejoin:miter;stroke-width:0.8;"/>
   </g>
   <g id="text_15">
    <!-- Producto soil_moisture_am (2017-2021) -->
    <g style="fill:#262626;" transform="translate(202.993125 37.2)scale(0.12 -0.12)">
     <defs>
      <path d="M 1259 4147 
L 1259 2394 
L 2053 2394 
Q 2494 2394 2734 2622 
Q 2975 2850 2975 3272 
Q 2975 3691 2734 3919 
Q 2494 4147 2053 4147 
L 1259 4147 
z
M 628 4666 
L 2053 4666 
Q 2838 4666 3239 4311 
Q 3641 3956 3641 3272 
Q 3641 2581 3239 2228 
Q 2838 1875 2053 1875 
L 1259 1875 
L 1259 0 
L 628 0 
L 628 4666 
z
" id="DejaVuSans-50" transform="scale(0.015625)"/>
      <path d="M 3122 3366 
L 3122 2828 
Q 2878 2963 2633 3030 
Q 2388 3097 2138 3097 
Q 1578 3097 1268 2742 
Q 959 2388 959 1747 
Q 959 1106 1268 751 
Q 1578 397 2138 397 
Q 2388 397 2633 464 
Q 2878 531 3122 666 
L 3122 134 
Q 2881 22 2623 -34 
Q 2366 -91 2075 -91 
Q 1284 -91 818 406 
Q 353 903 353 1747 
Q 353 2603 823 3093 
Q 1294 3584 2113 3584 
Q 2378 3584 2631 3529 
Q 2884 3475 3122 3366 
z
" id="DejaVuSans-63" transform="scale(0.015625)"/>
      <path d="M 1172 4494 
L 1172 3500 
L 2356 3500 
L 2356 3053 
L 1172 3053 
L 1172 1153 
Q 1172 725 1289 603 
Q 1406 481 1766 481 
L 2356 481 
L 2356 0 
L 1766 0 
Q 1100 0 847 248 
Q 594 497 594 1153 
L 594 3053 
L 172 3053 
L 172 3500 
L 594 3500 
L 594 4494 
L 1172 4494 
z
" id="DejaVuSans-74" transform="scale(0.015625)"/>
      <path d="M 3263 -1063 
L 3263 -1509 
L -63 -1509 
L -63 -1063 
L 3263 -1063 
z
" id="DejaVuSans-5f" transform="scale(0.015625)"/>
      <path d="M 3328 2828 
Q 3544 3216 3844 3400 
Q 4144 3584 4550 3584 
Q 5097 3584 5394 3201 
Q 5691 2819 5691 2113 
L 5691 0 
L 5113 0 
L 5113 2094 
Q 5113 2597 4934 2840 
Q 4756 3084 4391 3084 
Q 3944 3084 3684 2787 
Q 3425 2491 3425 1978 
L 3425 0 
L 2847 0 
L 2847 2094 
Q 2847 2600 2669 2842 
Q 2491 3084 2119 3084 
Q 1678 3084 1418 2786 
Q 1159 2488 1159 1978 
L 1159 0 
L 581 0 
L 581 3500 
L 1159 3500 
L 1159 2956 
Q 1356 3278 1631 3431 
Q 1906 3584 2284 3584 
Q 2666 3584 2933 3390 
Q 3200 3197 3328 2828 
z
" id="DejaVuSans-6d" transform="scale(0.015625)"/>
      <path d="M 1984 4856 
Q 1566 4138 1362 3434 
Q 1159 2731 1159 2009 
Q 1159 1288 1364 580 
Q 1569 -128 1984 -844 
L 1484 -844 
Q 1016 -109 783 600 
Q 550 1309 550 2009 
Q 550 2706 781 3412 
Q 1013 4119 1484 4856 
L 1984 4856 
z
" id="DejaVuSans-28" transform="scale(0.015625)"/>
      <path d="M 513 4856 
L 1013 4856 
Q 1481 4119 1714 3412 
Q 1947 2706 1947 2009 
Q 1947 1309 1714 600 
Q 1481 -109 1013 -844 
L 513 -844 
Q 928 -128 1133 580 
Q 1338 1288 1338 2009 
Q 1338 2731 1133 3434 
Q 928 4138 513 4856 
z
" id="DejaVuSans-29" transform="scale(0.015625)"/>
     </defs>
     <use xlink:href="#DejaVuSans-50"/>
     <use x="58.552734" xlink:href="#DejaVuSans-72"/>
     <use x="97.416016" xlink:href="#DejaVuSans-6f"/>
     <use x="158.597656" xlink:href="#DejaVuSans-64"/>
     <use x="222.074219" xlink:href="#DejaVuSans-75"/>
     <use x="285.453125" xlink:href="#DejaVuSans-63"/>
     <use x="340.433594" xlink:href="#DejaVuSans-74"/>
     <use x="379.642578" xlink:href="#DejaVuSans-6f"/>
     <use x="440.824219" xlink:href="#DejaVuSans-20"/>
     <use x="472.611328" xlink:href="#DejaVuSans-73"/>
     <use x="524.710938" xlink:href="#DejaVuSans-6f"/>
     <use x="585.892578" xlink:href="#DejaVuSans-69"/>
     <use x="613.675781" xlink:href="#DejaVuSans-6c"/>
     <use x="641.458984" xlink:href="#DejaVuSans-5f"/>
     <use x="691.458984" xlink:href="#DejaVuSans-6d"/>
     <use x="788.871094" xlink:href="#DejaVuSans-6f"/>
     <use x="850.052734" xlink:href="#DejaVuSans-69"/>
     <use x="877.835938" xlink:href="#DejaVuSans-73"/>
     <use x="929.935547" xlink:href="#DejaVuSans-74"/>
     <use x="969.144531" xlink:href="#DejaVuSans-75"/>
     <use x="1032.523438" xlink:href="#DejaVuSans-72"/>
     <use x="1071.386719" xlink:href="#DejaVuSans-65"/>
     <use x="1132.910156" xlink:href="#DejaVuSans-5f"/>
     <use x="1182.910156" xlink:href="#DejaVuSans-61"/>
     <use x="1244.189453" xlink:href="#DejaVuSans-6d"/>
     <use x="1341.601562" xlink:href="#DejaVuSans-20"/>
     <use x="1373.388672" xlink:href="#DejaVuSans-28"/>
     <use x="1412.402344" xlink:href="#DejaVuSans-32"/>
     <use x="1476.025391" xlink:href="#DejaVuSans-30"/>
     <use x="1539.648438" xlink:href="#DejaVuSans-31"/>
     <use x="1603.271484" xlink:href="#DejaVuSans-37"/>
     <use x="1666.894531" xlink:href="#DejaVuSans-2d"/>
     <use x="1702.978516" xlink:href="#DejaVuSans-32"/>
     <use x="1766.601562" xlink:href="#DejaVuSans-30"/>
     <use x="1830.224609" xlink:href="#DejaVuSans-32"/>
     <use x="1893.847656" xlink:href="#DejaVuSans-31"/>
     <use x="1957.470703" xlink:href="#DejaVuSans-29"/>
    </g>
   </g>
   <g id="legend_1">
    <g id="patch_7">
     <path d="M 588.58125 58.8 
L 593.38125 58.8 
Q 595.78125 58.8 595.78125 56.4 
L 595.78125 51.6 
Q 595.78125 49.2 593.38125 49.2 
L 588.58125 49.2 
Q 586.18125 49.2 586.18125 51.6 
L 586.18125 56.4 
Q 586.18125 58.8 588.58125 58.8 
z
" style="fill:#ffffff;opacity:0.8;stroke:#cccccc;stroke-linejoin:miter;"/>
    </g>
   </g>
  </g>
  <g id="text_16">
   <!-- Humedad superficial del suelo (SMAP) para Itapúa (Paraguay) -->
   <g style="fill:#262626;" transform="translate(91.300125 18.71775)scale(0.144 -0.144)">
    <defs>
     <path d="M 628 4666 
L 1259 4666 
L 1259 2753 
L 3553 2753 
L 3553 4666 
L 4184 4666 
L 4184 0 
L 3553 0 
L 3553 2222 
L 1259 2222 
L 1259 0 
L 628 0 
L 628 4666 
z
" id="DejaVuSans-48" transform="scale(0.015625)"/>
     <path d="M 1159 525 
L 1159 -1331 
L 581 -1331 
L 581 3500 
L 1159 3500 
L 1159 2969 
Q 1341 3281 1617 3432 
Q 1894 3584 2278 3584 
Q 2916 3584 3314 3078 
Q 3713 2572 3713 1747 
Q 3713 922 3314 415 
Q 2916 -91 2278 -91 
Q 1894 -91 1617 61 
Q 1341 213 1159 525 
z
M 3116 1747 
Q 3116 2381 2855 2742 
Q 2594 3103 2138 3103 
Q 1681 3103 1420 2742 
Q 1159 2381 1159 1747 
Q 1159 1113 1420 752 
Q 1681 391 2138 391 
Q 2594 391 2855 752 
Q 3116 1113 3116 1747 
z
" id="DejaVuSans-70" transform="scale(0.015625)"/>
     <path d="M 2375 4863 
L 2375 4384 
L 1825 4384 
Q 1516 4384 1395 4259 
Q 1275 4134 1275 3809 
L 1275 3500 
L 2222 3500 
L 2222 3053 
L 1275 3053 
L 1275 0 
L 697 0 
L 697 3053 
L 147 3053 
L 147 3500 
L 697 3500 
L 697 3744 
Q 697 4328 969 4595 
Q 1241 4863 1831 4863 
L 2375 4863 
z
" id="DejaVuSans-66" transform="scale(0.015625)"/>
     <path d="M 3425 4513 
L 3425 3897 
Q 3066 4069 2747 4153 
Q 2428 4238 2131 4238 
Q 1616 4238 1336 4038 
Q 1056 3838 1056 3469 
Q 1056 3159 1242 3001 
Q 1428 2844 1947 2747 
L 2328 2669 
Q 3034 2534 3370 2195 
Q 3706 1856 3706 1288 
Q 3706 609 3251 259 
Q 2797 -91 1919 -91 
Q 1588 -91 1214 -16 
Q 841 59 441 206 
L 441 856 
Q 825 641 1194 531 
Q 1563 422 1919 422 
Q 2459 422 2753 634 
Q 3047 847 3047 1241 
Q 3047 1584 2836 1778 
Q 2625 1972 2144 2069 
L 1759 2144 
Q 1053 2284 737 2584 
Q 422 2884 422 3419 
Q 422 4038 858 4394 
Q 1294 4750 2059 4750 
Q 2388 4750 2728 4690 
Q 3069 4631 3425 4513 
z
" id="DejaVuSans-53" transform="scale(0.015625)"/>
     <path d="M 628 4666 
L 1259 4666 
L 1259 0 
L 628 0 
L 628 4666 
z
" id="DejaVuSans-49" transform="scale(0.015625)"/>
     <path d="M 544 1381 
L 544 3500 
L 1119 3500 
L 1119 1403 
Q 1119 906 1312 657 
Q 1506 409 1894 409 
Q 2359 409 2629 706 
Q 2900 1003 2900 1516 
L 2900 3500 
L 3475 3500 
L 3475 0 
L 2900 0 
L 2900 538 
Q 2691 219 2414 64 
Q 2138 -91 1772 -91 
Q 1169 -91 856 284 
Q 544 659 544 1381 
z
M 1991 3584 
L 1991 3584 
z
M 2418 5119 
L 3040 5119 
L 2022 3944 
L 1543 3944 
L 2418 5119 
z
" id="DejaVuSans-fa" transform="scale(0.015625)"/>
    </defs>
    <use xlink:href="#DejaVuSans-48"/>
    <use x="75.195312" xlink:href="#DejaVuSans-75"/>
    <use x="138.574219" xlink:href="#DejaVuSans-6d"/>
    <use x="235.986328" xlink:href="#DejaVuSans-65"/>
    <use x="297.509766" xlink:href="#DejaVuSans-64"/>
    <use x="360.986328" xlink:href="#DejaVuSans-61"/>
    <use x="422.265625" xlink:href="#DejaVuSans-64"/>
    <use x="485.742188" xlink:href="#DejaVuSans-20"/>
    <use x="517.529297" xlink:href="#DejaVuSans-73"/>
    <use x="569.628906" xlink:href="#DejaVuSans-75"/>
    <use x="633.007812" xlink:href="#DejaVuSans-70"/>
    <use x="696.484375" xlink:href="#DejaVuSans-65"/>
    <use x="758.007812" xlink:href="#DejaVuSans-72"/>
    <use x="799.121094" xlink:href="#DejaVuSans-66"/>
    <use x="834.326172" xlink:href="#DejaVuSans-69"/>
    <use x="862.109375" xlink:href="#DejaVuSans-63"/>
    <use x="917.089844" xlink:href="#DejaVuSans-69"/>
    <use x="944.873047" xlink:href="#DejaVuSans-61"/>
    <use x="1006.152344" xlink:href="#DejaVuSans-6c"/>
    <use x="1033.935547" xlink:href="#DejaVuSans-20"/>
    <use x="1065.722656" xlink:href="#DejaVuSans-64"/>
    <use x="1129.199219" xlink:href="#DejaVuSans-65"/>
    <use x="1190.722656" xlink:href="#DejaVuSans-6c"/>
    <use x="1218.505859" xlink:href="#DejaVuSans-20"/>
    <use x="1250.292969" xlink:href="#DejaVuSans-73"/>
    <use x="1302.392578" xlink:href="#DejaVuSans-75"/>
    <use x="1365.771484" xlink:href="#DejaVuSans-65"/>
    <use x="1427.294922" xlink:href="#DejaVuSans-6c"/>
    <use x="1455.078125" xlink:href="#DejaVuSans-6f"/>
    <use x="1516.259766" xlink:href="#DejaVuSans-20"/>
    <use x="1548.046875" xlink:href="#DejaVuSans-28"/>
    <use x="1587.060547" xlink:href="#DejaVuSans-53"/>
    <use x="1650.537109" xlink:href="#DejaVuSans-4d"/>
    <use x="1736.816406" xlink:href="#DejaVuSans-41"/>
    <use x="1805.224609" xlink:href="#DejaVuSans-50"/>
    <use x="1865.527344" xlink:href="#DejaVuSans-29"/>
    <use x="1904.541016" xlink:href="#DejaVuSans-20"/>
    <use x="1936.328125" xlink:href="#DejaVuSans-70"/>
    <use x="1999.804688" xlink:href="#DejaVuSans-61"/>
    <use x="2061.083984" xlink:href="#DejaVuSans-72"/>
    <use x="2102.197266" xlink:href="#DejaVuSans-61"/>
    <use x="2163.476562" xlink:href="#DejaVuSans-20"/>
    <use x="2195.263672" xlink:href="#DejaVuSans-49"/>
    <use x="2224.755859" xlink:href="#DejaVuSans-74"/>
    <use x="2263.964844" xlink:href="#DejaVuSans-61"/>
    <use x="2325.244141" xlink:href="#DejaVuSans-70"/>
    <use x="2388.720703" xlink:href="#DejaVuSans-fa"/>
    <use x="2452.099609" xlink:href="#DejaVuSans-61"/>
    <use x="2513.378906" xlink:href="#DejaVuSans-20"/>
    <use x="2545.166016" xlink:href="#DejaVuSans-28"/>
    <use x="2584.179688" xlink:href="#DejaVuSans-50"/>
    <use x="2639.982422" xlink:href="#DejaVuSans-61"/>
    <use x="2701.261719" xlink:href="#DejaVuSans-72"/>
    <use x="2742.375" xlink:href="#DejaVuSans-61"/>
    <use x="2803.654297" xlink:href="#DejaVuSans-67"/>
    <use x="2867.130859" xlink:href="#DejaVuSans-75"/>
    <use x="2930.509766" xlink:href="#DejaVuSans-61"/>
    <use x="2991.789062" xlink:href="#DejaVuSans-79"/>
    <use x="3050.96875" xlink:href="#DejaVuSans-29"/>
   </g>
  </g>
 </g>
 <defs>
  <clipPath id="p556fe02020">
   <rect height="271.8" width="558" x="43.78125" y="43.2"/>
  </clipPath>
 </defs>
</svg>
