<?xml version="1.0" encoding="utf-8" standalone="no"?>
<!DOCTYPE svg PUBLIC "-//W3C//DTD SVG 1.1//EN"
  "http://www.w3.org/Graphics/SVG/1.1/DTD/svg11.dtd">
<svg height="352.55625pt" version="1.1" viewBox="0 0 612.165625 352.55625" width="612.165625pt" xmlns="http://www.w3.org/2000/svg" xmlns:xlink="http://www.w3.org/1999/xlink">
 <metadata>
  <rdf:RDF xmlns:cc="http://creativecommons.org/ns#" xmlns:dc="http://purl.org/dc/elements/1.1/" xmlns:rdf="http://www.w3.org/1999/02/22-rdf-syntax-ns#">
   <cc:Work>
    <dc:type rdf:resource="http://purl.org/dc/dcmitype/StillImage"/>
    <dc:date>2022-05-30T17:05:08.655693</dc:date>
    <dc:format>image/svg+xml</dc:format>
    <dc:creator>
     <cc:Agent>
      <dc:title>Matplotlib v3.4.3, https://matplotlib.org/</dc:title>
     </cc:Agent>
    </dc:creator>
   </cc:Work>
  </rdf:RDF>
 </metadata>
 <defs>
  <style type="text/css">*{stroke-linecap:butt;stroke-linejoin:round;}</style>
 </defs>
 <g id="figure_1">
  <g id="patch_1">
   <path d="M 0 352.55625 
L 612.165625 352.55625 
L 612.165625 0 
L 0 0 
z
" style="fill:#ffffff;"/>
  </g>
  <g id="axes_1">
   <g id="patch_2">
    <path d="M 46.965625 315 
L 604.965625 315 
L 604.965625 43.2 
L 46.965625 43.2 
z
" style="fill:#ffffff;"/>
   </g>
   <g id="matplotlib.axis_1">
    <g id="xtick_1">
     <g id="line2d_1">
      <path clip-path="url(#p0d2f4010a7)" d="M 97.135455 315 
L 97.135455 43.2 
" style="fill:none;stroke:#cccccc;stroke-linecap:round;stroke-width:0.8;"/>
     </g>
     <g id="text_1">
      <!-- Apr-2017 -->
      <g style="fill:#262626;" transform="translate(74.275299 329.598437)scale(0.1 -0.1)">
       <defs>
        <path d="M 2188 4044 
L 1331 1722 
L 3047 1722 
L 2188 4044 
z
M 1831 4666 
L 2547 4666 
L 4325 0 
L 3669 0 
L 3244 1197 
L 1141 1197 
L 716 0 
L 50 0 
L 1831 4666 
z
" id="DejaVuSans-41" transform="scale(0.015625)"/>
        <path d="M 1159 525 
L 1159 -1331 
L 581 -1331 
L 581 3500 
L 1159 3500 
L 1159 2969 
Q 1341 3281 1617 3432 
Q 1894 3584 2278 3584 
Q 2916 3584 3314 3078 
Q 3713 2572 3713 1747 
Q 3713 922 3314 415 
Q 2916 -91 2278 -91 
Q 1894 -91 1617 61 
Q 1341 213 1159 525 
z
M 3116 1747 
Q 3116 2381 2855 2742 
Q 2594 3103 2138 3103 
Q 1681 3103 1420 2742 
Q 1159 2381 1159 1747 
Q 1159 1113 1420 752 
Q 1681 391 2138 391 
Q 2594 391 2855 752 
Q 3116 1113 3116 1747 
z
" id="DejaVuSans-70" transform="scale(0.015625)"/>
        <path d="M 2631 2963 
Q 2534 3019 2420 3045 
Q 2306 3072 2169 3072 
Q 1681 3072 1420 2755 
Q 1159 2438 1159 1844 
L 1159 0 
L 581 0 
L 581 3500 
L 1159 3500 
L 1159 2956 
Q 1341 3275 1631 3429 
Q 1922 3584 2338 3584 
Q 2397 3584 2469 3576 
Q 2541 3569 2628 3553 
L 2631 2963 
z
" id="DejaVuSans-72" transform="scale(0.015625)"/>
        <path d="M 313 2009 
L 1997 2009 
L 1997 1497 
L 313 1497 
L 313 2009 
z
" id="DejaVuSans-2d" transform="scale(0.015625)"/>
        <path d="M 1228 531 
L 3431 531 
L 3431 0 
L 469 0 
L 469 531 
Q 828 903 1448 1529 
Q 2069 2156 2228 2338 
Q 2531 2678 2651 2914 
Q 2772 3150 2772 3378 
Q 2772 3750 2511 3984 
Q 2250 4219 1831 4219 
Q 1534 4219 1204 4116 
Q 875 4013 500 3803 
L 500 4441 
Q 881 4594 1212 4672 
Q 1544 4750 1819 4750 
Q 2544 4750 2975 4387 
Q 3406 4025 3406 3419 
Q 3406 3131 3298 2873 
Q 3191 2616 2906 2266 
Q 2828 2175 2409 1742 
Q 1991 1309 1228 531 
z
" id="DejaVuSans-32" transform="scale(0.015625)"/>
        <path d="M 2034 4250 
Q 1547 4250 1301 3770 
Q 1056 3291 1056 2328 
Q 1056 1369 1301 889 
Q 1547 409 2034 409 
Q 2525 409 2770 889 
Q 3016 1369 3016 2328 
Q 3016 3291 2770 3770 
Q 2525 4250 2034 4250 
z
M 2034 4750 
Q 2819 4750 3233 4129 
Q 3647 3509 3647 2328 
Q 3647 1150 3233 529 
Q 2819 -91 2034 -91 
Q 1250 -91 836 529 
Q 422 1150 422 2328 
Q 422 3509 836 4129 
Q 1250 4750 2034 4750 
z
" id="DejaVuSans-30" transform="scale(0.015625)"/>
        <path d="M 794 531 
L 1825 531 
L 1825 4091 
L 703 3866 
L 703 4441 
L 1819 4666 
L 2450 4666 
L 2450 531 
L 3481 531 
L 3481 0 
L 794 0 
L 794 531 
z
" id="DejaVuSans-31" transform="scale(0.015625)"/>
        <path d="M 525 4666 
L 3525 4666 
L 3525 4397 
L 1831 0 
L 1172 0 
L 2766 4134 
L 525 4134 
L 525 4666 
z
" id="DejaVuSans-37" transform="scale(0.015625)"/>
       </defs>
       <use xlink:href="#DejaVuSans-41"/>
       <use x="68.408203" xlink:href="#DejaVuSans-70"/>
       <use x="131.884766" xlink:href="#DejaVuSans-72"/>
       <use x="166.623047" xlink:href="#DejaVuSans-2d"/>
       <use x="202.707031" xlink:href="#DejaVuSans-32"/>
       <use x="266.330078" xlink:href="#DejaVuSans-30"/>
       <use x="329.953125" xlink:href="#DejaVuSans-31"/>
       <use x="393.576172" xlink:href="#DejaVuSans-37"/>
      </g>
     </g>
    </g>
    <g id="xtick_2">
     <g id="line2d_2">
      <path clip-path="url(#p0d2f4010a7)" d="M 198.868722 315 
L 198.868722 43.2 
" style="fill:none;stroke:#cccccc;stroke-linecap:round;stroke-width:0.8;"/>
     </g>
     <g id="text_2">
      <!-- Apr-2018 -->
      <g style="fill:#262626;" transform="translate(176.008566 329.598437)scale(0.1 -0.1)">
       <defs>
        <path d="M 2034 2216 
Q 1584 2216 1326 1975 
Q 1069 1734 1069 1313 
Q 1069 891 1326 650 
Q 1584 409 2034 409 
Q 2484 409 2743 651 
Q 3003 894 3003 1313 
Q 3003 1734 2745 1975 
Q 2488 2216 2034 2216 
z
M 1403 2484 
Q 997 2584 770 2862 
Q 544 3141 544 3541 
Q 544 4100 942 4425 
Q 1341 4750 2034 4750 
Q 2731 4750 3128 4425 
Q 3525 4100 3525 3541 
Q 3525 3141 3298 2862 
Q 3072 2584 2669 2484 
Q 3125 2378 3379 2068 
Q 3634 1759 3634 1313 
Q 3634 634 3220 271 
Q 2806 -91 2034 -91 
Q 1263 -91 848 271 
Q 434 634 434 1313 
Q 434 1759 690 2068 
Q 947 2378 1403 2484 
z
M 1172 3481 
Q 1172 3119 1398 2916 
Q 1625 2713 2034 2713 
Q 2441 2713 2670 2916 
Q 2900 3119 2900 3481 
Q 2900 3844 2670 4047 
Q 2441 4250 2034 4250 
Q 1625 4250 1398 4047 
Q 1172 3844 1172 3481 
z
" id="DejaVuSans-38" transform="scale(0.015625)"/>
       </defs>
       <use xlink:href="#DejaVuSans-41"/>
       <use x="68.408203" xlink:href="#DejaVuSans-70"/>
       <use x="131.884766" xlink:href="#DejaVuSans-72"/>
       <use x="166.623047" xlink:href="#DejaVuSans-2d"/>
       <use x="202.707031" xlink:href="#DejaVuSans-32"/>
       <use x="266.330078" xlink:href="#DejaVuSans-30"/>
       <use x="329.953125" xlink:href="#DejaVuSans-31"/>
       <use x="393.576172" xlink:href="#DejaVuSans-38"/>
      </g>
     </g>
    </g>
    <g id="xtick_3">
     <g id="line2d_3">
      <path clip-path="url(#p0d2f4010a7)" d="M 300.601989 315 
L 300.601989 43.2 
" style="fill:none;stroke:#cccccc;stroke-linecap:round;stroke-width:0.8;"/>
     </g>
     <g id="text_3">
      <!-- Apr-2019 -->
      <g style="fill:#262626;" transform="translate(277.741832 329.598437)scale(0.1 -0.1)">
       <defs>
        <path d="M 703 97 
L 703 672 
Q 941 559 1184 500 
Q 1428 441 1663 441 
Q 2288 441 2617 861 
Q 2947 1281 2994 2138 
Q 2813 1869 2534 1725 
Q 2256 1581 1919 1581 
Q 1219 1581 811 2004 
Q 403 2428 403 3163 
Q 403 3881 828 4315 
Q 1253 4750 1959 4750 
Q 2769 4750 3195 4129 
Q 3622 3509 3622 2328 
Q 3622 1225 3098 567 
Q 2575 -91 1691 -91 
Q 1453 -91 1209 -44 
Q 966 3 703 97 
z
M 1959 2075 
Q 2384 2075 2632 2365 
Q 2881 2656 2881 3163 
Q 2881 3666 2632 3958 
Q 2384 4250 1959 4250 
Q 1534 4250 1286 3958 
Q 1038 3666 1038 3163 
Q 1038 2656 1286 2365 
Q 1534 2075 1959 2075 
z
" id="DejaVuSans-39" transform="scale(0.015625)"/>
       </defs>
       <use xlink:href="#DejaVuSans-41"/>
       <use x="68.408203" xlink:href="#DejaVuSans-70"/>
       <use x="131.884766" xlink:href="#DejaVuSans-72"/>
       <use x="166.623047" xlink:href="#DejaVuSans-2d"/>
       <use x="202.707031" xlink:href="#DejaVuSans-32"/>
       <use x="266.330078" xlink:href="#DejaVuSans-30"/>
       <use x="329.953125" xlink:href="#DejaVuSans-31"/>
       <use x="393.576172" xlink:href="#DejaVuSans-39"/>
      </g>
     </g>
    </g>
    <g id="xtick_4">
     <g id="line2d_4">
      <path clip-path="url(#p0d2f4010a7)" d="M 402.613977 315 
L 402.613977 43.2 
" style="fill:none;stroke:#cccccc;stroke-linecap:round;stroke-width:0.8;"/>
     </g>
     <g id="text_4">
      <!-- Apr-2020 -->
      <g style="fill:#262626;" transform="translate(379.75382 329.598437)scale(0.1 -0.1)">
       <use xlink:href="#DejaVuSans-41"/>
       <use x="68.408203" xlink:href="#DejaVuSans-70"/>
       <use x="131.884766" xlink:href="#DejaVuSans-72"/>
       <use x="166.623047" xlink:href="#DejaVuSans-2d"/>
       <use x="202.707031" xlink:href="#DejaVuSans-32"/>
       <use x="266.330078" xlink:href="#DejaVuSans-30"/>
       <use x="329.953125" xlink:href="#DejaVuSans-32"/>
       <use x="393.576172" xlink:href="#DejaVuSans-30"/>
      </g>
     </g>
    </g>
    <g id="xtick_5">
     <g id="line2d_5">
      <path clip-path="url(#p0d2f4010a7)" d="M 504.347243 315 
L 504.347243 43.2 
" style="fill:none;stroke:#cccccc;stroke-linecap:round;stroke-width:0.8;"/>
     </g>
     <g id="text_5">
      <!-- Apr-2021 -->
      <g style="fill:#262626;" transform="translate(481.487087 329.598437)scale(0.1 -0.1)">
       <use xlink:href="#DejaVuSans-41"/>
       <use x="68.408203" xlink:href="#DejaVuSans-70"/>
       <use x="131.884766" xlink:href="#DejaVuSans-72"/>
       <use x="166.623047" xlink:href="#DejaVuSans-2d"/>
       <use x="202.707031" xlink:href="#DejaVuSans-32"/>
       <use x="266.330078" xlink:href="#DejaVuSans-30"/>
       <use x="329.953125" xlink:href="#DejaVuSans-32"/>
       <use x="393.576172" xlink:href="#DejaVuSans-31"/>
      </g>
     </g>
    </g>
    <g id="text_6">
     <!-- Mes - Año -->
     <g style="fill:#262626;" transform="translate(301.339844 343.276562)scale(0.1 -0.1)">
      <defs>
       <path d="M 628 4666 
L 1569 4666 
L 2759 1491 
L 3956 4666 
L 4897 4666 
L 4897 0 
L 4281 0 
L 4281 4097 
L 3078 897 
L 2444 897 
L 1241 4097 
L 1241 0 
L 628 0 
L 628 4666 
z
" id="DejaVuSans-4d" transform="scale(0.015625)"/>
       <path d="M 3597 1894 
L 3597 1613 
L 953 1613 
Q 991 1019 1311 708 
Q 1631 397 2203 397 
Q 2534 397 2845 478 
Q 3156 559 3463 722 
L 3463 178 
Q 3153 47 2828 -22 
Q 2503 -91 2169 -91 
Q 1331 -91 842 396 
Q 353 884 353 1716 
Q 353 2575 817 3079 
Q 1281 3584 2069 3584 
Q 2775 3584 3186 3129 
Q 3597 2675 3597 1894 
z
M 3022 2063 
Q 3016 2534 2758 2815 
Q 2500 3097 2075 3097 
Q 1594 3097 1305 2825 
Q 1016 2553 972 2059 
L 3022 2063 
z
" id="DejaVuSans-65" transform="scale(0.015625)"/>
       <path d="M 2834 3397 
L 2834 2853 
Q 2591 2978 2328 3040 
Q 2066 3103 1784 3103 
Q 1356 3103 1142 2972 
Q 928 2841 928 2578 
Q 928 2378 1081 2264 
Q 1234 2150 1697 2047 
L 1894 2003 
Q 2506 1872 2764 1633 
Q 3022 1394 3022 966 
Q 3022 478 2636 193 
Q 2250 -91 1575 -91 
Q 1294 -91 989 -36 
Q 684 19 347 128 
L 347 722 
Q 666 556 975 473 
Q 1284 391 1588 391 
Q 1994 391 2212 530 
Q 2431 669 2431 922 
Q 2431 1156 2273 1281 
Q 2116 1406 1581 1522 
L 1381 1569 
Q 847 1681 609 1914 
Q 372 2147 372 2553 
Q 372 3047 722 3315 
Q 1072 3584 1716 3584 
Q 2034 3584 2315 3537 
Q 2597 3491 2834 3397 
z
" id="DejaVuSans-73" transform="scale(0.015625)"/>
       <path id="DejaVuSans-20" transform="scale(0.015625)"/>
       <path d="M 3513 2113 
L 3513 0 
L 2938 0 
L 2938 2094 
Q 2938 2591 2744 2837 
Q 2550 3084 2163 3084 
Q 1697 3084 1428 2787 
Q 1159 2491 1159 1978 
L 1159 0 
L 581 0 
L 581 3500 
L 1159 3500 
L 1159 2956 
Q 1366 3272 1645 3428 
Q 1925 3584 2291 3584 
Q 2894 3584 3203 3211 
Q 3513 2838 3513 2113 
z
M 2060 4281 
L 1881 4453 
Q 1813 4516 1761 4545 
Q 1710 4575 1669 4575 
Q 1550 4575 1494 4461 
Q 1438 4347 1431 4091 
L 1041 4091 
Q 1047 4513 1206 4742 
Q 1366 4972 1650 4972 
Q 1769 4972 1869 4928 
Q 1969 4884 2085 4781 
L 2263 4609 
Q 2331 4547 2383 4517 
Q 2435 4488 2475 4488 
Q 2594 4488 2650 4602 
Q 2706 4716 2713 4972 
L 3103 4972 
Q 3097 4550 2937 4320 
Q 2778 4091 2494 4091 
Q 2375 4091 2275 4134 
Q 2175 4178 2060 4281 
z
" id="DejaVuSans-f1" transform="scale(0.015625)"/>
       <path d="M 1959 3097 
Q 1497 3097 1228 2736 
Q 959 2375 959 1747 
Q 959 1119 1226 758 
Q 1494 397 1959 397 
Q 2419 397 2687 759 
Q 2956 1122 2956 1747 
Q 2956 2369 2687 2733 
Q 2419 3097 1959 3097 
z
M 1959 3584 
Q 2709 3584 3137 3096 
Q 3566 2609 3566 1747 
Q 3566 888 3137 398 
Q 2709 -91 1959 -91 
Q 1206 -91 779 398 
Q 353 888 353 1747 
Q 353 2609 779 3096 
Q 1206 3584 1959 3584 
z
" id="DejaVuSans-6f" transform="scale(0.015625)"/>
      </defs>
      <use xlink:href="#DejaVuSans-4d"/>
      <use x="86.279297" xlink:href="#DejaVuSans-65"/>
      <use x="147.802734" xlink:href="#DejaVuSans-73"/>
      <use x="199.902344" xlink:href="#DejaVuSans-20"/>
      <use x="231.689453" xlink:href="#DejaVuSans-2d"/>
      <use x="267.773438" xlink:href="#DejaVuSans-20"/>
      <use x="299.560547" xlink:href="#DejaVuSans-41"/>
      <use x="367.96875" xlink:href="#DejaVuSans-f1"/>
      <use x="431.347656" xlink:href="#DejaVuSans-6f"/>
     </g>
    </g>
   </g>
   <g id="matplotlib.axis_2">
    <g id="ytick_1">
     <g id="line2d_6">
      <path clip-path="url(#p0d2f4010a7)" d="M 46.965625 302.768072 
L 604.965625 302.768072 
" style="fill:none;stroke:#cccccc;stroke-linecap:round;stroke-width:0.8;"/>
     </g>
     <g id="text_7">
      <!-- 0 -->
      <g style="fill:#262626;" transform="translate(33.603125 306.567291)scale(0.1 -0.1)">
       <use xlink:href="#DejaVuSans-30"/>
      </g>
     </g>
    </g>
    <g id="ytick_2">
     <g id="line2d_7">
      <path clip-path="url(#p0d2f4010a7)" d="M 46.965625 253.325367 
L 604.965625 253.325367 
" style="fill:none;stroke:#cccccc;stroke-linecap:round;stroke-width:0.8;"/>
     </g>
     <g id="text_8">
      <!-- 20 -->
      <g style="fill:#262626;" transform="translate(27.240625 257.124586)scale(0.1 -0.1)">
       <use xlink:href="#DejaVuSans-32"/>
       <use x="63.623047" xlink:href="#DejaVuSans-30"/>
      </g>
     </g>
    </g>
    <g id="ytick_3">
     <g id="line2d_8">
      <path clip-path="url(#p0d2f4010a7)" d="M 46.965625 203.882662 
L 604.965625 203.882662 
" style="fill:none;stroke:#cccccc;stroke-linecap:round;stroke-width:0.8;"/>
     </g>
     <g id="text_9">
      <!-- 40 -->
      <g style="fill:#262626;" transform="translate(27.240625 207.68188)scale(0.1 -0.1)">
       <defs>
        <path d="M 2419 4116 
L 825 1625 
L 2419 1625 
L 2419 4116 
z
M 2253 4666 
L 3047 4666 
L 3047 1625 
L 3713 1625 
L 3713 1100 
L 3047 1100 
L 3047 0 
L 2419 0 
L 2419 1100 
L 313 1100 
L 313 1709 
L 2253 4666 
z
" id="DejaVuSans-34" transform="scale(0.015625)"/>
       </defs>
       <use xlink:href="#DejaVuSans-34"/>
       <use x="63.623047" xlink:href="#DejaVuSans-30"/>
      </g>
     </g>
    </g>
    <g id="ytick_4">
     <g id="line2d_9">
      <path clip-path="url(#p0d2f4010a7)" d="M 46.965625 154.439956 
L 604.965625 154.439956 
" style="fill:none;stroke:#cccccc;stroke-linecap:round;stroke-width:0.8;"/>
     </g>
     <g id="text_10">
      <!-- 60 -->
      <g style="fill:#262626;" transform="translate(27.240625 158.239175)scale(0.1 -0.1)">
       <defs>
        <path d="M 2113 2584 
Q 1688 2584 1439 2293 
Q 1191 2003 1191 1497 
Q 1191 994 1439 701 
Q 1688 409 2113 409 
Q 2538 409 2786 701 
Q 3034 994 3034 1497 
Q 3034 2003 2786 2293 
Q 2538 2584 2113 2584 
z
M 3366 4563 
L 3366 3988 
Q 3128 4100 2886 4159 
Q 2644 4219 2406 4219 
Q 1781 4219 1451 3797 
Q 1122 3375 1075 2522 
Q 1259 2794 1537 2939 
Q 1816 3084 2150 3084 
Q 2853 3084 3261 2657 
Q 3669 2231 3669 1497 
Q 3669 778 3244 343 
Q 2819 -91 2113 -91 
Q 1303 -91 875 529 
Q 447 1150 447 2328 
Q 447 3434 972 4092 
Q 1497 4750 2381 4750 
Q 2619 4750 2861 4703 
Q 3103 4656 3366 4563 
z
" id="DejaVuSans-36" transform="scale(0.015625)"/>
       </defs>
       <use xlink:href="#DejaVuSans-36"/>
       <use x="63.623047" xlink:href="#DejaVuSans-30"/>
      </g>
     </g>
    </g>
    <g id="ytick_5">
     <g id="line2d_10">
      <path clip-path="url(#p0d2f4010a7)" d="M 46.965625 104.997251 
L 604.965625 104.997251 
" style="fill:none;stroke:#cccccc;stroke-linecap:round;stroke-width:0.8;"/>
     </g>
     <g id="text_11">
      <!-- 80 -->
      <g style="fill:#262626;" transform="translate(27.240625 108.79647)scale(0.1 -0.1)">
       <use xlink:href="#DejaVuSans-38"/>
       <use x="63.623047" xlink:href="#DejaVuSans-30"/>
      </g>
     </g>
    </g>
    <g id="ytick_6">
     <g id="line2d_11">
      <path clip-path="url(#p0d2f4010a7)" d="M 46.965625 55.554545 
L 604.965625 55.554545 
" style="fill:none;stroke:#cccccc;stroke-linecap:round;stroke-width:0.8;"/>
     </g>
     <g id="text_12">
      <!-- 100 -->
      <g style="fill:#262626;" transform="translate(20.878125 59.353764)scale(0.1 -0.1)">
       <use xlink:href="#DejaVuSans-31"/>
       <use x="63.623047" xlink:href="#DejaVuSans-30"/>
       <use x="127.246094" xlink:href="#DejaVuSans-30"/>
      </g>
     </g>
    </g>
    <g id="text_13">
     <!-- Mediana y Rango de Percentile -->
     <g style="fill:#262626;" transform="translate(14.798438 256.407812)rotate(-90)scale(0.1 -0.1)">
      <defs>
       <path d="M 2906 2969 
L 2906 4863 
L 3481 4863 
L 3481 0 
L 2906 0 
L 2906 525 
Q 2725 213 2448 61 
Q 2172 -91 1784 -91 
Q 1150 -91 751 415 
Q 353 922 353 1747 
Q 353 2572 751 3078 
Q 1150 3584 1784 3584 
Q 2172 3584 2448 3432 
Q 2725 3281 2906 2969 
z
M 947 1747 
Q 947 1113 1208 752 
Q 1469 391 1925 391 
Q 2381 391 2643 752 
Q 2906 1113 2906 1747 
Q 2906 2381 2643 2742 
Q 2381 3103 1925 3103 
Q 1469 3103 1208 2742 
Q 947 2381 947 1747 
z
" id="DejaVuSans-64" transform="scale(0.015625)"/>
       <path d="M 603 3500 
L 1178 3500 
L 1178 0 
L 603 0 
L 603 3500 
z
M 603 4863 
L 1178 4863 
L 1178 4134 
L 603 4134 
L 603 4863 
z
" id="DejaVuSans-69" transform="scale(0.015625)"/>
       <path d="M 2194 1759 
Q 1497 1759 1228 1600 
Q 959 1441 959 1056 
Q 959 750 1161 570 
Q 1363 391 1709 391 
Q 2188 391 2477 730 
Q 2766 1069 2766 1631 
L 2766 1759 
L 2194 1759 
z
M 3341 1997 
L 3341 0 
L 2766 0 
L 2766 531 
Q 2569 213 2275 61 
Q 1981 -91 1556 -91 
Q 1019 -91 701 211 
Q 384 513 384 1019 
Q 384 1609 779 1909 
Q 1175 2209 1959 2209 
L 2766 2209 
L 2766 2266 
Q 2766 2663 2505 2880 
Q 2244 3097 1772 3097 
Q 1472 3097 1187 3025 
Q 903 2953 641 2809 
L 641 3341 
Q 956 3463 1253 3523 
Q 1550 3584 1831 3584 
Q 2591 3584 2966 3190 
Q 3341 2797 3341 1997 
z
" id="DejaVuSans-61" transform="scale(0.015625)"/>
       <path d="M 3513 2113 
L 3513 0 
L 2938 0 
L 2938 2094 
Q 2938 2591 2744 2837 
Q 2550 3084 2163 3084 
Q 1697 3084 1428 2787 
Q 1159 2491 1159 1978 
L 1159 0 
L 581 0 
L 581 3500 
L 1159 3500 
L 1159 2956 
Q 1366 3272 1645 3428 
Q 1925 3584 2291 3584 
Q 2894 3584 3203 3211 
Q 3513 2838 3513 2113 
z
" id="DejaVuSans-6e" transform="scale(0.015625)"/>
       <path d="M 2059 -325 
Q 1816 -950 1584 -1140 
Q 1353 -1331 966 -1331 
L 506 -1331 
L 506 -850 
L 844 -850 
Q 1081 -850 1212 -737 
Q 1344 -625 1503 -206 
L 1606 56 
L 191 3500 
L 800 3500 
L 1894 763 
L 2988 3500 
L 3597 3500 
L 2059 -325 
z
" id="DejaVuSans-79" transform="scale(0.015625)"/>
       <path d="M 2841 2188 
Q 3044 2119 3236 1894 
Q 3428 1669 3622 1275 
L 4263 0 
L 3584 0 
L 2988 1197 
Q 2756 1666 2539 1819 
Q 2322 1972 1947 1972 
L 1259 1972 
L 1259 0 
L 628 0 
L 628 4666 
L 2053 4666 
Q 2853 4666 3247 4331 
Q 3641 3997 3641 3322 
Q 3641 2881 3436 2590 
Q 3231 2300 2841 2188 
z
M 1259 4147 
L 1259 2491 
L 2053 2491 
Q 2509 2491 2742 2702 
Q 2975 2913 2975 3322 
Q 2975 3731 2742 3939 
Q 2509 4147 2053 4147 
L 1259 4147 
z
" id="DejaVuSans-52" transform="scale(0.015625)"/>
       <path d="M 2906 1791 
Q 2906 2416 2648 2759 
Q 2391 3103 1925 3103 
Q 1463 3103 1205 2759 
Q 947 2416 947 1791 
Q 947 1169 1205 825 
Q 1463 481 1925 481 
Q 2391 481 2648 825 
Q 2906 1169 2906 1791 
z
M 3481 434 
Q 3481 -459 3084 -895 
Q 2688 -1331 1869 -1331 
Q 1566 -1331 1297 -1286 
Q 1028 -1241 775 -1147 
L 775 -588 
Q 1028 -725 1275 -790 
Q 1522 -856 1778 -856 
Q 2344 -856 2625 -561 
Q 2906 -266 2906 331 
L 2906 616 
Q 2728 306 2450 153 
Q 2172 0 1784 0 
Q 1141 0 747 490 
Q 353 981 353 1791 
Q 353 2603 747 3093 
Q 1141 3584 1784 3584 
Q 2172 3584 2450 3431 
Q 2728 3278 2906 2969 
L 2906 3500 
L 3481 3500 
L 3481 434 
z
" id="DejaVuSans-67" transform="scale(0.015625)"/>
       <path d="M 1259 4147 
L 1259 2394 
L 2053 2394 
Q 2494 2394 2734 2622 
Q 2975 2850 2975 3272 
Q 2975 3691 2734 3919 
Q 2494 4147 2053 4147 
L 1259 4147 
z
M 628 4666 
L 2053 4666 
Q 2838 4666 3239 4311 
Q 3641 3956 3641 3272 
Q 3641 2581 3239 2228 
Q 2838 1875 2053 1875 
L 1259 1875 
L 1259 0 
L 628 0 
L 628 4666 
z
" id="DejaVuSans-50" transform="scale(0.015625)"/>
       <path d="M 3122 3366 
L 3122 2828 
Q 2878 2963 2633 3030 
Q 2388 3097 2138 3097 
Q 1578 3097 1268 2742 
Q 959 2388 959 1747 
Q 959 1106 1268 751 
Q 1578 397 2138 397 
Q 2388 397 2633 464 
Q 2878 531 3122 666 
L 3122 134 
Q 2881 22 2623 -34 
Q 2366 -91 2075 -91 
Q 1284 -91 818 406 
Q 353 903 353 1747 
Q 353 2603 823 3093 
Q 1294 3584 2113 3584 
Q 2378 3584 2631 3529 
Q 2884 3475 3122 3366 
z
" id="DejaVuSans-63" transform="scale(0.015625)"/>
       <path d="M 1172 4494 
L 1172 3500 
L 2356 3500 
L 2356 3053 
L 1172 3053 
L 1172 1153 
Q 1172 725 1289 603 
Q 1406 481 1766 481 
L 2356 481 
L 2356 0 
L 1766 0 
Q 1100 0 847 248 
Q 594 497 594 1153 
L 594 3053 
L 172 3053 
L 172 3500 
L 594 3500 
L 594 4494 
L 1172 4494 
z
" id="DejaVuSans-74" transform="scale(0.015625)"/>
       <path d="M 603 4863 
L 1178 4863 
L 1178 0 
L 603 0 
L 603 4863 
z
" id="DejaVuSans-6c" transform="scale(0.015625)"/>
      </defs>
      <use xlink:href="#DejaVuSans-4d"/>
      <use x="86.279297" xlink:href="#DejaVuSans-65"/>
      <use x="147.802734" xlink:href="#DejaVuSans-64"/>
      <use x="211.279297" xlink:href="#DejaVuSans-69"/>
      <use x="239.0625" xlink:href="#DejaVuSans-61"/>
      <use x="300.341797" xlink:href="#DejaVuSans-6e"/>
      <use x="363.720703" xlink:href="#DejaVuSans-61"/>
      <use x="425" xlink:href="#DejaVuSans-20"/>
      <use x="456.787109" xlink:href="#DejaVuSans-79"/>
      <use x="515.966797" xlink:href="#DejaVuSans-20"/>
      <use x="547.753906" xlink:href="#DejaVuSans-52"/>
      <use x="614.986328" xlink:href="#DejaVuSans-61"/>
      <use x="676.265625" xlink:href="#DejaVuSans-6e"/>
      <use x="739.644531" xlink:href="#DejaVuSans-67"/>
      <use x="803.121094" xlink:href="#DejaVuSans-6f"/>
      <use x="864.302734" xlink:href="#DejaVuSans-20"/>
      <use x="896.089844" xlink:href="#DejaVuSans-64"/>
      <use x="959.566406" xlink:href="#DejaVuSans-65"/>
      <use x="1021.089844" xlink:href="#DejaVuSans-20"/>
      <use x="1052.876953" xlink:href="#DejaVuSans-50"/>
      <use x="1109.554688" xlink:href="#DejaVuSans-65"/>
      <use x="1171.078125" xlink:href="#DejaVuSans-72"/>
      <use x="1209.941406" xlink:href="#DejaVuSans-63"/>
      <use x="1264.921875" xlink:href="#DejaVuSans-65"/>
      <use x="1326.445312" xlink:href="#DejaVuSans-6e"/>
      <use x="1389.824219" xlink:href="#DejaVuSans-74"/>
      <use x="1429.033203" xlink:href="#DejaVuSans-69"/>
      <use x="1456.816406" xlink:href="#DejaVuSans-6c"/>
      <use x="1484.599609" xlink:href="#DejaVuSans-65"/>
     </g>
    </g>
   </g>
   <g id="PolyCollection_1">
    <defs>
     <path d="M 72.329261 -272.856112 
L 72.329261 -220.656976 
L 74.28031 -221.169944 
L 76.231359 -223.411429 
L 78.182408 -131.533533 
L 80.133457 -182.467925 
L 82.084506 -177.71475 
L 84.035555 -213.586669 
L 85.986604 -155.863299 
L 87.937653 -181.10207 
L 89.888702 -254.101258 
L 91.839751 -210.5808 
L 93.7908 -197.576627 
L 95.741849 -197.415938 
L 97.692898 -82.171419 
L 99.643947 -261.515686 
L 101.594996 -214.971312 
L 103.546045 -240.959387 
L 105.497094 -203.049934 
L 107.448142 -233.164744 
L 109.399191 -219.039211 
L 111.35024 -241.679273 
L 113.301289 -276.612769 
L 115.252338 -268.781786 
L 117.203387 -248.208924 
L 119.154436 -229.949238 
L 121.105485 -206.91314 
L 123.056534 -142.906591 
L 125.007583 -87.371803 
L 126.958632 -85.761207 
L 128.909681 -50.112274 
L 130.86073 -49.910795 
L 132.811779 -64.950525 
L 134.762828 -103.088156 
L 136.713877 -79.631795 
L 138.664926 -108.145403 
L 140.615975 -51.187901 
L 142.567024 -104.046602 
L 144.518073 -89.190058 
L 146.469122 -71.812925 
L 148.42017 -101.783115 
L 150.371219 -168.880575 
L 152.322268 -162.540537 
L 154.273317 -165.772359 
L 156.224366 -221.521976 
L 158.175415 -196.280486 
L 160.126464 -164.484129 
L 162.077513 -161.829551 
L 164.028562 -142.50833 
L 165.979611 -183.203879 
L 167.93066 -87.171065 
L 169.881709 -146.643965 
L 171.832758 -141.337527 
L 173.783807 -202.538944 
L 175.734856 -103.022397 
L 177.685905 -188.391408 
L 179.636954 -239.298112 
L 181.588003 -210.982769 
L 183.539052 -103.056018 
L 185.490101 -146.842725 
L 187.441149 -219.710395 
L 189.392198 -132.286298 
L 191.343247 -168.843987 
L 193.294296 -78.896581 
L 195.245345 -164.741232 
L 197.196394 -153.805494 
L 199.147443 -163.978331 
L 201.098492 -73.365673 
L 203.049541 -76.740632 
L 205.00059 -60.774594 
L 206.951639 -49.914998 
L 208.902688 -51.621513 
L 210.853737 -50.505591 
L 212.804786 -78.921797 
L 214.755835 -51.555013 
L 216.706884 -51.998266 
L 218.657933 -53.146821 
L 220.608982 -54.744809 
L 222.560031 -116.539538 
L 224.51108 -71.298078 
L 226.462128 -77.956923 
L 228.413177 -53.095895 
L 230.364226 -54.035059 
L 232.315275 -63.783924 
L 234.266324 -105.318022 
L 236.217373 -92.486651 
L 238.168422 -136.649617 
L 240.119471 -109.099894 
L 242.07052 -189.128352 
L 244.021569 -122.391329 
L 245.972618 -144.275412 
L 247.923667 -180.595282 
L 249.874716 -191.658335 
L 251.825765 -166.869246 
L 253.776814 -203.180957 
L 255.727863 -179.85908 
L 257.678912 -181.008623 
L 259.629961 -239.216037 
L 261.58101 -170.105271 
L 263.532059 -218.449359 
L 265.483108 -197.24981 
L 267.434156 -216.266464 
L 269.385205 -155.064552 
L 271.336254 -162.772423 
L 273.287303 -209.441145 
L 275.238352 -196.241426 
L 277.189401 -255.482687 
L 279.14045 -245.091314 
L 281.091499 -172.934877 
L 283.042548 -108.566407 
L 284.993597 -132.687114 
L 286.944646 -144.799258 
L 288.895695 -192.648919 
L 290.846744 -234.567928 
L 292.797793 -65.143104 
L 294.748842 -202.187159 
L 296.699891 -242.31458 
L 298.65094 -178.308063 
L 300.601989 -100.673621 
L 302.553038 -185.862166 
L 304.504087 -153.516254 
L 306.455135 -220.958824 
L 308.406184 -221.086139 
L 310.357233 -238.689719 
L 312.308282 -257.06164 
L 314.259331 -226.905051 
L 316.21038 -278.595174 
L 318.161429 -239.951497 
L 320.112478 -221.199857 
L 322.063527 -197.409016 
L 324.014576 -152.340012 
L 325.965625 -172.737106 
L 327.916674 -145.371557 
L 329.867723 -168.886014 
L 331.818772 -95.060885 
L 333.769821 -174.478725 
L 335.72087 -178.590628 
L 337.671919 -176.061881 
L 339.622968 -137.666488 
L 341.574017 -138.778867 
L 343.525066 -133.706293 
L 345.476115 -55.700536 
L 347.427163 -53.771282 
L 349.378212 -68.47307 
L 351.329261 -53.46004 
L 353.28031 -137.240704 
L 355.231359 -56.142801 
L 357.182408 -170.558166 
L 359.133457 -49.910795 
L 361.084506 -53.086995 
L 363.035555 -90.238985 
L 364.986604 -50.168392 
L 366.937653 -49.914998 
L 368.888702 -59.254972 
L 370.839751 -52.152033 
L 372.7908 -110.831872 
L 374.741849 -72.789913 
L 376.692898 -49.911043 
L 378.643947 -61.633166 
L 380.594996 -104.980575 
L 382.546045 -71.253234 
L 384.497094 -64.498866 
L 386.448142 -71.253234 
L 388.399191 -66.806851 
L 390.35024 -97.623748 
L 392.301289 -60.583003 
L 394.252338 -51.812115 
L 396.203387 -50.033661 
L 398.154436 -50.033661 
L 400.105485 -51.647718 
L 402.056534 -62.524618 
L 404.007583 -121.474085 
L 405.958632 -54.083018 
L 407.909681 -49.914998 
L 409.86073 -49.914998 
L 411.811779 -50.156278 
L 413.762828 -50.278896 
L 415.713877 -51.289258 
L 417.664926 -58.301989 
L 419.615975 -50.168392 
L 421.567024 -55.537623 
L 423.518073 -54.219974 
L 425.469122 -50.168392 
L 427.42017 -74.921635 
L 429.371219 -52.834095 
L 431.322268 -54.521822 
L 433.273317 -49.910795 
L 435.224366 -49.910795 
L 437.175415 -51.882571 
L 439.126464 -49.911043 
L 441.077513 -66.196975 
L 443.028562 -51.99703 
L 444.979611 -49.911043 
L 446.93066 -79.683215 
L 448.881709 -102.99817 
L 450.832758 -50.376793 
L 452.783807 -50.276177 
L 454.734856 -49.910795 
L 456.685905 -49.910795 
L 458.636954 -49.910795 
L 460.588003 -50.505097 
L 462.539052 -50.331553 
L 464.490101 -50.331553 
L 466.441149 -50.331553 
L 468.392198 -50.331553 
L 470.343247 -52.504807 
L 472.294296 -50.331553 
L 474.245345 -50.874928 
L 476.196394 -61.637122 
L 478.147443 -50.332789 
L 480.098492 -51.418056 
L 482.049541 -50.331553 
L 484.00059 -72.32614 
L 485.951639 -132.281107 
L 487.902688 -167.496674 
L 489.853737 -91.02463 
L 491.804786 -129.137787 
L 493.755835 -65.3431 
L 495.706884 -50.874928 
L 497.657933 -81.839659 
L 499.608982 -50.874928 
L 501.560031 -118.890291 
L 503.51108 -144.812645 
L 505.462128 -51.418056 
L 507.413177 -68.461946 
L 509.364226 -60.007738 
L 511.315275 -56.201638 
L 513.266324 -50.331553 
L 515.217373 -53.048182 
L 517.168422 -50.874928 
L 521.07052 -52.504807 
L 523.021569 -64.89416 
L 524.972618 -55.221436 
L 526.923667 -67.513387 
L 528.874716 -65.001204 
L 530.825765 -50.874928 
L 532.776814 -50.331553 
L 534.727863 -50.874928 
L 536.678912 -50.331553 
L 538.629961 -50.331553 
L 540.58101 -50.331553 
L 542.532059 -56.280994 
L 544.483108 -50.331553 
L 546.434156 -50.331553 
L 548.385205 -50.94044 
L 550.336254 -50.94044 
L 552.287303 -51.418056 
L 554.238352 -50.874928 
L 556.189401 -65.268689 
L 558.14045 -108.30535 
L 560.091499 -79.823385 
L 562.042548 -73.347627 
L 563.993597 -51.070227 
L 565.944646 -59.239892 
L 567.895695 -59.239892 
L 569.846744 -50.874928 
L 571.797793 -50.331553 
L 573.748842 -50.331553 
L 575.699891 -56.114124 
L 577.65094 -51.418056 
L 579.601989 -50.331553 
L 579.601989 -70.399853 
L 579.601989 -70.399853 
L 577.65094 -138.894563 
L 575.699891 -173.614219 
L 573.748842 -127.926688 
L 571.797793 -177.354066 
L 569.846744 -126.357129 
L 567.895695 -156.790597 
L 565.944646 -156.790597 
L 563.993597 -143.727587 
L 562.042548 -160.379149 
L 560.091499 -167.511012 
L 558.14045 -257.049032 
L 556.189401 -224.826726 
L 554.238352 -93.176871 
L 552.287303 -95.437144 
L 550.336254 -127.64437 
L 548.385205 -127.64437 
L 546.434156 -115.769221 
L 544.483108 -75.626194 
L 542.532059 -109.581713 
L 540.58101 -84.136637 
L 538.629961 -104.416928 
L 536.678912 -108.712263 
L 534.727863 -95.215641 
L 532.776814 -83.984236 
L 530.825765 -86.069729 
L 528.874716 -162.753635 
L 526.923667 -201.061348 
L 524.972618 -108.590387 
L 523.021569 -238.194304 
L 521.07052 -110.62446 
L 517.168422 -101.215019 
L 515.217373 -124.341844 
L 513.266324 -110.124347 
L 511.315275 -122.238799 
L 509.364226 -133.102844 
L 507.413177 -164.667315 
L 505.462128 -181.703293 
L 503.51108 -246.445055 
L 501.560031 -181.16239 
L 499.608982 -90.935139 
L 497.657933 -177.831682 
L 495.706884 -71.343467 
L 493.755835 -118.842085 
L 491.804786 -230.335633 
L 489.853737 -166.819556 
L 487.902688 -280.245077 
L 485.951639 -285.048436 
L 484.00059 -193.697105 
L 482.049541 -126.310405 
L 480.098492 -151.070076 
L 478.147443 -175.427778 
L 476.196394 -247.190157 
L 474.245345 -140.869552 
L 472.294296 -134.561404 
L 470.343247 -269.83541 
L 468.392198 -53.048182 
L 466.441149 -123.537659 
L 464.490101 -161.008802 
L 462.539052 -51.961432 
L 460.588003 -156.611862 
L 458.636954 -56.722023 
L 456.685905 -63.777249 
L 454.734856 -63.855616 
L 452.783807 -138.688881 
L 450.832758 -94.932007 
L 448.881709 -244.733596 
L 446.93066 -249.795293 
L 444.979611 -99.232613 
L 443.028562 -127.748447 
L 441.077513 -157.732975 
L 439.126464 -88.76757 
L 437.175415 -117.929867 
L 435.224366 -105.369195 
L 433.273317 -106.506871 
L 431.322268 -213.71967 
L 429.371219 -203.092949 
L 427.42017 -256.01914 
L 425.469122 -68.707923 
L 423.518073 -155.127345 
L 421.567024 -129.170666 
L 419.615975 -72.695725 
L 417.664926 -85.987407 
L 415.713877 -88.076856 
L 413.762828 -73.184466 
L 411.811779 -63.954996 
L 409.86073 -65.354224 
L 407.909681 -67.409805 
L 405.958632 -121.537948 
L 404.007583 -244.728651 
L 402.056534 -141.369665 
L 400.105485 -79.86467 
L 398.154436 -64.304556 
L 396.203387 -79.558372 
L 394.252338 -104.769702 
L 392.301289 -101.487201 
L 390.35024 -165.339983 
L 388.399191 -104.547704 
L 386.448142 -123.542356 
L 384.497094 -127.308654 
L 382.546045 -137.000413 
L 380.594996 -180.687987 
L 378.643947 -146.518628 
L 376.692898 -134.160671 
L 374.741849 -186.264383 
L 372.7908 -288.409551 
L 370.839751 -210.885861 
L 368.888702 -224.417094 
L 366.937653 -176.944186 
L 364.986604 -218.362587 
L 363.035555 -241.858502 
L 361.084506 -277.20089 
L 359.133457 -244.678714 
L 357.182408 -287.183619 
L 355.231359 -271.28952 
L 353.28031 -280.255955 
L 351.329261 -236.240575 
L 349.378212 -262.594773 
L 347.427163 -268.809721 
L 345.476115 -264.498317 
L 343.525066 -274.325549 
L 341.574017 -253.197692 
L 339.622968 -255.834966 
L 337.671919 -271.202995 
L 335.72087 -272.721134 
L 333.769821 -286.057067 
L 331.818772 -263.237034 
L 329.867723 -271.611639 
L 327.916674 -265.535378 
L 325.965625 -277.482713 
L 324.014576 -279.022359 
L 322.063527 -285.031626 
L 320.112478 -281.57728 
L 318.161429 -296.571306 
L 316.21038 -290.843616 
L 314.259331 -277.762065 
L 312.308282 -283.132778 
L 310.357233 -273.374272 
L 308.406184 -269.549137 
L 306.455135 -262.957188 
L 304.504087 -247.266298 
L 302.553038 -255.822606 
L 300.601989 -197.564019 
L 298.65094 -233.079703 
L 296.699891 -294.381736 
L 294.748842 -245.401567 
L 292.797793 -202.55081 
L 290.846744 -284.920132 
L 288.895695 -240.004648 
L 286.944646 -262.581671 
L 284.993597 -241.367289 
L 283.042548 -241.526742 
L 281.091499 -266.469103 
L 279.14045 -279.235704 
L 277.189401 -289.207062 
L 275.238352 -255.907153 
L 273.287303 -264.206111 
L 271.336254 -236.780489 
L 269.385205 -255.702954 
L 267.434156 -278.705926 
L 265.483108 -266.431774 
L 263.532059 -281.640598 
L 261.58101 -267.847566 
L 259.629961 -293.16149 
L 257.678912 -265.36307 
L 255.727863 -276.757636 
L 253.776814 -282.435142 
L 251.825765 -275.662727 
L 249.874716 -273.109506 
L 247.923667 -262.565849 
L 245.972618 -265.140084 
L 244.021569 -252.521316 
L 242.07052 -271.572085 
L 240.119471 -217.888679 
L 238.168422 -269.447532 
L 236.217373 -192.942609 
L 234.266324 -198.455718 
L 232.315275 -199.368183 
L 230.364226 -167.788138 
L 228.413177 -164.991164 
L 226.462128 -237.771321 
L 224.51108 -161.604834 
L 222.560031 -267.258209 
L 220.608982 -132.72708 
L 218.657933 -253.39225 
L 216.706884 -192.659797 
L 214.755835 -129.299711 
L 212.804786 -175.983514 
L 210.853737 -115.267872 
L 208.902688 -125.988039 
L 206.951639 -130.543443 
L 205.00059 -168.67786 
L 203.049541 -189.472226 
L 201.098492 -166.891248 
L 199.147443 -251.533698 
L 197.196394 -234.582761 
L 195.245345 -210.161361 
L 193.294296 -187.884126 
L 191.343247 -229.668156 
L 189.392198 -220.210261 
L 187.441149 -281.972853 
L 185.490101 -245.61689 
L 183.539052 -242.889383 
L 181.588003 -263.763351 
L 179.636954 -291.584515 
L 177.685905 -289.89926 
L 175.734856 -226.740901 
L 173.783807 -281.295488 
L 171.832758 -249.552035 
L 169.881709 -265.947977 
L 167.93066 -235.239113 
L 165.979611 -274.117396 
L 164.028562 -277.071103 
L 162.077513 -284.221507 
L 160.126464 -291.646812 
L 158.175415 -295.211631 
L 156.224366 -295.318428 
L 154.273317 -295.284065 
L 152.322268 -295.008669 
L 150.371219 -295.445001 
L 148.42017 -291.0624 
L 146.469122 -271.514484 
L 144.518073 -278.081217 
L 142.567024 -291.291319 
L 140.615975 -274.830112 
L 138.664926 -282.738473 
L 136.713877 -267.878962 
L 134.762828 -277.230556 
L 132.811779 -261.69541 
L 130.86073 -262.707255 
L 128.909681 -274.894388 
L 126.958632 -279.693791 
L 125.007583 -254.61108 
L 123.056534 -288.214005 
L 121.105485 -289.238705 
L 119.154436 -292.57411 
L 117.203387 -296.476623 
L 115.252338 -297.001705 
L 113.301289 -293.803009 
L 111.35024 -291.561029 
L 109.399191 -290.03053 
L 107.448142 -287.267672 
L 105.497094 -283.242788 
L 103.546045 -288.313385 
L 101.594996 -279.923452 
L 99.643947 -280.780047 
L 97.692898 -228.333945 
L 95.741849 -259.412888 
L 93.7908 -267.605544 
L 91.839751 -273.12335 
L 89.888702 -278.026089 
L 87.937653 -245.243103 
L 85.986604 -256.963496 
L 84.035555 -273.507767 
L 82.084506 -263.090189 
L 80.133457 -239.19008 
L 78.182408 -235.58274 
L 76.231359 -275.744061 
L 74.28031 -276.633288 
L 72.329261 -272.856112 
z
" id="m4a981544e5" style="stroke:#808080;stroke-opacity:0.2;"/>
    </defs>
    <g clip-path="url(#p0d2f4010a7)">
     <use style="fill:#808080;fill-opacity:0.2;stroke:#808080;stroke-opacity:0.2;" x="0" xlink:href="#m4a981544e5" y="352.55625"/>
    </g>
   </g>
   <g id="line2d_12">
    <path clip-path="url(#p0d2f4010a7)" d="M 72.329261 106.977266 
L 74.28031 105.123 
L 76.231359 104.139173 
L 78.182408 163.88376 
L 80.133457 144.719438 
L 82.084506 134.053575 
L 84.035555 110.739939 
L 85.986604 140.181339 
L 87.937653 135.094097 
L 89.888702 85.794363 
L 91.839751 109.859529 
L 93.7908 117.270908 
L 95.741849 119.029832 
L 97.692898 192.28159 
L 99.643947 81.664497 
L 101.594996 103.68191 
L 103.546045 87.285061 
L 105.497094 108.893995 
L 107.448142 91.51612 
L 109.399191 94.201766 
L 111.35024 82.303379 
L 113.301289 67.496195 
L 115.252338 69.904302 
L 117.203387 81.752999 
L 119.154436 87.744054 
L 121.105485 106.485476 
L 125.007583 164.368546 
L 126.958632 149.113329 
L 128.909681 189.783992 
L 130.86073 208.401066 
L 132.811779 184.170761 
L 134.762828 151.121527 
L 136.713877 170.676364 
L 138.664926 138.173059 
L 140.615975 193.618603 
L 142.567024 144.861586 
L 144.518073 162.514692 
L 146.469122 190.668522 
L 150.371219 102.381732 
L 152.322268 126.095525 
L 154.273317 126.922701 
L 156.224366 91.015595 
L 158.175415 106.673029 
L 160.126464 129.190638 
L 164.028562 144.802914 
L 165.979611 129.620707 
L 167.93066 202.582895 
L 169.881709 143.575416 
L 171.832758 149.499229 
L 173.783807 104.502494 
L 175.734856 192.728305 
L 177.685905 108.725066 
L 179.636954 85.231293 
L 181.588003 115.050519 
L 183.539052 189.21845 
L 185.490101 161.314635 
L 187.441149 96.86714 
L 189.392198 182.415298 
L 191.343247 152.753383 
L 193.294296 221.645448 
L 195.245345 161.160538 
L 197.196394 157.002242 
L 199.147443 143.461286 
L 201.098492 228.254207 
L 203.049541 218.098923 
L 205.00059 234.17596 
L 206.951639 270.843659 
L 208.902688 265.358403 
L 210.853737 273.139119 
L 212.804786 225.576638 
L 214.755835 260.808933 
L 216.706884 238.964239 
L 218.657933 215.043034 
L 220.608982 257.834707 
L 222.560031 170.42536 
L 224.51108 244.003439 
L 226.462128 201.029982 
L 228.413177 238.743807 
L 230.364226 241.294556 
L 232.315275 220.274072 
L 234.266324 203.660334 
L 236.217373 209.770134 
L 238.168422 147.277604 
L 240.119471 194.237873 
L 242.07052 115.986716 
L 244.021569 173.623644 
L 245.972618 145.100641 
L 247.923667 127.819756 
L 249.874716 117.621457 
L 251.825765 122.653983 
L 253.776814 103.970985 
L 255.727863 121.110464 
L 257.678912 129.811473 
L 259.629961 82.519691 
L 261.58101 128.413811 
L 263.532059 102.80183 
L 265.483108 120.776396 
L 267.434156 100.695488 
L 269.385205 143.131503 
L 271.336254 153.095032 
L 273.287303 112.529765 
L 275.238352 121.775715 
L 277.189401 79.620617 
L 279.14045 88.229334 
L 283.042548 177.952435 
L 284.993597 178.142212 
L 286.944646 153.688262 
L 288.895695 133.551484 
L 290.846744 91.470221 
L 292.797793 218.814771 
L 294.748842 127.176589 
L 296.699891 88.081665 
L 300.601989 202.00458 
L 302.553038 133.313335 
L 304.504087 157.89048 
L 306.455135 112.379541 
L 308.406184 107.817792 
L 312.308282 82.948359 
L 314.259331 96.456023 
L 316.21038 68.416736 
L 320.112478 95.687849 
L 322.063527 115.929857 
L 324.014576 138.040305 
L 325.965625 113.673704 
L 327.916674 145.772568 
L 329.867723 120.796667 
L 331.818772 169.91404 
L 333.769821 123.224716 
L 335.72087 129.482185 
L 337.671919 130.848205 
L 339.622968 170.933796 
L 341.574017 159.340388 
L 343.525066 156.70196 
L 345.476115 209.007151 
L 347.427163 207.921801 
L 349.378212 202.011173 
L 351.329261 236.987684 
L 353.28031 149.41666 
L 355.231359 205.893909 
L 357.182408 114.965395 
L 359.133457 223.259835 
L 361.084506 182.391401 
L 363.035555 192.195313 
L 364.986604 233.69447 
L 366.937653 260.171451 
L 368.888702 218.571513 
L 370.839751 229.941604 
L 372.7908 146.246311 
L 374.741849 222.095129 
L 376.692898 273.724768 
L 378.643947 253.882257 
L 380.594996 210.888858 
L 382.546045 250.929621 
L 384.497094 259.282471 
L 386.448142 250.929621 
L 388.399191 268.843125 
L 390.35024 224.280167 
L 392.301289 273.095692 
L 394.252338 279.436142 
L 396.203387 292.263887 
L 398.154436 297.200659 
L 400.105485 289.659493 
L 402.056534 249.164599 
L 404.007583 179.439259 
L 405.958632 271.440103 
L 407.909681 294.44225 
L 409.86073 296.870711 
L 411.811779 297.30968 
L 413.762828 293.784415 
L 415.713877 282.692109 
L 417.664926 282.879167 
L 419.615975 293.250269 
L 421.567024 267.776728 
L 423.518073 259.560092 
L 425.469122 294.238547 
L 427.42017 183.145485 
L 429.371219 241.121919 
L 431.322268 232.38564 
L 433.273317 278.208727 
L 435.224366 279.12968 
L 437.175415 266.348411 
L 439.126464 286.453793 
L 441.077513 239.992812 
L 443.028562 261.064634 
L 444.979611 280.58107 
L 446.93066 178.574259 
L 448.881709 181.716755 
L 450.832758 276.216186 
L 452.783807 263.989911 
L 454.734856 297.833608 
L 456.685905 297.836163 
L 458.636954 300.252345 
L 460.588003 259.738498 
L 462.539052 301.681404 
L 464.490101 261.946444 
L 466.441149 275.10628 
L 468.392198 301.319154 
L 470.343247 175.261268 
L 472.294296 265.747847 
L 474.245345 269.270475 
L 476.196394 195.082684 
L 478.147443 254.355671 
L 480.098492 256.348212 
L 482.049541 268.479721 
L 484.00059 226.913815 
L 485.951639 128.839759 
L 487.902688 120.927773 
L 489.853737 218.747446 
L 491.804786 169.883138 
L 493.755835 265.064219 
L 495.706884 292.85481 
L 497.657933 228.901824 
L 499.608982 287.428308 
L 501.560031 203.498327 
L 503.51108 166.311315 
L 505.462128 245.094063 
L 507.413177 240.30117 
L 509.364226 263.595029 
L 511.315275 263.886329 
L 513.266324 278.907847 
L 515.217373 265.02211 
L 517.168422 277.639559 
L 521.07052 275.968396 
L 523.021569 215.398939 
L 524.972618 271.191901 
L 526.923667 230.492726 
L 528.874716 240.557612 
L 530.825765 285.503998 
L 532.776814 289.5583 
L 534.727863 283.503958 
L 536.678912 282.040042 
L 538.629961 282.290882 
L 540.58101 283.968555 
L 542.532059 273.819863 
L 544.483108 293.612025 
L 546.434156 277.671779 
L 548.385205 267.743684 
L 550.336254 267.743684 
L 552.287303 279.842396 
L 554.238352 283.84569 
L 556.189401 194.838437 
L 558.14045 156.273292 
L 560.091499 229.285417 
L 562.042548 238.659342 
L 563.993597 260.846179 
L 565.944646 249.582142 
L 567.895695 249.582142 
L 569.846744 270.460149 
L 571.797793 246.91784 
L 573.748842 275.816359 
L 575.699891 241.615439 
L 577.65094 266.449686 
L 579.601989 295.354139 
L 579.601989 295.354139 
" style="fill:none;stroke:#808080;stroke-linecap:round;stroke-width:1.5;"/>
   </g>
   <g id="patch_3">
    <path d="M 46.965625 315 
L 46.965625 43.2 
" style="fill:none;stroke:#cccccc;stroke-linecap:square;stroke-linejoin:miter;stroke-width:0.8;"/>
   </g>
   <g id="patch_4">
    <path d="M 604.965625 315 
L 604.965625 43.2 
" style="fill:none;stroke:#cccccc;stroke-linecap:square;stroke-linejoin:miter;stroke-width:0.8;"/>
   </g>
   <g id="patch_5">
    <path d="M 46.965625 315 
L 604.965625 315 
" style="fill:none;stroke:#cccccc;stroke-linecap:square;stroke-linejoin:miter;stroke-width:0.8;"/>
   </g>
   <g id="patch_6">
    <path d="M 46.965625 43.2 
L 604.965625 43.2 
" style="fill:none;stroke:#cccccc;stroke-linecap:square;stroke-linejoin:miter;stroke-width:0.8;"/>
   </g>
   <g id="text_14">
    <!-- Producto sfsm_inst (2017-2021) -->
    <g style="fill:#262626;" transform="translate(230.160625 37.2)scale(0.12 -0.12)">
     <defs>
      <path d="M 544 1381 
L 544 3500 
L 1119 3500 
L 1119 1403 
Q 1119 906 1312 657 
Q 1506 409 1894 409 
Q 2359 409 2629 706 
Q 2900 1003 2900 1516 
L 2900 3500 
L 3475 3500 
L 3475 0 
L 2900 0 
L 2900 538 
Q 2691 219 2414 64 
Q 2138 -91 1772 -91 
Q 1169 -91 856 284 
Q 544 659 544 1381 
z
M 1991 3584 
L 1991 3584 
z
" id="DejaVuSans-75" transform="scale(0.015625)"/>
      <path d="M 2375 4863 
L 2375 4384 
L 1825 4384 
Q 1516 4384 1395 4259 
Q 1275 4134 1275 3809 
L 1275 3500 
L 2222 3500 
L 2222 3053 
L 1275 3053 
L 1275 0 
L 697 0 
L 697 3053 
L 147 3053 
L 147 3500 
L 697 3500 
L 697 3744 
Q 697 4328 969 4595 
Q 1241 4863 1831 4863 
L 2375 4863 
z
" id="DejaVuSans-66" transform="scale(0.015625)"/>
      <path d="M 3328 2828 
Q 3544 3216 3844 3400 
Q 4144 3584 4550 3584 
Q 5097 3584 5394 3201 
Q 5691 2819 5691 2113 
L 5691 0 
L 5113 0 
L 5113 2094 
Q 5113 2597 4934 2840 
Q 4756 3084 4391 3084 
Q 3944 3084 3684 2787 
Q 3425 2491 3425 1978 
L 3425 0 
L 2847 0 
L 2847 2094 
Q 2847 2600 2669 2842 
Q 2491 3084 2119 3084 
Q 1678 3084 1418 2786 
Q 1159 2488 1159 1978 
L 1159 0 
L 581 0 
L 581 3500 
L 1159 3500 
L 1159 2956 
Q 1356 3278 1631 3431 
Q 1906 3584 2284 3584 
Q 2666 3584 2933 3390 
Q 3200 3197 3328 2828 
z
" id="DejaVuSans-6d" transform="scale(0.015625)"/>
      <path d="M 3263 -1063 
L 3263 -1509 
L -63 -1509 
L -63 -1063 
L 3263 -1063 
z
" id="DejaVuSans-5f" transform="scale(0.015625)"/>
      <path d="M 1984 4856 
Q 1566 4138 1362 3434 
Q 1159 2731 1159 2009 
Q 1159 1288 1364 580 
Q 1569 -128 1984 -844 
L 1484 -844 
Q 1016 -109 783 600 
Q 550 1309 550 2009 
Q 550 2706 781 3412 
Q 1013 4119 1484 4856 
L 1984 4856 
z
" id="DejaVuSans-28" transform="scale(0.015625)"/>
      <path d="M 513 4856 
L 1013 4856 
Q 1481 4119 1714 3412 
Q 1947 2706 1947 2009 
Q 1947 1309 1714 600 
Q 1481 -109 1013 -844 
L 513 -844 
Q 928 -128 1133 580 
Q 1338 1288 1338 2009 
Q 1338 2731 1133 3434 
Q 928 4138 513 4856 
z
" id="DejaVuSans-29" transform="scale(0.015625)"/>
     </defs>
     <use xlink:href="#DejaVuSans-50"/>
     <use x="58.552734" xlink:href="#DejaVuSans-72"/>
     <use x="97.416016" xlink:href="#DejaVuSans-6f"/>
     <use x="158.597656" xlink:href="#DejaVuSans-64"/>
     <use x="222.074219" xlink:href="#DejaVuSans-75"/>
     <use x="285.453125" xlink:href="#DejaVuSans-63"/>
     <use x="340.433594" xlink:href="#DejaVuSans-74"/>
     <use x="379.642578" xlink:href="#DejaVuSans-6f"/>
     <use x="440.824219" xlink:href="#DejaVuSans-20"/>
     <use x="472.611328" xlink:href="#DejaVuSans-73"/>
     <use x="524.710938" xlink:href="#DejaVuSans-66"/>
     <use x="559.916016" xlink:href="#DejaVuSans-73"/>
     <use x="612.015625" xlink:href="#DejaVuSans-6d"/>
     <use x="709.427734" xlink:href="#DejaVuSans-5f"/>
     <use x="759.427734" xlink:href="#DejaVuSans-69"/>
     <use x="787.210938" xlink:href="#DejaVuSans-6e"/>
     <use x="850.589844" xlink:href="#DejaVuSans-73"/>
     <use x="902.689453" xlink:href="#DejaVuSans-74"/>
     <use x="941.898438" xlink:href="#DejaVuSans-20"/>
     <use x="973.685547" xlink:href="#DejaVuSans-28"/>
     <use x="1012.699219" xlink:href="#DejaVuSans-32"/>
     <use x="1076.322266" xlink:href="#DejaVuSans-30"/>
     <use x="1139.945312" xlink:href="#DejaVuSans-31"/>
     <use x="1203.568359" xlink:href="#DejaVuSans-37"/>
     <use x="1267.191406" xlink:href="#DejaVuSans-2d"/>
     <use x="1303.275391" xlink:href="#DejaVuSans-32"/>
     <use x="1366.898438" xlink:href="#DejaVuSans-30"/>
     <use x="1430.521484" xlink:href="#DejaVuSans-32"/>
     <use x="1494.144531" xlink:href="#DejaVuSans-31"/>
     <use x="1557.767578" xlink:href="#DejaVuSans-29"/>
    </g>
   </g>
   <g id="legend_1">
    <g id="patch_7">
     <path d="M 591.765625 58.8 
L 596.565625 58.8 
Q 598.965625 58.8 598.965625 56.4 
L 598.965625 51.6 
Q 598.965625 49.2 596.565625 49.2 
L 591.765625 49.2 
Q 589.365625 49.2 589.365625 51.6 
L 589.365625 56.4 
Q 589.365625 58.8 591.765625 58.8 
z
" style="fill:#ffffff;opacity:0.8;stroke:#cccccc;stroke-linejoin:miter;"/>
    </g>
   </g>
  </g>
  <g id="text_15">
   <!-- Percentiles de humedad superficial del suelo (GRACE) para Itapúa (Paraguay) -->
   <g style="fill:#262626;" transform="translate(37.873375 18.71775)scale(0.144 -0.144)">
    <defs>
     <path d="M 3513 2113 
L 3513 0 
L 2938 0 
L 2938 2094 
Q 2938 2591 2744 2837 
Q 2550 3084 2163 3084 
Q 1697 3084 1428 2787 
Q 1159 2491 1159 1978 
L 1159 0 
L 581 0 
L 581 4863 
L 1159 4863 
L 1159 2956 
Q 1366 3272 1645 3428 
Q 1925 3584 2291 3584 
Q 2894 3584 3203 3211 
Q 3513 2838 3513 2113 
z
" id="DejaVuSans-68" transform="scale(0.015625)"/>
     <path d="M 3809 666 
L 3809 1919 
L 2778 1919 
L 2778 2438 
L 4434 2438 
L 4434 434 
Q 4069 175 3628 42 
Q 3188 -91 2688 -91 
Q 1594 -91 976 548 
Q 359 1188 359 2328 
Q 359 3472 976 4111 
Q 1594 4750 2688 4750 
Q 3144 4750 3555 4637 
Q 3966 4525 4313 4306 
L 4313 3634 
Q 3963 3931 3569 4081 
Q 3175 4231 2741 4231 
Q 1884 4231 1454 3753 
Q 1025 3275 1025 2328 
Q 1025 1384 1454 906 
Q 1884 428 2741 428 
Q 3075 428 3337 486 
Q 3600 544 3809 666 
z
" id="DejaVuSans-47" transform="scale(0.015625)"/>
     <path d="M 4122 4306 
L 4122 3641 
Q 3803 3938 3442 4084 
Q 3081 4231 2675 4231 
Q 1875 4231 1450 3742 
Q 1025 3253 1025 2328 
Q 1025 1406 1450 917 
Q 1875 428 2675 428 
Q 3081 428 3442 575 
Q 3803 722 4122 1019 
L 4122 359 
Q 3791 134 3420 21 
Q 3050 -91 2638 -91 
Q 1578 -91 968 557 
Q 359 1206 359 2328 
Q 359 3453 968 4101 
Q 1578 4750 2638 4750 
Q 3056 4750 3426 4639 
Q 3797 4528 4122 4306 
z
" id="DejaVuSans-43" transform="scale(0.015625)"/>
     <path d="M 628 4666 
L 3578 4666 
L 3578 4134 
L 1259 4134 
L 1259 2753 
L 3481 2753 
L 3481 2222 
L 1259 2222 
L 1259 531 
L 3634 531 
L 3634 0 
L 628 0 
L 628 4666 
z
" id="DejaVuSans-45" transform="scale(0.015625)"/>
     <path d="M 628 4666 
L 1259 4666 
L 1259 0 
L 628 0 
L 628 4666 
z
" id="DejaVuSans-49" transform="scale(0.015625)"/>
     <path d="M 544 1381 
L 544 3500 
L 1119 3500 
L 1119 1403 
Q 1119 906 1312 657 
Q 1506 409 1894 409 
Q 2359 409 2629 706 
Q 2900 1003 2900 1516 
L 2900 3500 
L 3475 3500 
L 3475 0 
L 2900 0 
L 2900 538 
Q 2691 219 2414 64 
Q 2138 -91 1772 -91 
Q 1169 -91 856 284 
Q 544 659 544 1381 
z
M 1991 3584 
L 1991 3584 
z
M 2418 5119 
L 3040 5119 
L 2022 3944 
L 1543 3944 
L 2418 5119 
z
" id="DejaVuSans-fa" transform="scale(0.015625)"/>
    </defs>
    <use xlink:href="#DejaVuSans-50"/>
    <use x="56.677734" xlink:href="#DejaVuSans-65"/>
    <use x="118.201172" xlink:href="#DejaVuSans-72"/>
    <use x="157.064453" xlink:href="#DejaVuSans-63"/>
    <use x="212.044922" xlink:href="#DejaVuSans-65"/>
    <use x="273.568359" xlink:href="#DejaVuSans-6e"/>
    <use x="336.947266" xlink:href="#DejaVuSans-74"/>
    <use x="376.15625" xlink:href="#DejaVuSans-69"/>
    <use x="403.939453" xlink:href="#DejaVuSans-6c"/>
    <use x="431.722656" xlink:href="#DejaVuSans-65"/>
    <use x="493.246094" xlink:href="#DejaVuSans-73"/>
    <use x="545.345703" xlink:href="#DejaVuSans-20"/>
    <use x="577.132812" xlink:href="#DejaVuSans-64"/>
    <use x="640.609375" xlink:href="#DejaVuSans-65"/>
    <use x="702.132812" xlink:href="#DejaVuSans-20"/>
    <use x="733.919922" xlink:href="#DejaVuSans-68"/>
    <use x="797.298828" xlink:href="#DejaVuSans-75"/>
    <use x="860.677734" xlink:href="#DejaVuSans-6d"/>
    <use x="958.089844" xlink:href="#DejaVuSans-65"/>
    <use x="1019.613281" xlink:href="#DejaVuSans-64"/>
    <use x="1083.089844" xlink:href="#DejaVuSans-61"/>
    <use x="1144.369141" xlink:href="#DejaVuSans-64"/>
    <use x="1207.845703" xlink:href="#DejaVuSans-20"/>
    <use x="1239.632812" xlink:href="#DejaVuSans-73"/>
    <use x="1291.732422" xlink:href="#DejaVuSans-75"/>
    <use x="1355.111328" xlink:href="#DejaVuSans-70"/>
    <use x="1418.587891" xlink:href="#DejaVuSans-65"/>
    <use x="1480.111328" xlink:href="#DejaVuSans-72"/>
    <use x="1521.224609" xlink:href="#DejaVuSans-66"/>
    <use x="1556.429688" xlink:href="#DejaVuSans-69"/>
    <use x="1584.212891" xlink:href="#DejaVuSans-63"/>
    <use x="1639.193359" xlink:href="#DejaVuSans-69"/>
    <use x="1666.976562" xlink:href="#DejaVuSans-61"/>
    <use x="1728.255859" xlink:href="#DejaVuSans-6c"/>
    <use x="1756.039062" xlink:href="#DejaVuSans-20"/>
    <use x="1787.826172" xlink:href="#DejaVuSans-64"/>
    <use x="1851.302734" xlink:href="#DejaVuSans-65"/>
    <use x="1912.826172" xlink:href="#DejaVuSans-6c"/>
    <use x="1940.609375" xlink:href="#DejaVuSans-20"/>
    <use x="1972.396484" xlink:href="#DejaVuSans-73"/>
    <use x="2024.496094" xlink:href="#DejaVuSans-75"/>
    <use x="2087.875" xlink:href="#DejaVuSans-65"/>
    <use x="2149.398438" xlink:href="#DejaVuSans-6c"/>
    <use x="2177.181641" xlink:href="#DejaVuSans-6f"/>
    <use x="2238.363281" xlink:href="#DejaVuSans-20"/>
    <use x="2270.150391" xlink:href="#DejaVuSans-28"/>
    <use x="2309.164062" xlink:href="#DejaVuSans-47"/>
    <use x="2386.654297" xlink:href="#DejaVuSans-52"/>
    <use x="2452.136719" xlink:href="#DejaVuSans-41"/>
    <use x="2518.794922" xlink:href="#DejaVuSans-43"/>
    <use x="2588.619141" xlink:href="#DejaVuSans-45"/>
    <use x="2651.802734" xlink:href="#DejaVuSans-29"/>
    <use x="2690.816406" xlink:href="#DejaVuSans-20"/>
    <use x="2722.603516" xlink:href="#DejaVuSans-70"/>
    <use x="2786.080078" xlink:href="#DejaVuSans-61"/>
    <use x="2847.359375" xlink:href="#DejaVuSans-72"/>
    <use x="2888.472656" xlink:href="#DejaVuSans-61"/>
    <use x="2949.751953" xlink:href="#DejaVuSans-20"/>
    <use x="2981.539062" xlink:href="#DejaVuSans-49"/>
    <use x="3011.03125" xlink:href="#DejaVuSans-74"/>
    <use x="3050.240234" xlink:href="#DejaVuSans-61"/>
    <use x="3111.519531" xlink:href="#DejaVuSans-70"/>
    <use x="3174.996094" xlink:href="#DejaVuSans-fa"/>
    <use x="3238.375" xlink:href="#DejaVuSans-61"/>
    <use x="3299.654297" xlink:href="#DejaVuSans-20"/>
    <use x="3331.441406" xlink:href="#DejaVuSans-28"/>
    <use x="3370.455078" xlink:href="#DejaVuSans-50"/>
    <use x="3426.257812" xlink:href="#DejaVuSans-61"/>
    <use x="3487.537109" xlink:href="#DejaVuSans-72"/>
    <use x="3528.650391" xlink:href="#DejaVuSans-61"/>
    <use x="3589.929688" xlink:href="#DejaVuSans-67"/>
    <use x="3653.40625" xlink:href="#DejaVuSans-75"/>
    <use x="3716.785156" xlink:href="#DejaVuSans-61"/>
    <use x="3778.064453" xlink:href="#DejaVuSans-79"/>
    <use x="3837.244141" xlink:href="#DejaVuSans-29"/>
   </g>
  </g>
 </g>
 <defs>
  <clipPath id="p0d2f4010a7">
   <rect height="271.8" width="558" x="46.965625" y="43.2"/>
  </clipPath>
 </defs>
</svg>
