<?xml version="1.0" encoding="utf-8" standalone="no"?>
<!DOCTYPE svg PUBLIC "-//W3C//DTD SVG 1.1//EN"
  "http://www.w3.org/Graphics/SVG/1.1/DTD/svg11.dtd">
<svg height="414.11625pt" version="1.1" viewBox="0 0 563.58975 414.11625" width="563.58975pt" xmlns="http://www.w3.org/2000/svg" xmlns:xlink="http://www.w3.org/1999/xlink">
 <metadata>
  <rdf:RDF xmlns:cc="http://creativecommons.org/ns#" xmlns:dc="http://purl.org/dc/elements/1.1/" xmlns:rdf="http://www.w3.org/1999/02/22-rdf-syntax-ns#">
   <cc:Work>
    <dc:type rdf:resource="http://purl.org/dc/dcmitype/StillImage"/>
    <dc:date>2022-05-30T17:02:01.762943</dc:date>
    <dc:format>image/svg+xml</dc:format>
    <dc:creator>
     <cc:Agent>
      <dc:title>Matplotlib v3.4.3, https://matplotlib.org/</dc:title>
     </cc:Agent>
    </dc:creator>
   </cc:Work>
  </rdf:RDF>
 </metadata>
 <defs>
  <style type="text/css">*{stroke-linecap:butt;stroke-linejoin:round;}</style>
 </defs>
 <g id="figure_1">
  <g id="patch_1">
   <path d="M 0 414.11625 
L 563.58975 414.11625 
L 563.58975 0 
L 0 0 
z
" style="fill:#ffffff;"/>
  </g>
  <g id="axes_1">
   <g id="patch_2">
    <path d="M 40.603125 376.56 
L 542.803125 376.56 
L 542.803125 50.4 
L 40.603125 50.4 
z
" style="fill:#ffffff;"/>
   </g>
   <g id="matplotlib.axis_1">
    <g id="xtick_1">
     <g id="text_1">
      <!-- 1 -->
      <g style="fill:#262626;" transform="translate(58.346875 391.158437)scale(0.1 -0.1)">
       <defs>
        <path d="M 794 531 
L 1825 531 
L 1825 4091 
L 703 3866 
L 703 4441 
L 1819 4666 
L 2450 4666 
L 2450 531 
L 3481 531 
L 3481 0 
L 794 0 
L 794 531 
z
" id="DejaVuSans-31" transform="scale(0.015625)"/>
       </defs>
       <use xlink:href="#DejaVuSans-31"/>
      </g>
     </g>
    </g>
    <g id="xtick_2">
     <g id="text_2">
      <!-- 2 -->
      <g style="fill:#262626;" transform="translate(100.196875 391.158437)scale(0.1 -0.1)">
       <defs>
        <path d="M 1228 531 
L 3431 531 
L 3431 0 
L 469 0 
L 469 531 
Q 828 903 1448 1529 
Q 2069 2156 2228 2338 
Q 2531 2678 2651 2914 
Q 2772 3150 2772 3378 
Q 2772 3750 2511 3984 
Q 2250 4219 1831 4219 
Q 1534 4219 1204 4116 
Q 875 4013 500 3803 
L 500 4441 
Q 881 4594 1212 4672 
Q 1544 4750 1819 4750 
Q 2544 4750 2975 4387 
Q 3406 4025 3406 3419 
Q 3406 3131 3298 2873 
Q 3191 2616 2906 2266 
Q 2828 2175 2409 1742 
Q 1991 1309 1228 531 
z
" id="DejaVuSans-32" transform="scale(0.015625)"/>
       </defs>
       <use xlink:href="#DejaVuSans-32"/>
      </g>
     </g>
    </g>
    <g id="xtick_3">
     <g id="text_3">
      <!-- 3 -->
      <g style="fill:#262626;" transform="translate(142.046875 391.158437)scale(0.1 -0.1)">
       <defs>
        <path d="M 2597 2516 
Q 3050 2419 3304 2112 
Q 3559 1806 3559 1356 
Q 3559 666 3084 287 
Q 2609 -91 1734 -91 
Q 1441 -91 1130 -33 
Q 819 25 488 141 
L 488 750 
Q 750 597 1062 519 
Q 1375 441 1716 441 
Q 2309 441 2620 675 
Q 2931 909 2931 1356 
Q 2931 1769 2642 2001 
Q 2353 2234 1838 2234 
L 1294 2234 
L 1294 2753 
L 1863 2753 
Q 2328 2753 2575 2939 
Q 2822 3125 2822 3475 
Q 2822 3834 2567 4026 
Q 2313 4219 1838 4219 
Q 1578 4219 1281 4162 
Q 984 4106 628 3988 
L 628 4550 
Q 988 4650 1302 4700 
Q 1616 4750 1894 4750 
Q 2613 4750 3031 4423 
Q 3450 4097 3450 3541 
Q 3450 3153 3228 2886 
Q 3006 2619 2597 2516 
z
" id="DejaVuSans-33" transform="scale(0.015625)"/>
       </defs>
       <use xlink:href="#DejaVuSans-33"/>
      </g>
     </g>
    </g>
    <g id="xtick_4">
     <g id="text_4">
      <!-- 4 -->
      <g style="fill:#262626;" transform="translate(183.896875 391.158437)scale(0.1 -0.1)">
       <defs>
        <path d="M 2419 4116 
L 825 1625 
L 2419 1625 
L 2419 4116 
z
M 2253 4666 
L 3047 4666 
L 3047 1625 
L 3713 1625 
L 3713 1100 
L 3047 1100 
L 3047 0 
L 2419 0 
L 2419 1100 
L 313 1100 
L 313 1709 
L 2253 4666 
z
" id="DejaVuSans-34" transform="scale(0.015625)"/>
       </defs>
       <use xlink:href="#DejaVuSans-34"/>
      </g>
     </g>
    </g>
    <g id="xtick_5">
     <g id="text_5">
      <!-- 5 -->
      <g style="fill:#262626;" transform="translate(225.746875 391.158437)scale(0.1 -0.1)">
       <defs>
        <path d="M 691 4666 
L 3169 4666 
L 3169 4134 
L 1269 4134 
L 1269 2991 
Q 1406 3038 1543 3061 
Q 1681 3084 1819 3084 
Q 2600 3084 3056 2656 
Q 3513 2228 3513 1497 
Q 3513 744 3044 326 
Q 2575 -91 1722 -91 
Q 1428 -91 1123 -41 
Q 819 9 494 109 
L 494 744 
Q 775 591 1075 516 
Q 1375 441 1709 441 
Q 2250 441 2565 725 
Q 2881 1009 2881 1497 
Q 2881 1984 2565 2268 
Q 2250 2553 1709 2553 
Q 1456 2553 1204 2497 
Q 953 2441 691 2322 
L 691 4666 
z
" id="DejaVuSans-35" transform="scale(0.015625)"/>
       </defs>
       <use xlink:href="#DejaVuSans-35"/>
      </g>
     </g>
    </g>
    <g id="xtick_6">
     <g id="text_6">
      <!-- 6 -->
      <g style="fill:#262626;" transform="translate(267.596875 391.158437)scale(0.1 -0.1)">
       <defs>
        <path d="M 2113 2584 
Q 1688 2584 1439 2293 
Q 1191 2003 1191 1497 
Q 1191 994 1439 701 
Q 1688 409 2113 409 
Q 2538 409 2786 701 
Q 3034 994 3034 1497 
Q 3034 2003 2786 2293 
Q 2538 2584 2113 2584 
z
M 3366 4563 
L 3366 3988 
Q 3128 4100 2886 4159 
Q 2644 4219 2406 4219 
Q 1781 4219 1451 3797 
Q 1122 3375 1075 2522 
Q 1259 2794 1537 2939 
Q 1816 3084 2150 3084 
Q 2853 3084 3261 2657 
Q 3669 2231 3669 1497 
Q 3669 778 3244 343 
Q 2819 -91 2113 -91 
Q 1303 -91 875 529 
Q 447 1150 447 2328 
Q 447 3434 972 4092 
Q 1497 4750 2381 4750 
Q 2619 4750 2861 4703 
Q 3103 4656 3366 4563 
z
" id="DejaVuSans-36" transform="scale(0.015625)"/>
       </defs>
       <use xlink:href="#DejaVuSans-36"/>
      </g>
     </g>
    </g>
    <g id="xtick_7">
     <g id="text_7">
      <!-- 7 -->
      <g style="fill:#262626;" transform="translate(309.446875 391.158437)scale(0.1 -0.1)">
       <defs>
        <path d="M 525 4666 
L 3525 4666 
L 3525 4397 
L 1831 0 
L 1172 0 
L 2766 4134 
L 525 4134 
L 525 4666 
z
" id="DejaVuSans-37" transform="scale(0.015625)"/>
       </defs>
       <use xlink:href="#DejaVuSans-37"/>
      </g>
     </g>
    </g>
    <g id="xtick_8">
     <g id="text_8">
      <!-- 8 -->
      <g style="fill:#262626;" transform="translate(351.296875 391.158437)scale(0.1 -0.1)">
       <defs>
        <path d="M 2034 2216 
Q 1584 2216 1326 1975 
Q 1069 1734 1069 1313 
Q 1069 891 1326 650 
Q 1584 409 2034 409 
Q 2484 409 2743 651 
Q 3003 894 3003 1313 
Q 3003 1734 2745 1975 
Q 2488 2216 2034 2216 
z
M 1403 2484 
Q 997 2584 770 2862 
Q 544 3141 544 3541 
Q 544 4100 942 4425 
Q 1341 4750 2034 4750 
Q 2731 4750 3128 4425 
Q 3525 4100 3525 3541 
Q 3525 3141 3298 2862 
Q 3072 2584 2669 2484 
Q 3125 2378 3379 2068 
Q 3634 1759 3634 1313 
Q 3634 634 3220 271 
Q 2806 -91 2034 -91 
Q 1263 -91 848 271 
Q 434 634 434 1313 
Q 434 1759 690 2068 
Q 947 2378 1403 2484 
z
M 1172 3481 
Q 1172 3119 1398 2916 
Q 1625 2713 2034 2713 
Q 2441 2713 2670 2916 
Q 2900 3119 2900 3481 
Q 2900 3844 2670 4047 
Q 2441 4250 2034 4250 
Q 1625 4250 1398 4047 
Q 1172 3844 1172 3481 
z
" id="DejaVuSans-38" transform="scale(0.015625)"/>
       </defs>
       <use xlink:href="#DejaVuSans-38"/>
      </g>
     </g>
    </g>
    <g id="xtick_9">
     <g id="text_9">
      <!-- 9 -->
      <g style="fill:#262626;" transform="translate(393.146875 391.158437)scale(0.1 -0.1)">
       <defs>
        <path d="M 703 97 
L 703 672 
Q 941 559 1184 500 
Q 1428 441 1663 441 
Q 2288 441 2617 861 
Q 2947 1281 2994 2138 
Q 2813 1869 2534 1725 
Q 2256 1581 1919 1581 
Q 1219 1581 811 2004 
Q 403 2428 403 3163 
Q 403 3881 828 4315 
Q 1253 4750 1959 4750 
Q 2769 4750 3195 4129 
Q 3622 3509 3622 2328 
Q 3622 1225 3098 567 
Q 2575 -91 1691 -91 
Q 1453 -91 1209 -44 
Q 966 3 703 97 
z
M 1959 2075 
Q 2384 2075 2632 2365 
Q 2881 2656 2881 3163 
Q 2881 3666 2632 3958 
Q 2384 4250 1959 4250 
Q 1534 4250 1286 3958 
Q 1038 3666 1038 3163 
Q 1038 2656 1286 2365 
Q 1534 2075 1959 2075 
z
" id="DejaVuSans-39" transform="scale(0.015625)"/>
       </defs>
       <use xlink:href="#DejaVuSans-39"/>
      </g>
     </g>
    </g>
    <g id="xtick_10">
     <g id="text_10">
      <!-- 10 -->
      <g style="fill:#262626;" transform="translate(431.815625 391.158437)scale(0.1 -0.1)">
       <defs>
        <path d="M 2034 4250 
Q 1547 4250 1301 3770 
Q 1056 3291 1056 2328 
Q 1056 1369 1301 889 
Q 1547 409 2034 409 
Q 2525 409 2770 889 
Q 3016 1369 3016 2328 
Q 3016 3291 2770 3770 
Q 2525 4250 2034 4250 
z
M 2034 4750 
Q 2819 4750 3233 4129 
Q 3647 3509 3647 2328 
Q 3647 1150 3233 529 
Q 2819 -91 2034 -91 
Q 1250 -91 836 529 
Q 422 1150 422 2328 
Q 422 3509 836 4129 
Q 1250 4750 2034 4750 
z
" id="DejaVuSans-30" transform="scale(0.015625)"/>
       </defs>
       <use xlink:href="#DejaVuSans-31"/>
       <use x="63.623047" xlink:href="#DejaVuSans-30"/>
      </g>
     </g>
    </g>
    <g id="xtick_11">
     <g id="text_11">
      <!-- 11 -->
      <g style="fill:#262626;" transform="translate(473.665625 391.158437)scale(0.1 -0.1)">
       <use xlink:href="#DejaVuSans-31"/>
       <use x="63.623047" xlink:href="#DejaVuSans-31"/>
      </g>
     </g>
    </g>
    <g id="xtick_12">
     <g id="text_12">
      <!-- 12 -->
      <g style="fill:#262626;" transform="translate(515.515625 391.158437)scale(0.1 -0.1)">
       <use xlink:href="#DejaVuSans-31"/>
       <use x="63.623047" xlink:href="#DejaVuSans-32"/>
      </g>
     </g>
    </g>
    <g id="text_13">
     <!-- Mes del año -->
     <g style="fill:#262626;" transform="translate(261.597656 404.836562)scale(0.1 -0.1)">
      <defs>
       <path d="M 628 4666 
L 1569 4666 
L 2759 1491 
L 3956 4666 
L 4897 4666 
L 4897 0 
L 4281 0 
L 4281 4097 
L 3078 897 
L 2444 897 
L 1241 4097 
L 1241 0 
L 628 0 
L 628 4666 
z
" id="DejaVuSans-4d" transform="scale(0.015625)"/>
       <path d="M 3597 1894 
L 3597 1613 
L 953 1613 
Q 991 1019 1311 708 
Q 1631 397 2203 397 
Q 2534 397 2845 478 
Q 3156 559 3463 722 
L 3463 178 
Q 3153 47 2828 -22 
Q 2503 -91 2169 -91 
Q 1331 -91 842 396 
Q 353 884 353 1716 
Q 353 2575 817 3079 
Q 1281 3584 2069 3584 
Q 2775 3584 3186 3129 
Q 3597 2675 3597 1894 
z
M 3022 2063 
Q 3016 2534 2758 2815 
Q 2500 3097 2075 3097 
Q 1594 3097 1305 2825 
Q 1016 2553 972 2059 
L 3022 2063 
z
" id="DejaVuSans-65" transform="scale(0.015625)"/>
       <path d="M 2834 3397 
L 2834 2853 
Q 2591 2978 2328 3040 
Q 2066 3103 1784 3103 
Q 1356 3103 1142 2972 
Q 928 2841 928 2578 
Q 928 2378 1081 2264 
Q 1234 2150 1697 2047 
L 1894 2003 
Q 2506 1872 2764 1633 
Q 3022 1394 3022 966 
Q 3022 478 2636 193 
Q 2250 -91 1575 -91 
Q 1294 -91 989 -36 
Q 684 19 347 128 
L 347 722 
Q 666 556 975 473 
Q 1284 391 1588 391 
Q 1994 391 2212 530 
Q 2431 669 2431 922 
Q 2431 1156 2273 1281 
Q 2116 1406 1581 1522 
L 1381 1569 
Q 847 1681 609 1914 
Q 372 2147 372 2553 
Q 372 3047 722 3315 
Q 1072 3584 1716 3584 
Q 2034 3584 2315 3537 
Q 2597 3491 2834 3397 
z
" id="DejaVuSans-73" transform="scale(0.015625)"/>
       <path id="DejaVuSans-20" transform="scale(0.015625)"/>
       <path d="M 2906 2969 
L 2906 4863 
L 3481 4863 
L 3481 0 
L 2906 0 
L 2906 525 
Q 2725 213 2448 61 
Q 2172 -91 1784 -91 
Q 1150 -91 751 415 
Q 353 922 353 1747 
Q 353 2572 751 3078 
Q 1150 3584 1784 3584 
Q 2172 3584 2448 3432 
Q 2725 3281 2906 2969 
z
M 947 1747 
Q 947 1113 1208 752 
Q 1469 391 1925 391 
Q 2381 391 2643 752 
Q 2906 1113 2906 1747 
Q 2906 2381 2643 2742 
Q 2381 3103 1925 3103 
Q 1469 3103 1208 2742 
Q 947 2381 947 1747 
z
" id="DejaVuSans-64" transform="scale(0.015625)"/>
       <path d="M 603 4863 
L 1178 4863 
L 1178 0 
L 603 0 
L 603 4863 
z
" id="DejaVuSans-6c" transform="scale(0.015625)"/>
       <path d="M 2194 1759 
Q 1497 1759 1228 1600 
Q 959 1441 959 1056 
Q 959 750 1161 570 
Q 1363 391 1709 391 
Q 2188 391 2477 730 
Q 2766 1069 2766 1631 
L 2766 1759 
L 2194 1759 
z
M 3341 1997 
L 3341 0 
L 2766 0 
L 2766 531 
Q 2569 213 2275 61 
Q 1981 -91 1556 -91 
Q 1019 -91 701 211 
Q 384 513 384 1019 
Q 384 1609 779 1909 
Q 1175 2209 1959 2209 
L 2766 2209 
L 2766 2266 
Q 2766 2663 2505 2880 
Q 2244 3097 1772 3097 
Q 1472 3097 1187 3025 
Q 903 2953 641 2809 
L 641 3341 
Q 956 3463 1253 3523 
Q 1550 3584 1831 3584 
Q 2591 3584 2966 3190 
Q 3341 2797 3341 1997 
z
" id="DejaVuSans-61" transform="scale(0.015625)"/>
       <path d="M 3513 2113 
L 3513 0 
L 2938 0 
L 2938 2094 
Q 2938 2591 2744 2837 
Q 2550 3084 2163 3084 
Q 1697 3084 1428 2787 
Q 1159 2491 1159 1978 
L 1159 0 
L 581 0 
L 581 3500 
L 1159 3500 
L 1159 2956 
Q 1366 3272 1645 3428 
Q 1925 3584 2291 3584 
Q 2894 3584 3203 3211 
Q 3513 2838 3513 2113 
z
M 2060 4281 
L 1881 4453 
Q 1813 4516 1761 4545 
Q 1710 4575 1669 4575 
Q 1550 4575 1494 4461 
Q 1438 4347 1431 4091 
L 1041 4091 
Q 1047 4513 1206 4742 
Q 1366 4972 1650 4972 
Q 1769 4972 1869 4928 
Q 1969 4884 2085 4781 
L 2263 4609 
Q 2331 4547 2383 4517 
Q 2435 4488 2475 4488 
Q 2594 4488 2650 4602 
Q 2706 4716 2713 4972 
L 3103 4972 
Q 3097 4550 2937 4320 
Q 2778 4091 2494 4091 
Q 2375 4091 2275 4134 
Q 2175 4178 2060 4281 
z
" id="DejaVuSans-f1" transform="scale(0.015625)"/>
       <path d="M 1959 3097 
Q 1497 3097 1228 2736 
Q 959 2375 959 1747 
Q 959 1119 1226 758 
Q 1494 397 1959 397 
Q 2419 397 2687 759 
Q 2956 1122 2956 1747 
Q 2956 2369 2687 2733 
Q 2419 3097 1959 3097 
z
M 1959 3584 
Q 2709 3584 3137 3096 
Q 3566 2609 3566 1747 
Q 3566 888 3137 398 
Q 2709 -91 1959 -91 
Q 1206 -91 779 398 
Q 353 888 353 1747 
Q 353 2609 779 3096 
Q 1206 3584 1959 3584 
z
" id="DejaVuSans-6f" transform="scale(0.015625)"/>
      </defs>
      <use xlink:href="#DejaVuSans-4d"/>
      <use x="86.279297" xlink:href="#DejaVuSans-65"/>
      <use x="147.802734" xlink:href="#DejaVuSans-73"/>
      <use x="199.902344" xlink:href="#DejaVuSans-20"/>
      <use x="231.689453" xlink:href="#DejaVuSans-64"/>
      <use x="295.166016" xlink:href="#DejaVuSans-65"/>
      <use x="356.689453" xlink:href="#DejaVuSans-6c"/>
      <use x="384.472656" xlink:href="#DejaVuSans-20"/>
      <use x="416.259766" xlink:href="#DejaVuSans-61"/>
      <use x="477.539062" xlink:href="#DejaVuSans-f1"/>
      <use x="540.917969" xlink:href="#DejaVuSans-6f"/>
     </g>
    </g>
   </g>
   <g id="matplotlib.axis_2">
    <g id="ytick_1">
     <g id="line2d_1">
      <path clip-path="url(#p9c443983c6)" d="M 40.603125 342.305175 
L 542.803125 342.305175 
" style="fill:none;stroke:#cccccc;stroke-linecap:round;stroke-width:0.8;"/>
     </g>
     <g id="text_14">
      <!-- 10 -->
      <g style="fill:#262626;" transform="translate(20.878125 346.104394)scale(0.1 -0.1)">
       <use xlink:href="#DejaVuSans-31"/>
       <use x="63.623047" xlink:href="#DejaVuSans-30"/>
      </g>
     </g>
    </g>
    <g id="ytick_2">
     <g id="line2d_2">
      <path clip-path="url(#p9c443983c6)" d="M 40.603125 300.067413 
L 542.803125 300.067413 
" style="fill:none;stroke:#cccccc;stroke-linecap:round;stroke-width:0.8;"/>
     </g>
     <g id="text_15">
      <!-- 15 -->
      <g style="fill:#262626;" transform="translate(20.878125 303.866631)scale(0.1 -0.1)">
       <use xlink:href="#DejaVuSans-31"/>
       <use x="63.623047" xlink:href="#DejaVuSans-35"/>
      </g>
     </g>
    </g>
    <g id="ytick_3">
     <g id="line2d_3">
      <path clip-path="url(#p9c443983c6)" d="M 40.603125 257.82965 
L 542.803125 257.82965 
" style="fill:none;stroke:#cccccc;stroke-linecap:round;stroke-width:0.8;"/>
     </g>
     <g id="text_16">
      <!-- 20 -->
      <g style="fill:#262626;" transform="translate(20.878125 261.628869)scale(0.1 -0.1)">
       <use xlink:href="#DejaVuSans-32"/>
       <use x="63.623047" xlink:href="#DejaVuSans-30"/>
      </g>
     </g>
    </g>
    <g id="ytick_4">
     <g id="line2d_4">
      <path clip-path="url(#p9c443983c6)" d="M 40.603125 215.591888 
L 542.803125 215.591888 
" style="fill:none;stroke:#cccccc;stroke-linecap:round;stroke-width:0.8;"/>
     </g>
     <g id="text_17">
      <!-- 25 -->
      <g style="fill:#262626;" transform="translate(20.878125 219.391107)scale(0.1 -0.1)">
       <use xlink:href="#DejaVuSans-32"/>
       <use x="63.623047" xlink:href="#DejaVuSans-35"/>
      </g>
     </g>
    </g>
    <g id="ytick_5">
     <g id="line2d_5">
      <path clip-path="url(#p9c443983c6)" d="M 40.603125 173.354126 
L 542.803125 173.354126 
" style="fill:none;stroke:#cccccc;stroke-linecap:round;stroke-width:0.8;"/>
     </g>
     <g id="text_18">
      <!-- 30 -->
      <g style="fill:#262626;" transform="translate(20.878125 177.153345)scale(0.1 -0.1)">
       <use xlink:href="#DejaVuSans-33"/>
       <use x="63.623047" xlink:href="#DejaVuSans-30"/>
      </g>
     </g>
    </g>
    <g id="ytick_6">
     <g id="line2d_6">
      <path clip-path="url(#p9c443983c6)" d="M 40.603125 131.116364 
L 542.803125 131.116364 
" style="fill:none;stroke:#cccccc;stroke-linecap:round;stroke-width:0.8;"/>
     </g>
     <g id="text_19">
      <!-- 35 -->
      <g style="fill:#262626;" transform="translate(20.878125 134.915582)scale(0.1 -0.1)">
       <use xlink:href="#DejaVuSans-33"/>
       <use x="63.623047" xlink:href="#DejaVuSans-35"/>
      </g>
     </g>
    </g>
    <g id="ytick_7">
     <g id="line2d_7">
      <path clip-path="url(#p9c443983c6)" d="M 40.603125 88.878601 
L 542.803125 88.878601 
" style="fill:none;stroke:#cccccc;stroke-linecap:round;stroke-width:0.8;"/>
     </g>
     <g id="text_20">
      <!-- 40 -->
      <g style="fill:#262626;" transform="translate(20.878125 92.67782)scale(0.1 -0.1)">
       <use xlink:href="#DejaVuSans-34"/>
       <use x="63.623047" xlink:href="#DejaVuSans-30"/>
      </g>
     </g>
    </g>
    <g id="text_21">
     <!-- Temperatura (ºC) -->
     <g style="fill:#262626;" transform="translate(14.798438 256.587812)rotate(-90)scale(0.1 -0.1)">
      <defs>
       <path d="M -19 4666 
L 3928 4666 
L 3928 4134 
L 2272 4134 
L 2272 0 
L 1638 0 
L 1638 4134 
L -19 4134 
L -19 4666 
z
" id="DejaVuSans-54" transform="scale(0.015625)"/>
       <path d="M 3328 2828 
Q 3544 3216 3844 3400 
Q 4144 3584 4550 3584 
Q 5097 3584 5394 3201 
Q 5691 2819 5691 2113 
L 5691 0 
L 5113 0 
L 5113 2094 
Q 5113 2597 4934 2840 
Q 4756 3084 4391 3084 
Q 3944 3084 3684 2787 
Q 3425 2491 3425 1978 
L 3425 0 
L 2847 0 
L 2847 2094 
Q 2847 2600 2669 2842 
Q 2491 3084 2119 3084 
Q 1678 3084 1418 2786 
Q 1159 2488 1159 1978 
L 1159 0 
L 581 0 
L 581 3500 
L 1159 3500 
L 1159 2956 
Q 1356 3278 1631 3431 
Q 1906 3584 2284 3584 
Q 2666 3584 2933 3390 
Q 3200 3197 3328 2828 
z
" id="DejaVuSans-6d" transform="scale(0.015625)"/>
       <path d="M 1159 525 
L 1159 -1331 
L 581 -1331 
L 581 3500 
L 1159 3500 
L 1159 2969 
Q 1341 3281 1617 3432 
Q 1894 3584 2278 3584 
Q 2916 3584 3314 3078 
Q 3713 2572 3713 1747 
Q 3713 922 3314 415 
Q 2916 -91 2278 -91 
Q 1894 -91 1617 61 
Q 1341 213 1159 525 
z
M 3116 1747 
Q 3116 2381 2855 2742 
Q 2594 3103 2138 3103 
Q 1681 3103 1420 2742 
Q 1159 2381 1159 1747 
Q 1159 1113 1420 752 
Q 1681 391 2138 391 
Q 2594 391 2855 752 
Q 3116 1113 3116 1747 
z
" id="DejaVuSans-70" transform="scale(0.015625)"/>
       <path d="M 2631 2963 
Q 2534 3019 2420 3045 
Q 2306 3072 2169 3072 
Q 1681 3072 1420 2755 
Q 1159 2438 1159 1844 
L 1159 0 
L 581 0 
L 581 3500 
L 1159 3500 
L 1159 2956 
Q 1341 3275 1631 3429 
Q 1922 3584 2338 3584 
Q 2397 3584 2469 3576 
Q 2541 3569 2628 3553 
L 2631 2963 
z
" id="DejaVuSans-72" transform="scale(0.015625)"/>
       <path d="M 1172 4494 
L 1172 3500 
L 2356 3500 
L 2356 3053 
L 1172 3053 
L 1172 1153 
Q 1172 725 1289 603 
Q 1406 481 1766 481 
L 2356 481 
L 2356 0 
L 1766 0 
Q 1100 0 847 248 
Q 594 497 594 1153 
L 594 3053 
L 172 3053 
L 172 3500 
L 594 3500 
L 594 4494 
L 1172 4494 
z
" id="DejaVuSans-74" transform="scale(0.015625)"/>
       <path d="M 544 1381 
L 544 3500 
L 1119 3500 
L 1119 1403 
Q 1119 906 1312 657 
Q 1506 409 1894 409 
Q 2359 409 2629 706 
Q 2900 1003 2900 1516 
L 2900 3500 
L 3475 3500 
L 3475 0 
L 2900 0 
L 2900 538 
Q 2691 219 2414 64 
Q 2138 -91 1772 -91 
Q 1169 -91 856 284 
Q 544 659 544 1381 
z
M 1991 3584 
L 1991 3584 
z
" id="DejaVuSans-75" transform="scale(0.015625)"/>
       <path d="M 1984 4856 
Q 1566 4138 1362 3434 
Q 1159 2731 1159 2009 
Q 1159 1288 1364 580 
Q 1569 -128 1984 -844 
L 1484 -844 
Q 1016 -109 783 600 
Q 550 1309 550 2009 
Q 550 2706 781 3412 
Q 1013 4119 1484 4856 
L 1984 4856 
z
" id="DejaVuSans-28" transform="scale(0.015625)"/>
       <path d="M 434 1850 
L 2584 1850 
L 2584 1466 
L 434 1466 
L 434 1850 
z
M 1509 4750 
Q 2069 4750 2391 4404 
Q 2713 4059 2713 3463 
Q 2713 2866 2391 2523 
Q 2069 2181 1509 2181 
Q 950 2181 625 2525 
Q 300 2869 300 3463 
Q 300 4059 625 4404 
Q 950 4750 1509 4750 
z
M 1509 4391 
Q 1181 4391 984 4139 
Q 788 3888 788 3463 
Q 788 3047 986 2797 
Q 1184 2547 1509 2547 
Q 1838 2547 2033 2797 
Q 2228 3047 2228 3463 
Q 2228 3891 2034 4141 
Q 1841 4391 1509 4391 
z
" id="DejaVuSans-ba" transform="scale(0.015625)"/>
       <path d="M 4122 4306 
L 4122 3641 
Q 3803 3938 3442 4084 
Q 3081 4231 2675 4231 
Q 1875 4231 1450 3742 
Q 1025 3253 1025 2328 
Q 1025 1406 1450 917 
Q 1875 428 2675 428 
Q 3081 428 3442 575 
Q 3803 722 4122 1019 
L 4122 359 
Q 3791 134 3420 21 
Q 3050 -91 2638 -91 
Q 1578 -91 968 557 
Q 359 1206 359 2328 
Q 359 3453 968 4101 
Q 1578 4750 2638 4750 
Q 3056 4750 3426 4639 
Q 3797 4528 4122 4306 
z
" id="DejaVuSans-43" transform="scale(0.015625)"/>
       <path d="M 513 4856 
L 1013 4856 
Q 1481 4119 1714 3412 
Q 1947 2706 1947 2009 
Q 1947 1309 1714 600 
Q 1481 -109 1013 -844 
L 513 -844 
Q 928 -128 1133 580 
Q 1338 1288 1338 2009 
Q 1338 2731 1133 3434 
Q 928 4138 513 4856 
z
" id="DejaVuSans-29" transform="scale(0.015625)"/>
      </defs>
      <use xlink:href="#DejaVuSans-54"/>
      <use x="44.083984" xlink:href="#DejaVuSans-65"/>
      <use x="105.607422" xlink:href="#DejaVuSans-6d"/>
      <use x="203.019531" xlink:href="#DejaVuSans-70"/>
      <use x="266.496094" xlink:href="#DejaVuSans-65"/>
      <use x="328.019531" xlink:href="#DejaVuSans-72"/>
      <use x="369.132812" xlink:href="#DejaVuSans-61"/>
      <use x="430.412109" xlink:href="#DejaVuSans-74"/>
      <use x="469.621094" xlink:href="#DejaVuSans-75"/>
      <use x="533" xlink:href="#DejaVuSans-72"/>
      <use x="574.113281" xlink:href="#DejaVuSans-61"/>
      <use x="635.392578" xlink:href="#DejaVuSans-20"/>
      <use x="667.179688" xlink:href="#DejaVuSans-28"/>
      <use x="706.193359" xlink:href="#DejaVuSans-ba"/>
      <use x="753.3125" xlink:href="#DejaVuSans-43"/>
      <use x="823.136719" xlink:href="#DejaVuSans-29"/>
     </g>
    </g>
   </g>
   <g id="patch_3">
    <path clip-path="url(#p9c443983c6)" d="M 44.788125 186.025455 
L 78.268125 186.025455 
L 78.268125 137.874406 
L 44.788125 137.874406 
L 44.788125 186.025455 
z
" style="fill:#ea96a3;stroke:#464646;stroke-linejoin:miter;stroke-width:1.5;"/>
   </g>
   <g id="patch_4">
    <path clip-path="url(#p9c443983c6)" d="M 86.638125 202.075804 
L 120.118125 202.075804 
L 120.118125 153.08 
L 86.638125 153.08 
L 86.638125 202.075804 
z
" style="fill:#e19153;stroke:#464646;stroke-linejoin:miter;stroke-width:1.5;"/>
   </g>
   <g id="patch_5">
    <path clip-path="url(#p9c443983c6)" d="M 128.488125 222.34993 
L 161.968125 222.34993 
L 161.968125 176.310769 
L 128.488125 176.310769 
L 128.488125 222.34993 
z
" style="fill:#b89c49;stroke:#464646;stroke-linejoin:miter;stroke-width:1.5;"/>
   </g>
   <g id="patch_6">
    <path clip-path="url(#p9c443983c6)" d="M 170.338125 263.109371 
L 203.818125 263.109371 
L 203.818125 218.970909 
L 170.338125 218.970909 
L 170.338125 263.109371 
z
" style="fill:#98a246;stroke:#464646;stroke-linejoin:miter;stroke-width:1.5;"/>
   </g>
   <g id="patch_7">
    <path clip-path="url(#p9c443983c6)" d="M 212.188125 297.110769 
L 245.668125 297.110769 
L 245.668125 254.028252 
L 212.188125 254.028252 
L 212.188125 297.110769 
z
" style="fill:#60ae47;stroke:#464646;stroke-linejoin:miter;stroke-width:1.5;"/>
   </g>
   <g id="patch_8">
    <path clip-path="url(#p9c443983c6)" d="M 254.038125 310.204476 
L 287.518125 310.204476 
L 287.518125 277.047832 
L 254.038125 277.047832 
L 254.038125 310.204476 
z
" style="fill:#4aae8a;stroke:#464646;stroke-linejoin:miter;stroke-width:1.5;"/>
   </g>
   <g id="patch_9">
    <path clip-path="url(#p9c443983c6)" d="M 295.888125 322.242238 
L 329.368125 322.242238 
L 329.368125 279.582098 
L 295.888125 279.582098 
L 295.888125 322.242238 
z
" style="fill:#4baba4;stroke:#464646;stroke-linejoin:miter;stroke-width:1.5;"/>
   </g>
   <g id="patch_10">
    <path clip-path="url(#p9c443983c6)" d="M 337.738125 293.520559 
L 371.218125 293.520559 
L 371.218125 254.028252 
L 337.738125 254.028252 
L 337.738125 293.520559 
z
" style="fill:#4fabbc;stroke:#464646;stroke-linejoin:miter;stroke-width:1.5;"/>
   </g>
   <g id="patch_11">
    <path clip-path="url(#p9c443983c6)" d="M 379.588125 282.961119 
L 413.068125 282.961119 
L 413.068125 237.555524 
L 379.588125 237.555524 
L 379.588125 282.961119 
z
" style="fill:#6daee2;stroke:#464646;stroke-linejoin:miter;stroke-width:1.5;"/>
   </g>
   <g id="patch_12">
    <path clip-path="url(#p9c443983c6)" d="M 421.438125 269.656224 
L 454.918125 269.656224 
L 454.918125 215.591888 
L 421.438125 215.591888 
L 421.438125 269.656224 
z
" style="fill:#b6a8eb;stroke:#464646;stroke-linejoin:miter;stroke-width:1.5;"/>
   </g>
   <g id="patch_13">
    <path clip-path="url(#p9c443983c6)" d="M 463.288125 225.94014 
L 496.768125 225.94014 
L 496.768125 179.267413 
L 463.288125 179.267413 
L 463.288125 225.94014 
z
" style="fill:#df8fe7;stroke:#464646;stroke-linejoin:miter;stroke-width:1.5;"/>
   </g>
   <g id="patch_14">
    <path clip-path="url(#p9c443983c6)" d="M 505.138125 188.55972 
L 538.618125 188.55972 
L 538.618125 147.80028 
L 505.138125 147.80028 
L 505.138125 188.55972 
z
" style="fill:#e890c6;stroke:#464646;stroke-linejoin:miter;stroke-width:1.5;"/>
   </g>
   <g id="line2d_8">
    <path clip-path="url(#p9c443983c6)" d="M 61.528125 186.025455 
L 61.528125 251.071608 
" style="fill:none;stroke:#464646;stroke-linecap:round;stroke-width:1.5;"/>
   </g>
   <g id="line2d_9">
    <path clip-path="url(#p9c443983c6)" d="M 61.528125 137.874406 
L 61.528125 79.586294 
" style="fill:none;stroke:#464646;stroke-linecap:round;stroke-width:1.5;"/>
   </g>
   <g id="line2d_10">
    <path clip-path="url(#p9c443983c6)" d="M 53.158125 251.071608 
L 69.898125 251.071608 
" style="fill:none;stroke:#464646;stroke-linecap:round;stroke-width:1.5;"/>
   </g>
   <g id="line2d_11">
    <path clip-path="url(#p9c443983c6)" d="M 53.158125 79.586294 
L 69.898125 79.586294 
" style="fill:none;stroke:#464646;stroke-linecap:round;stroke-width:1.5;"/>
   </g>
   <g id="line2d_12">
    <defs>
     <path d="M -0 3.535534 
L 2.12132 0 
L -0 -3.535534 
L -2.12132 -0 
z
" id="m2ae67e038f" style="stroke:#464646;stroke-linejoin:miter;"/>
    </defs>
    <g clip-path="url(#p9c443983c6)">
     <use style="fill:#464646;stroke:#464646;stroke-linejoin:miter;" x="61.528125" xlink:href="#m2ae67e038f" y="65.225455"/>
    </g>
   </g>
   <g id="line2d_13">
    <path clip-path="url(#p9c443983c6)" d="M 103.378125 202.075804 
L 103.378125 262.898182 
" style="fill:none;stroke:#464646;stroke-linecap:round;stroke-width:1.5;"/>
   </g>
   <g id="line2d_14">
    <path clip-path="url(#p9c443983c6)" d="M 103.378125 153.08 
L 103.378125 110.842238 
" style="fill:none;stroke:#464646;stroke-linecap:round;stroke-width:1.5;"/>
   </g>
   <g id="line2d_15">
    <path clip-path="url(#p9c443983c6)" d="M 95.008125 262.898182 
L 111.748125 262.898182 
" style="fill:none;stroke:#464646;stroke-linecap:round;stroke-width:1.5;"/>
   </g>
   <g id="line2d_16">
    <path clip-path="url(#p9c443983c6)" d="M 95.008125 110.842238 
L 111.748125 110.842238 
" style="fill:none;stroke:#464646;stroke-linecap:round;stroke-width:1.5;"/>
   </g>
   <g id="line2d_17"/>
   <g id="line2d_18">
    <path clip-path="url(#p9c443983c6)" d="M 145.228125 222.34993 
L 145.228125 281.482797 
" style="fill:none;stroke:#464646;stroke-linecap:round;stroke-width:1.5;"/>
   </g>
   <g id="line2d_19">
    <path clip-path="url(#p9c443983c6)" d="M 145.228125 176.310769 
L 145.228125 127.737343 
" style="fill:none;stroke:#464646;stroke-linecap:round;stroke-width:1.5;"/>
   </g>
   <g id="line2d_20">
    <path clip-path="url(#p9c443983c6)" d="M 136.858125 281.482797 
L 153.598125 281.482797 
" style="fill:none;stroke:#464646;stroke-linecap:round;stroke-width:1.5;"/>
   </g>
   <g id="line2d_21">
    <path clip-path="url(#p9c443983c6)" d="M 136.858125 127.737343 
L 153.598125 127.737343 
" style="fill:none;stroke:#464646;stroke-linecap:round;stroke-width:1.5;"/>
   </g>
   <g id="line2d_22"/>
   <g id="line2d_23">
    <path clip-path="url(#p9c443983c6)" d="M 187.078125 263.109371 
L 187.078125 316.962517 
" style="fill:none;stroke:#464646;stroke-linecap:round;stroke-width:1.5;"/>
   </g>
   <g id="line2d_24">
    <path clip-path="url(#p9c443983c6)" d="M 187.078125 218.970909 
L 187.078125 155.614266 
" style="fill:none;stroke:#464646;stroke-linecap:round;stroke-width:1.5;"/>
   </g>
   <g id="line2d_25">
    <path clip-path="url(#p9c443983c6)" d="M 178.708125 316.962517 
L 195.448125 316.962517 
" style="fill:none;stroke:#464646;stroke-linecap:round;stroke-width:1.5;"/>
   </g>
   <g id="line2d_26">
    <path clip-path="url(#p9c443983c6)" d="M 178.708125 155.614266 
L 195.448125 155.614266 
" style="fill:none;stroke:#464646;stroke-linecap:round;stroke-width:1.5;"/>
   </g>
   <g id="line2d_27">
    <g clip-path="url(#p9c443983c6)">
     <use style="fill:#464646;stroke:#464646;stroke-linejoin:miter;" x="187.078125" xlink:href="#m2ae67e038f" y="152.235245"/>
     <use style="fill:#464646;stroke:#464646;stroke-linejoin:miter;" x="187.078125" xlink:href="#m2ae67e038f" y="141.253427"/>
     <use style="fill:#464646;stroke:#464646;stroke-linejoin:miter;" x="187.078125" xlink:href="#m2ae67e038f" y="150.545734"/>
    </g>
   </g>
   <g id="line2d_28">
    <path clip-path="url(#p9c443983c6)" d="M 228.928125 297.110769 
L 228.928125 338.081399 
" style="fill:none;stroke:#464646;stroke-linecap:round;stroke-width:1.5;"/>
   </g>
   <g id="line2d_29">
    <path clip-path="url(#p9c443983c6)" d="M 228.928125 254.028252 
L 228.928125 196.162517 
" style="fill:none;stroke:#464646;stroke-linecap:round;stroke-width:1.5;"/>
   </g>
   <g id="line2d_30">
    <path clip-path="url(#p9c443983c6)" d="M 220.558125 338.081399 
L 237.298125 338.081399 
" style="fill:none;stroke:#464646;stroke-linecap:round;stroke-width:1.5;"/>
   </g>
   <g id="line2d_31">
    <path clip-path="url(#p9c443983c6)" d="M 220.558125 196.162517 
L 237.298125 196.162517 
" style="fill:none;stroke:#464646;stroke-linecap:round;stroke-width:1.5;"/>
   </g>
   <g id="line2d_32"/>
   <g id="line2d_33">
    <path clip-path="url(#p9c443983c6)" d="M 270.778125 310.204476 
L 270.778125 349.063217 
" style="fill:none;stroke:#464646;stroke-linecap:round;stroke-width:1.5;"/>
   </g>
   <g id="line2d_34">
    <path clip-path="url(#p9c443983c6)" d="M 270.778125 277.047832 
L 270.778125 229.107972 
" style="fill:none;stroke:#464646;stroke-linecap:round;stroke-width:1.5;"/>
   </g>
   <g id="line2d_35">
    <path clip-path="url(#p9c443983c6)" d="M 262.408125 349.063217 
L 279.148125 349.063217 
" style="fill:none;stroke:#464646;stroke-linecap:round;stroke-width:1.5;"/>
   </g>
   <g id="line2d_36">
    <path clip-path="url(#p9c443983c6)" d="M 262.408125 229.107972 
L 279.148125 229.107972 
" style="fill:none;stroke:#464646;stroke-linecap:round;stroke-width:1.5;"/>
   </g>
   <g id="line2d_37">
    <g clip-path="url(#p9c443983c6)">
     <use style="fill:#464646;stroke:#464646;stroke-linejoin:miter;" x="270.778125" xlink:href="#m2ae67e038f" y="213.902378"/>
    </g>
   </g>
   <g id="line2d_38">
    <path clip-path="url(#p9c443983c6)" d="M 312.628125 322.242238 
L 312.628125 361.734545 
" style="fill:none;stroke:#464646;stroke-linecap:round;stroke-width:1.5;"/>
   </g>
   <g id="line2d_39">
    <path clip-path="url(#p9c443983c6)" d="M 312.628125 279.582098 
L 312.628125 236.710769 
" style="fill:none;stroke:#464646;stroke-linecap:round;stroke-width:1.5;"/>
   </g>
   <g id="line2d_40">
    <path clip-path="url(#p9c443983c6)" d="M 304.258125 361.734545 
L 320.998125 361.734545 
" style="fill:none;stroke:#464646;stroke-linecap:round;stroke-width:1.5;"/>
   </g>
   <g id="line2d_41">
    <path clip-path="url(#p9c443983c6)" d="M 304.258125 236.710769 
L 320.998125 236.710769 
" style="fill:none;stroke:#464646;stroke-linecap:round;stroke-width:1.5;"/>
   </g>
   <g id="line2d_42"/>
   <g id="line2d_43">
    <path clip-path="url(#p9c443983c6)" d="M 354.478125 293.520559 
L 354.478125 343.994685 
" style="fill:none;stroke:#464646;stroke-linecap:round;stroke-width:1.5;"/>
   </g>
   <g id="line2d_44">
    <path clip-path="url(#p9c443983c6)" d="M 354.478125 254.028252 
L 354.478125 200.386294 
" style="fill:none;stroke:#464646;stroke-linecap:round;stroke-width:1.5;"/>
   </g>
   <g id="line2d_45">
    <path clip-path="url(#p9c443983c6)" d="M 346.108125 343.994685 
L 362.848125 343.994685 
" style="fill:none;stroke:#464646;stroke-linecap:round;stroke-width:1.5;"/>
   </g>
   <g id="line2d_46">
    <path clip-path="url(#p9c443983c6)" d="M 346.108125 200.386294 
L 362.848125 200.386294 
" style="fill:none;stroke:#464646;stroke-linecap:round;stroke-width:1.5;"/>
   </g>
   <g id="line2d_47">
    <g clip-path="url(#p9c443983c6)">
     <use style="fill:#464646;stroke:#464646;stroke-linejoin:miter;" x="354.478125" xlink:href="#m2ae67e038f" y="191.938741"/>
     <use style="fill:#464646;stroke:#464646;stroke-linejoin:miter;" x="354.478125" xlink:href="#m2ae67e038f" y="173.354126"/>
     <use style="fill:#464646;stroke:#464646;stroke-linejoin:miter;" x="354.478125" xlink:href="#m2ae67e038f" y="171.664615"/>
     <use style="fill:#464646;stroke:#464646;stroke-linejoin:miter;" x="354.478125" xlink:href="#m2ae67e038f" y="175.043636"/>
    </g>
   </g>
   <g id="line2d_48">
    <path clip-path="url(#p9c443983c6)" d="M 396.328125 282.961119 
L 396.328125 342.305175 
" style="fill:none;stroke:#464646;stroke-linecap:round;stroke-width:1.5;"/>
   </g>
   <g id="line2d_49">
    <path clip-path="url(#p9c443983c6)" d="M 396.328125 237.555524 
L 396.328125 186.025455 
" style="fill:none;stroke:#464646;stroke-linecap:round;stroke-width:1.5;"/>
   </g>
   <g id="line2d_50">
    <path clip-path="url(#p9c443983c6)" d="M 387.958125 342.305175 
L 404.698125 342.305175 
" style="fill:none;stroke:#464646;stroke-linecap:round;stroke-width:1.5;"/>
   </g>
   <g id="line2d_51">
    <path clip-path="url(#p9c443983c6)" d="M 387.958125 186.025455 
L 404.698125 186.025455 
" style="fill:none;stroke:#464646;stroke-linecap:round;stroke-width:1.5;"/>
   </g>
   <g id="line2d_52"/>
   <g id="line2d_53">
    <path clip-path="url(#p9c443983c6)" d="M 438.178125 269.656224 
L 438.178125 335.547133 
" style="fill:none;stroke:#464646;stroke-linecap:round;stroke-width:1.5;"/>
   </g>
   <g id="line2d_54">
    <path clip-path="url(#p9c443983c6)" d="M 438.178125 215.591888 
L 438.178125 135.34014 
" style="fill:none;stroke:#464646;stroke-linecap:round;stroke-width:1.5;"/>
   </g>
   <g id="line2d_55">
    <path clip-path="url(#p9c443983c6)" d="M 429.808125 335.547133 
L 446.548125 335.547133 
" style="fill:none;stroke:#464646;stroke-linecap:round;stroke-width:1.5;"/>
   </g>
   <g id="line2d_56">
    <path clip-path="url(#p9c443983c6)" d="M 429.808125 135.34014 
L 446.548125 135.34014 
" style="fill:none;stroke:#464646;stroke-linecap:round;stroke-width:1.5;"/>
   </g>
   <g id="line2d_57"/>
   <g id="line2d_58">
    <path clip-path="url(#p9c443983c6)" d="M 480.028125 225.94014 
L 480.028125 288.240839 
" style="fill:none;stroke:#464646;stroke-linecap:round;stroke-width:1.5;"/>
   </g>
   <g id="line2d_59">
    <path clip-path="url(#p9c443983c6)" d="M 480.028125 179.267413 
L 480.028125 117.60028 
" style="fill:none;stroke:#464646;stroke-linecap:round;stroke-width:1.5;"/>
   </g>
   <g id="line2d_60">
    <path clip-path="url(#p9c443983c6)" d="M 471.658125 288.240839 
L 488.398125 288.240839 
" style="fill:none;stroke:#464646;stroke-linecap:round;stroke-width:1.5;"/>
   </g>
   <g id="line2d_61">
    <path clip-path="url(#p9c443983c6)" d="M 471.658125 117.60028 
L 488.398125 117.60028 
" style="fill:none;stroke:#464646;stroke-linecap:round;stroke-width:1.5;"/>
   </g>
   <g id="line2d_62">
    <g clip-path="url(#p9c443983c6)">
     <use style="fill:#464646;stroke:#464646;stroke-linejoin:miter;" x="480.028125" xlink:href="#m2ae67e038f" y="301.756923"/>
     <use style="fill:#464646;stroke:#464646;stroke-linejoin:miter;" x="480.028125" xlink:href="#m2ae67e038f" y="322.031049"/>
    </g>
   </g>
   <g id="line2d_63">
    <path clip-path="url(#p9c443983c6)" d="M 521.878125 188.55972 
L 521.878125 244.313566 
" style="fill:none;stroke:#464646;stroke-linecap:round;stroke-width:1.5;"/>
   </g>
   <g id="line2d_64">
    <path clip-path="url(#p9c443983c6)" d="M 521.878125 147.80028 
L 521.878125 107.463217 
" style="fill:none;stroke:#464646;stroke-linecap:round;stroke-width:1.5;"/>
   </g>
   <g id="line2d_65">
    <path clip-path="url(#p9c443983c6)" d="M 513.508125 244.313566 
L 530.248125 244.313566 
" style="fill:none;stroke:#464646;stroke-linecap:round;stroke-width:1.5;"/>
   </g>
   <g id="line2d_66">
    <path clip-path="url(#p9c443983c6)" d="M 513.508125 107.463217 
L 530.248125 107.463217 
" style="fill:none;stroke:#464646;stroke-linecap:round;stroke-width:1.5;"/>
   </g>
   <g id="line2d_67">
    <g clip-path="url(#p9c443983c6)">
     <use style="fill:#464646;stroke:#464646;stroke-linejoin:miter;" x="521.878125" xlink:href="#m2ae67e038f" y="257.82965"/>
    </g>
   </g>
   <g id="line2d_68">
    <path clip-path="url(#p9c443983c6)" d="M 44.788125 164.906573 
L 78.268125 164.906573 
" style="fill:none;stroke:#464646;stroke-linecap:round;stroke-width:1.5;"/>
   </g>
   <g id="line2d_69">
    <path clip-path="url(#p9c443983c6)" d="M 86.638125 180.112168 
L 120.118125 180.112168 
" style="fill:none;stroke:#464646;stroke-linecap:round;stroke-width:1.5;"/>
   </g>
   <g id="line2d_70">
    <path clip-path="url(#p9c443983c6)" d="M 128.488125 201.231049 
L 161.968125 201.231049 
" style="fill:none;stroke:#464646;stroke-linecap:round;stroke-width:1.5;"/>
   </g>
   <g id="line2d_71">
    <path clip-path="url(#p9c443983c6)" d="M 170.338125 242.201678 
L 203.818125 242.201678 
" style="fill:none;stroke:#464646;stroke-linecap:round;stroke-width:1.5;"/>
   </g>
   <g id="line2d_72">
    <path clip-path="url(#p9c443983c6)" d="M 212.188125 281.06042 
L 245.668125 281.06042 
" style="fill:none;stroke:#464646;stroke-linecap:round;stroke-width:1.5;"/>
   </g>
   <g id="line2d_73">
    <path clip-path="url(#p9c443983c6)" d="M 254.038125 296.688392 
L 287.518125 296.688392 
" style="fill:none;stroke:#464646;stroke-linecap:round;stroke-width:1.5;"/>
   </g>
   <g id="line2d_74">
    <path clip-path="url(#p9c443983c6)" d="M 295.888125 300.067413 
L 329.368125 300.067413 
" style="fill:none;stroke:#464646;stroke-linecap:round;stroke-width:1.5;"/>
   </g>
   <g id="line2d_75">
    <path clip-path="url(#p9c443983c6)" d="M 337.738125 270.500979 
L 371.218125 270.500979 
" style="fill:none;stroke:#464646;stroke-linecap:round;stroke-width:1.5;"/>
   </g>
   <g id="line2d_76">
    <path clip-path="url(#p9c443983c6)" d="M 379.588125 262.475804 
L 413.068125 262.475804 
" style="fill:none;stroke:#464646;stroke-linecap:round;stroke-width:1.5;"/>
   </g>
   <g id="line2d_77">
    <path clip-path="url(#p9c443983c6)" d="M 421.438125 244.313566 
L 454.918125 244.313566 
" style="fill:none;stroke:#464646;stroke-linecap:round;stroke-width:1.5;"/>
   </g>
   <g id="line2d_78">
    <path clip-path="url(#p9c443983c6)" d="M 463.288125 207.144336 
L 496.768125 207.144336 
" style="fill:none;stroke:#464646;stroke-linecap:round;stroke-width:1.5;"/>
   </g>
   <g id="line2d_79">
    <path clip-path="url(#p9c443983c6)" d="M 505.138125 164.906573 
L 538.618125 164.906573 
" style="fill:none;stroke:#464646;stroke-linecap:round;stroke-width:1.5;"/>
   </g>
   <g id="patch_15">
    <path d="M 40.603125 376.56 
L 40.603125 50.4 
" style="fill:none;stroke:#cccccc;stroke-linecap:square;stroke-linejoin:miter;stroke-width:0.8;"/>
   </g>
   <g id="patch_16">
    <path d="M 542.803125 376.56 
L 542.803125 50.4 
" style="fill:none;stroke:#cccccc;stroke-linecap:square;stroke-linejoin:miter;stroke-width:0.8;"/>
   </g>
   <g id="patch_17">
    <path d="M 40.603125 376.56 
L 542.803125 376.56 
" style="fill:none;stroke:#cccccc;stroke-linecap:square;stroke-linejoin:miter;stroke-width:0.8;"/>
   </g>
   <g id="patch_18">
    <path d="M 40.603125 50.4 
L 542.803125 50.4 
" style="fill:none;stroke:#cccccc;stroke-linecap:square;stroke-linejoin:miter;stroke-width:0.8;"/>
   </g>
   <g id="text_22">
    <!-- Boxplots por mes del año para el periodo 2014-2018 -->
    <g style="fill:#262626;" transform="translate(133.265625 44.4)scale(0.12 -0.12)">
     <defs>
      <path d="M 1259 2228 
L 1259 519 
L 2272 519 
Q 2781 519 3026 730 
Q 3272 941 3272 1375 
Q 3272 1813 3026 2020 
Q 2781 2228 2272 2228 
L 1259 2228 
z
M 1259 4147 
L 1259 2741 
L 2194 2741 
Q 2656 2741 2882 2914 
Q 3109 3088 3109 3444 
Q 3109 3797 2882 3972 
Q 2656 4147 2194 4147 
L 1259 4147 
z
M 628 4666 
L 2241 4666 
Q 2963 4666 3353 4366 
Q 3744 4066 3744 3513 
Q 3744 3084 3544 2831 
Q 3344 2578 2956 2516 
Q 3422 2416 3680 2098 
Q 3938 1781 3938 1306 
Q 3938 681 3513 340 
Q 3088 0 2303 0 
L 628 0 
L 628 4666 
z
" id="DejaVuSans-42" transform="scale(0.015625)"/>
      <path d="M 3513 3500 
L 2247 1797 
L 3578 0 
L 2900 0 
L 1881 1375 
L 863 0 
L 184 0 
L 1544 1831 
L 300 3500 
L 978 3500 
L 1906 2253 
L 2834 3500 
L 3513 3500 
z
" id="DejaVuSans-78" transform="scale(0.015625)"/>
      <path d="M 603 3500 
L 1178 3500 
L 1178 0 
L 603 0 
L 603 3500 
z
M 603 4863 
L 1178 4863 
L 1178 4134 
L 603 4134 
L 603 4863 
z
" id="DejaVuSans-69" transform="scale(0.015625)"/>
      <path d="M 313 2009 
L 1997 2009 
L 1997 1497 
L 313 1497 
L 313 2009 
z
" id="DejaVuSans-2d" transform="scale(0.015625)"/>
     </defs>
     <use xlink:href="#DejaVuSans-42"/>
     <use x="68.603516" xlink:href="#DejaVuSans-6f"/>
     <use x="126.660156" xlink:href="#DejaVuSans-78"/>
     <use x="185.839844" xlink:href="#DejaVuSans-70"/>
     <use x="249.316406" xlink:href="#DejaVuSans-6c"/>
     <use x="277.099609" xlink:href="#DejaVuSans-6f"/>
     <use x="338.28125" xlink:href="#DejaVuSans-74"/>
     <use x="377.490234" xlink:href="#DejaVuSans-73"/>
     <use x="429.589844" xlink:href="#DejaVuSans-20"/>
     <use x="461.376953" xlink:href="#DejaVuSans-70"/>
     <use x="524.853516" xlink:href="#DejaVuSans-6f"/>
     <use x="586.035156" xlink:href="#DejaVuSans-72"/>
     <use x="627.148438" xlink:href="#DejaVuSans-20"/>
     <use x="658.935547" xlink:href="#DejaVuSans-6d"/>
     <use x="756.347656" xlink:href="#DejaVuSans-65"/>
     <use x="817.871094" xlink:href="#DejaVuSans-73"/>
     <use x="869.970703" xlink:href="#DejaVuSans-20"/>
     <use x="901.757812" xlink:href="#DejaVuSans-64"/>
     <use x="965.234375" xlink:href="#DejaVuSans-65"/>
     <use x="1026.757812" xlink:href="#DejaVuSans-6c"/>
     <use x="1054.541016" xlink:href="#DejaVuSans-20"/>
     <use x="1086.328125" xlink:href="#DejaVuSans-61"/>
     <use x="1147.607422" xlink:href="#DejaVuSans-f1"/>
     <use x="1210.986328" xlink:href="#DejaVuSans-6f"/>
     <use x="1272.167969" xlink:href="#DejaVuSans-20"/>
     <use x="1303.955078" xlink:href="#DejaVuSans-70"/>
     <use x="1367.431641" xlink:href="#DejaVuSans-61"/>
     <use x="1428.710938" xlink:href="#DejaVuSans-72"/>
     <use x="1469.824219" xlink:href="#DejaVuSans-61"/>
     <use x="1531.103516" xlink:href="#DejaVuSans-20"/>
     <use x="1562.890625" xlink:href="#DejaVuSans-65"/>
     <use x="1624.414062" xlink:href="#DejaVuSans-6c"/>
     <use x="1652.197266" xlink:href="#DejaVuSans-20"/>
     <use x="1683.984375" xlink:href="#DejaVuSans-70"/>
     <use x="1747.460938" xlink:href="#DejaVuSans-65"/>
     <use x="1808.984375" xlink:href="#DejaVuSans-72"/>
     <use x="1850.097656" xlink:href="#DejaVuSans-69"/>
     <use x="1877.880859" xlink:href="#DejaVuSans-6f"/>
     <use x="1939.0625" xlink:href="#DejaVuSans-64"/>
     <use x="2002.539062" xlink:href="#DejaVuSans-6f"/>
     <use x="2063.720703" xlink:href="#DejaVuSans-20"/>
     <use x="2095.507812" xlink:href="#DejaVuSans-32"/>
     <use x="2159.130859" xlink:href="#DejaVuSans-30"/>
     <use x="2222.753906" xlink:href="#DejaVuSans-31"/>
     <use x="2286.376953" xlink:href="#DejaVuSans-34"/>
     <use x="2350" xlink:href="#DejaVuSans-2d"/>
     <use x="2386.083984" xlink:href="#DejaVuSans-32"/>
     <use x="2449.707031" xlink:href="#DejaVuSans-30"/>
     <use x="2513.330078" xlink:href="#DejaVuSans-31"/>
     <use x="2576.953125" xlink:href="#DejaVuSans-38"/>
    </g>
   </g>
  </g>
  <g id="text_23">
   <!-- Temperaturas máximas observadas en Pehuajó, Argentina (Id OMM: 87544) -->
   <g style="fill:#262626;" transform="translate(10.8165 18.71775)scale(0.144 -0.144)">
    <defs>
     <path d="M 2194 1759 
Q 1497 1759 1228 1600 
Q 959 1441 959 1056 
Q 959 750 1161 570 
Q 1363 391 1709 391 
Q 2188 391 2477 730 
Q 2766 1069 2766 1631 
L 2766 1759 
L 2194 1759 
z
M 3341 1997 
L 3341 0 
L 2766 0 
L 2766 531 
Q 2569 213 2275 61 
Q 1981 -91 1556 -91 
Q 1019 -91 701 211 
Q 384 513 384 1019 
Q 384 1609 779 1909 
Q 1175 2209 1959 2209 
L 2766 2209 
L 2766 2266 
Q 2766 2663 2505 2880 
Q 2244 3097 1772 3097 
Q 1472 3097 1187 3025 
Q 903 2953 641 2809 
L 641 3341 
Q 956 3463 1253 3523 
Q 1550 3584 1831 3584 
Q 2591 3584 2966 3190 
Q 3341 2797 3341 1997 
z
M 2290 5119 
L 2912 5119 
L 1894 3944 
L 1415 3944 
L 2290 5119 
z
" id="DejaVuSans-e1" transform="scale(0.015625)"/>
     <path d="M 3116 1747 
Q 3116 2381 2855 2742 
Q 2594 3103 2138 3103 
Q 1681 3103 1420 2742 
Q 1159 2381 1159 1747 
Q 1159 1113 1420 752 
Q 1681 391 2138 391 
Q 2594 391 2855 752 
Q 3116 1113 3116 1747 
z
M 1159 2969 
Q 1341 3281 1617 3432 
Q 1894 3584 2278 3584 
Q 2916 3584 3314 3078 
Q 3713 2572 3713 1747 
Q 3713 922 3314 415 
Q 2916 -91 2278 -91 
Q 1894 -91 1617 61 
Q 1341 213 1159 525 
L 1159 0 
L 581 0 
L 581 4863 
L 1159 4863 
L 1159 2969 
z
" id="DejaVuSans-62" transform="scale(0.015625)"/>
     <path d="M 191 3500 
L 800 3500 
L 1894 563 
L 2988 3500 
L 3597 3500 
L 2284 0 
L 1503 0 
L 191 3500 
z
" id="DejaVuSans-76" transform="scale(0.015625)"/>
     <path d="M 3513 2113 
L 3513 0 
L 2938 0 
L 2938 2094 
Q 2938 2591 2744 2837 
Q 2550 3084 2163 3084 
Q 1697 3084 1428 2787 
Q 1159 2491 1159 1978 
L 1159 0 
L 581 0 
L 581 3500 
L 1159 3500 
L 1159 2956 
Q 1366 3272 1645 3428 
Q 1925 3584 2291 3584 
Q 2894 3584 3203 3211 
Q 3513 2838 3513 2113 
z
" id="DejaVuSans-6e" transform="scale(0.015625)"/>
     <path d="M 1259 4147 
L 1259 2394 
L 2053 2394 
Q 2494 2394 2734 2622 
Q 2975 2850 2975 3272 
Q 2975 3691 2734 3919 
Q 2494 4147 2053 4147 
L 1259 4147 
z
M 628 4666 
L 2053 4666 
Q 2838 4666 3239 4311 
Q 3641 3956 3641 3272 
Q 3641 2581 3239 2228 
Q 2838 1875 2053 1875 
L 1259 1875 
L 1259 0 
L 628 0 
L 628 4666 
z
" id="DejaVuSans-50" transform="scale(0.015625)"/>
     <path d="M 3513 2113 
L 3513 0 
L 2938 0 
L 2938 2094 
Q 2938 2591 2744 2837 
Q 2550 3084 2163 3084 
Q 1697 3084 1428 2787 
Q 1159 2491 1159 1978 
L 1159 0 
L 581 0 
L 581 4863 
L 1159 4863 
L 1159 2956 
Q 1366 3272 1645 3428 
Q 1925 3584 2291 3584 
Q 2894 3584 3203 3211 
Q 3513 2838 3513 2113 
z
" id="DejaVuSans-68" transform="scale(0.015625)"/>
     <path d="M 603 3500 
L 1178 3500 
L 1178 -63 
Q 1178 -731 923 -1031 
Q 669 -1331 103 -1331 
L -116 -1331 
L -116 -844 
L 38 -844 
Q 366 -844 484 -692 
Q 603 -541 603 -63 
L 603 3500 
z
M 603 4863 
L 1178 4863 
L 1178 4134 
L 603 4134 
L 603 4863 
z
" id="DejaVuSans-6a" transform="scale(0.015625)"/>
     <path d="M 1959 3097 
Q 1497 3097 1228 2736 
Q 959 2375 959 1747 
Q 959 1119 1226 758 
Q 1494 397 1959 397 
Q 2419 397 2687 759 
Q 2956 1122 2956 1747 
Q 2956 2369 2687 2733 
Q 2419 3097 1959 3097 
z
M 1959 3584 
Q 2709 3584 3137 3096 
Q 3566 2609 3566 1747 
Q 3566 888 3137 398 
Q 2709 -91 1959 -91 
Q 1206 -91 779 398 
Q 353 888 353 1747 
Q 353 2609 779 3096 
Q 1206 3584 1959 3584 
z
M 2394 5119 
L 3016 5119 
L 1998 3944 
L 1519 3944 
L 2394 5119 
z
" id="DejaVuSans-f3" transform="scale(0.015625)"/>
     <path d="M 750 794 
L 1409 794 
L 1409 256 
L 897 -744 
L 494 -744 
L 750 256 
L 750 794 
z
" id="DejaVuSans-2c" transform="scale(0.015625)"/>
     <path d="M 2188 4044 
L 1331 1722 
L 3047 1722 
L 2188 4044 
z
M 1831 4666 
L 2547 4666 
L 4325 0 
L 3669 0 
L 3244 1197 
L 1141 1197 
L 716 0 
L 50 0 
L 1831 4666 
z
" id="DejaVuSans-41" transform="scale(0.015625)"/>
     <path d="M 2906 1791 
Q 2906 2416 2648 2759 
Q 2391 3103 1925 3103 
Q 1463 3103 1205 2759 
Q 947 2416 947 1791 
Q 947 1169 1205 825 
Q 1463 481 1925 481 
Q 2391 481 2648 825 
Q 2906 1169 2906 1791 
z
M 3481 434 
Q 3481 -459 3084 -895 
Q 2688 -1331 1869 -1331 
Q 1566 -1331 1297 -1286 
Q 1028 -1241 775 -1147 
L 775 -588 
Q 1028 -725 1275 -790 
Q 1522 -856 1778 -856 
Q 2344 -856 2625 -561 
Q 2906 -266 2906 331 
L 2906 616 
Q 2728 306 2450 153 
Q 2172 0 1784 0 
Q 1141 0 747 490 
Q 353 981 353 1791 
Q 353 2603 747 3093 
Q 1141 3584 1784 3584 
Q 2172 3584 2450 3431 
Q 2728 3278 2906 2969 
L 2906 3500 
L 3481 3500 
L 3481 434 
z
" id="DejaVuSans-67" transform="scale(0.015625)"/>
     <path d="M 628 4666 
L 1259 4666 
L 1259 0 
L 628 0 
L 628 4666 
z
" id="DejaVuSans-49" transform="scale(0.015625)"/>
     <path d="M 2522 4238 
Q 1834 4238 1429 3725 
Q 1025 3213 1025 2328 
Q 1025 1447 1429 934 
Q 1834 422 2522 422 
Q 3209 422 3611 934 
Q 4013 1447 4013 2328 
Q 4013 3213 3611 3725 
Q 3209 4238 2522 4238 
z
M 2522 4750 
Q 3503 4750 4090 4092 
Q 4678 3434 4678 2328 
Q 4678 1225 4090 567 
Q 3503 -91 2522 -91 
Q 1538 -91 948 565 
Q 359 1222 359 2328 
Q 359 3434 948 4092 
Q 1538 4750 2522 4750 
z
" id="DejaVuSans-4f" transform="scale(0.015625)"/>
     <path d="M 750 794 
L 1409 794 
L 1409 0 
L 750 0 
L 750 794 
z
M 750 3309 
L 1409 3309 
L 1409 2516 
L 750 2516 
L 750 3309 
z
" id="DejaVuSans-3a" transform="scale(0.015625)"/>
    </defs>
    <use xlink:href="#DejaVuSans-54"/>
    <use x="44.083984" xlink:href="#DejaVuSans-65"/>
    <use x="105.607422" xlink:href="#DejaVuSans-6d"/>
    <use x="203.019531" xlink:href="#DejaVuSans-70"/>
    <use x="266.496094" xlink:href="#DejaVuSans-65"/>
    <use x="328.019531" xlink:href="#DejaVuSans-72"/>
    <use x="369.132812" xlink:href="#DejaVuSans-61"/>
    <use x="430.412109" xlink:href="#DejaVuSans-74"/>
    <use x="469.621094" xlink:href="#DejaVuSans-75"/>
    <use x="533" xlink:href="#DejaVuSans-72"/>
    <use x="574.113281" xlink:href="#DejaVuSans-61"/>
    <use x="635.392578" xlink:href="#DejaVuSans-73"/>
    <use x="687.492188" xlink:href="#DejaVuSans-20"/>
    <use x="719.279297" xlink:href="#DejaVuSans-6d"/>
    <use x="816.691406" xlink:href="#DejaVuSans-e1"/>
    <use x="877.970703" xlink:href="#DejaVuSans-78"/>
    <use x="937.150391" xlink:href="#DejaVuSans-69"/>
    <use x="964.933594" xlink:href="#DejaVuSans-6d"/>
    <use x="1062.345703" xlink:href="#DejaVuSans-61"/>
    <use x="1123.625" xlink:href="#DejaVuSans-73"/>
    <use x="1175.724609" xlink:href="#DejaVuSans-20"/>
    <use x="1207.511719" xlink:href="#DejaVuSans-6f"/>
    <use x="1268.693359" xlink:href="#DejaVuSans-62"/>
    <use x="1332.169922" xlink:href="#DejaVuSans-73"/>
    <use x="1384.269531" xlink:href="#DejaVuSans-65"/>
    <use x="1445.792969" xlink:href="#DejaVuSans-72"/>
    <use x="1486.90625" xlink:href="#DejaVuSans-76"/>
    <use x="1546.085938" xlink:href="#DejaVuSans-61"/>
    <use x="1607.365234" xlink:href="#DejaVuSans-64"/>
    <use x="1670.841797" xlink:href="#DejaVuSans-61"/>
    <use x="1732.121094" xlink:href="#DejaVuSans-73"/>
    <use x="1784.220703" xlink:href="#DejaVuSans-20"/>
    <use x="1816.007812" xlink:href="#DejaVuSans-65"/>
    <use x="1877.53125" xlink:href="#DejaVuSans-6e"/>
    <use x="1940.910156" xlink:href="#DejaVuSans-20"/>
    <use x="1972.697266" xlink:href="#DejaVuSans-50"/>
    <use x="2029.375" xlink:href="#DejaVuSans-65"/>
    <use x="2090.898438" xlink:href="#DejaVuSans-68"/>
    <use x="2154.277344" xlink:href="#DejaVuSans-75"/>
    <use x="2217.65625" xlink:href="#DejaVuSans-61"/>
    <use x="2278.935547" xlink:href="#DejaVuSans-6a"/>
    <use x="2306.71875" xlink:href="#DejaVuSans-f3"/>
    <use x="2367.900391" xlink:href="#DejaVuSans-2c"/>
    <use x="2399.6875" xlink:href="#DejaVuSans-20"/>
    <use x="2431.474609" xlink:href="#DejaVuSans-41"/>
    <use x="2499.882812" xlink:href="#DejaVuSans-72"/>
    <use x="2539.246094" xlink:href="#DejaVuSans-67"/>
    <use x="2602.722656" xlink:href="#DejaVuSans-65"/>
    <use x="2664.246094" xlink:href="#DejaVuSans-6e"/>
    <use x="2727.625" xlink:href="#DejaVuSans-74"/>
    <use x="2766.833984" xlink:href="#DejaVuSans-69"/>
    <use x="2794.617188" xlink:href="#DejaVuSans-6e"/>
    <use x="2857.996094" xlink:href="#DejaVuSans-61"/>
    <use x="2919.275391" xlink:href="#DejaVuSans-20"/>
    <use x="2951.0625" xlink:href="#DejaVuSans-28"/>
    <use x="2990.076172" xlink:href="#DejaVuSans-49"/>
    <use x="3019.568359" xlink:href="#DejaVuSans-64"/>
    <use x="3083.044922" xlink:href="#DejaVuSans-20"/>
    <use x="3114.832031" xlink:href="#DejaVuSans-4f"/>
    <use x="3193.542969" xlink:href="#DejaVuSans-4d"/>
    <use x="3279.822266" xlink:href="#DejaVuSans-4d"/>
    <use x="3366.101562" xlink:href="#DejaVuSans-3a"/>
    <use x="3399.792969" xlink:href="#DejaVuSans-20"/>
    <use x="3431.580078" xlink:href="#DejaVuSans-38"/>
    <use x="3495.203125" xlink:href="#DejaVuSans-37"/>
    <use x="3558.826172" xlink:href="#DejaVuSans-35"/>
    <use x="3622.449219" xlink:href="#DejaVuSans-34"/>
    <use x="3686.072266" xlink:href="#DejaVuSans-34"/>
    <use x="3749.695312" xlink:href="#DejaVuSans-29"/>
   </g>
  </g>
 </g>
 <defs>
  <clipPath id="p9c443983c6">
   <rect height="326.16" width="502.2" x="40.603125" y="50.4"/>
  </clipPath>
 </defs>
</svg>
